SplineFontDB: 3.2
FontName: NewCMSans08-Oblique
FullName: NewComputerModernSans08-Oblique
FamilyName: NewComputerModernSans08
Weight: Regular
Copyright: (C) 2019-2021 Antonis Tsolomitis. This work is released under the GUST Font License --  see http://tug.org/fonts/licenses/GUST-FONT-LICENSE.txt for details.
Version: 3.93
ItalicAngle: 0
UnderlinePosition: -146
UnderlineWidth: 40
Ascent: 806
Descent: 194
InvalidEm: 0
sfntRevision: 0x00021999
LayerCount: 2
Layer: 0 0 "Back" 1
Layer: 1 0 "Fore" 0
XUID: [1021 12 -395342500 13699419]
StyleMap: 0x0040
FSType: 8
OS2Version: 3
OS2_WeightWidthSlopeOnly: 0
OS2_UseTypoMetrics: 0
CreationTime: 1254996025
ModificationTime: 1633796168
PfmFamily: 81
TTFWeight: 400
TTFWidth: 5
LineGap: 0
VLineGap: 0
Panose: 0 0 5 0 0 0 0 0 0 0
OS2TypoAscent: 806
OS2TypoAOffset: 0
OS2TypoDescent: -194
OS2TypoDOffset: 0
OS2TypoLinegap: 200
OS2WinAscent: 1154
OS2WinAOffset: 0
OS2WinDescent: 309
OS2WinDOffset: 0
HheadAscent: 1154
HheadAOffset: 0
HheadDescent: -309
HheadDOffset: 0
OS2SubXSize: 650
OS2SubYSize: 600
OS2SubXOff: 0
OS2SubYOff: 75
OS2SupXSize: 650
OS2SupYSize: 600
OS2SupXOff: 0
OS2SupYOff: 350
OS2StrikeYSize: 40
OS2StrikeYPos: 266
OS2CapHeight: 694
OS2XHeight: 444
OS2Vendor: 'UKWN'
OS2CodePages: 20000193.00000000
OS2UnicodeRanges: 20000007.00000000.00000000.00000000
Lookup: 1 0 0 "'aalt' Access All Alternates lookup 0" { "'aalt' Access All Alternates lookup 0 subtable"  } ['aalt' ('DFLT' <'dflt' > 'cyrl' <'dflt' > 'latn' <'AZE ' 'CRT ' 'MOL ' 'NLD ' 'PLK ' 'ROM ' 'TRK ' 'dflt' > ) ]
Lookup: 3 0 0 "'aalt' Access All Alternates lookup 1" { "'aalt' Access All Alternates lookup 1 subtable"  } ['aalt' ('DFLT' <'dflt' > 'cyrl' <'dflt' > 'latn' <'AZE ' 'CRT ' 'MOL ' 'NLD ' 'PLK ' 'ROM ' 'TRK ' 'dflt' > ) ]
Lookup: 1 0 0 "'locl' Localized Forms in Latin lookup 2" { "'locl' Localized Forms in Latin lookup 2 subtable"  } ['locl' ('latn' <'MOL ' 'ROM ' > ) ]

StartChar: exclam
Encoding: 33 33 2
Width: 337
GlyphClass: 2
Flags: HMW
LayerCount: 2
Fore
SplineSet
243.984375 174 m 1
 168.984375 174 l 1
 178.549804688 219 l 1
 270.514648438 694 l 1
 363.514648438 694 l 1
 243.984375 174 l 1
123 0 m 1
 141.4921875 87 l 1
 234.4921875 87 l 1
 216 0 l 1
 123 0 l 1
EndSplineSet
EndChar

StartChar: quotedbl
Encoding: 34 34 3
Width: 467
GlyphClass: 2
Flags: HMW
LayerCount: 2
Fore
SplineSet
360.399414062 430 m 1
 421.190429688 716 l 1
 508.190429688 716 l 1
 447.399414062 430 l 1
 360.399414062 430 l 1
196.399414062 430 m 1
 257.190429688 716 l 1
 345.190429688 716 l 1
 284.399414062 430 l 1
 196.399414062 430 l 1
EndSplineSet
EndChar

StartChar: numbersign
Encoding: 35 35 4
Width: 885
GlyphClass: 2
Flags: HMW
LayerCount: 2
Fore
SplineSet
810.20703125 128 m 2
 576.20703125 128 l 1
 429.290039062 -168 l 2
 427.631835938 -172.666992188 422.477539062 -179.666992188 413.827148438 -189 c 0
 409.118164062 -192.333007812 404.096679688 -194 398.763671875 -194 c 0
 382.763671875 -194 376.322265625 -186.666992188 379.440429688 -172 c 0
 380.999023438 -164.666992188 384.012695312 -158.333007812 388.478515625 -153 c 1
 527.20703125 128 l 1
 335.20703125 128 l 1
 189.290039062 -168 l 2
 180.654296875 -185.333007812 170.14453125 -194 157.763671875 -194 c 0
 142.430664062 -194 136.322265625 -186.666992188 139.440429688 -172 c 0
 140.999023438 -164.666992188 143.678710938 -158.333007812 147.478515625 -153 c 1
 287.20703125 128 l 1
 123.20703125 128 l 2
 98.5400390625 128 87.8017578125 135.5 90.990234375 150.5 c 128
 94.177734375 165.5 108.439453125 173 133.772460938 173 c 2
 310.772460938 173 l 1
 386.505859375 327 l 1
 166.505859375 327 l 2
 141.172851562 327 130.100585938 334.5 133.288085938 349.5 c 128
 136.4765625 364.5 150.404296875 372 175.071289062 372 c 2
 410.071289062 372 l 1
 555.987304688 668 l 2
 564.624023438 685.333007812 575.133789062 694 587.514648438 694 c 0
 602.84765625 694 608.956054688 686.666992188 605.837890625 672 c 0
 604.279296875 664.666992188 601.599609375 658.333007812 597.799804688 653 c 1
 458.071289062 372 l 1
 650.071289062 372 l 1
 796.987304688 668 l 2
 798.646484375 672.666992188 803.80078125 679.666992188 812.451171875 689 c 0
 817.16015625 692.333007812 822.181640625 694 827.514648438 694 c 0
 843.514648438 694 849.956054688 686.666992188 846.837890625 672 c 0
 845.279296875 664.666992188 842.599609375 658.333007812 838.799804688 653 c 1
 699.071289062 372 l 1
 862.071289062 372 l 2
 886.73828125 372 897.4765625 364.5 894.288085938 349.5 c 128
 891.100585938 334.5 876.838867188 327 851.505859375 327 c 2
 675.505859375 327 l 1
 599.772460938 173 l 1
 818.772460938 173 l 2
 844.10546875 173 855.177734375 165.5 851.990234375 150.5 c 128
 848.801757812 135.5 834.874023438 128 810.20703125 128 c 2
434.505859375 327 m 1
 358.772460938 173 l 1
 550.772460938 173 l 1
 626.505859375 327 l 1
 434.505859375 327 l 1
EndSplineSet
EndChar

StartChar: dollar
Encoding: 36 36 5
Width: 531
GlyphClass: 2
Flags: HMW
LayerCount: 2
Fore
SplineSet
513.767578125 196.5 m 256
 491.13671875 90.029296875 395.630859375 7.060546875 298.299804688 -8 c 1
 288.096679688 -56 l 1
 221.096679688 -56 l 1
 230.874023438 -10 l 1
 166.149414062 -4 109.0390625 19 59.541015625 59 c 1
 89.0576171875 132 l 1
 130.129882812 90 182.291015625 65.6669921875 245.541015625 59 c 1
 301.018554688 320 l 1
 233.227539062 336.666992188 191.817382812 367.666992188 176.786132812 413 c 0
 165.104492188 449 162.452148438 482 168.829101562 512 c 0
 190.98046875 616.212890625 287.69921875 686.958007812 382.427734375 703 c 1
 392.416992188 750 l 1
 459.416992188 750 l 1
 449.639648438 704 l 1
 501.45703125 700 549.155273438 681.333007812 592.736328125 648 c 1
 564.645507812 577 l 1
 526.5390625 611 483.314453125 630.333007812 434.973632812 635 c 1
 385.235351562 401 l 1
 474.967773438 382.513671875 536.802734375 304.875 513.767578125 196.5 c 256
367.547851562 633 m 1
 317.72265625 620.884765625 265.528320312 581.154296875 253.379882812 524 c 256
 241.120117188 466.325195312 276.060546875 429.033203125 321.635742188 417 c 1
 367.547851562 633 l 1
313.178710938 62 m 1
 364.696289062 76.5283203125 416.0625 122.616210938 428.897460938 183 c 256
 441.729492188 243.368164062 410.146484375 290.479492188 364.830078125 305 c 1
 313.178710938 62 l 1
EndSplineSet
Substitution2: "'onum' Oldstyle Figures lookup 4 subtable" dollar.oldstyle
Substitution2: "'aalt' Access All Alternates lookup 0 subtable" dollar.oldstyle
EndChar

StartChar: percent
Encoding: 37 37 6
Width: 885
GlyphClass: 2
Flags: HMW
CounterMasks: 1 e0
LayerCount: 2
Fore
SplineSet
787.975585938 14 m 0
 750.056640625 -32.6669921875 707.9296875 -56 661.596679688 -56 c 128
 615.263671875 -56 582.723632812 -32.6669921875 563.975585938 14 c 0
 547.811523438 54 544.936523438 98.5 555.352539062 147.5 c 128
 565.767578125 196.5 588.842773438 242.333007812 624.579101562 285 c 128
 660.314453125 327.666992188 701.349609375 349 747.682617188 349 c 128
 794.015625 349 826.22265625 325.666992188 844.303710938 279 c 0
 859.275390625 239.666992188 861.5546875 195.5 851.139648438 146.5 c 128
 840.724609375 97.5 819.668945312 53.3330078125 787.975585938 14 c 0
839.490234375 708 m 2
 224.709960938 -39 l 2
 215.634765625 -50.3330078125 206.4296875 -56 197.096679688 -56 c 0
 181.096679688 -56 174.7265625 -48.3330078125 177.985351562 -33 c 1
 189.811523438 -15 l 1
 805.803710938 733 l 2
 814.879882812 744.333007812 824.083984375 750 833.416992188 750 c 0
 849.416992188 750 855.858398438 742.666992188 852.741210938 728 c 0
 852.033203125 724.666992188 847.615234375 718 839.490234375 708 c 2
464.538085938 680 m 0
 479.510742188 640.666992188 481.790039062 596.5 471.375 547.5 c 128
 460.958984375 498.5 438.181640625 452.5 403.041992188 409.5 c 128
 367.90234375 366.5 327.33203125 345 281.33203125 345 c 128
 235.33203125 345 203.569335938 366.5 186.041992188 409.5 c 128
 168.514648438 452.5 164.995117188 498.666992188 175.481445312 548 c 256
 185.966796875 597.333007812 207.723632812 641.666992188 240.750976562 681 c 0
 279.1953125 727 321.583984375 750 367.916992188 750 c 128
 414.25 750 446.458007812 726.666992188 464.538085938 680 c 0
734.366210938 284 m 0
 724.366210938 284 712.374023438 279.333007812 698.390625 270 c 0
 672.752929688 252.888671875 652.967773438 211.555664062 639.033203125 146 c 256
 625.055664062 80.2421875 629.057617188 37.9091796875 651.0390625 19 c 0
 658.430664062 13 666.79296875 10 676.125976562 10 c 0
 700.125976562 10 722.284179688 28 742.603515625 64 c 0
 757.604492188 90.6669921875 768.15234375 118.333007812 774.24609375 147 c 256
 780.338867188 175.666992188 781.219726562 203.333007812 776.887695312 230 c 0
 771.873046875 266 757.69921875 284 734.366210938 284 c 0
354.388671875 684 m 0
 324.122070312 684 298.950195312 659.666992188 278.872070312 611 c 0
 271.045898438 593 264.440429688 571.333007812 259.055664062 546 c 0
 244.96875 479.727539062 249.041992188 437.727539062 271.2734375 420 c 0
 278.5234375 413.333007812 286.815429688 410 296.1484375 410 c 0
 319.481445312 410 341.307617188 428 361.625976562 464 c 0
 377.294921875 490.666992188 388.174804688 518.333007812 394.268554688 547 c 128
 400.361328125 575.666992188 401.2421875 603.333007812 396.91015625 630 c 0
 391.895507812 666 377.721679688 684 354.388671875 684 c 0
EndSplineSet
EndChar

StartChar: ampersand
Encoding: 38 38 7
Width: 806
GlyphClass: 2
Flags: HMW
LayerCount: 2
Fore
SplineSet
485.995117188 127 m 1
 577.85546875 188.311523438 663.649414062 293.805664062 720.72265625 408 c 1
 786.471679688 388 l 1
 719.365234375 257.333007812 633.946289062 155 530.216796875 81 c 1
 561.399414062 58.3330078125 595.657226562 47 632.990234375 47 c 128
 670.323242188 47 711.265625 53 755.81640625 65 c 1
 740.51171875 -7 l 1
 694.38671875 -17 651.657226562 -22 612.32421875 -22 c 0
 552.991210938 -22 500.6953125 -3 455.439453125 35 c 1
 376.029296875 -3 302.32421875 -22 234.32421875 -22 c 0
 182.991210938 -22 140.987304688 -6.3330078125 108.313476562 25 c 128
 75.640625 56.3330078125 64.193359375 95 73.970703125 141 c 128
 90.5673828125 219.081054688 146.530273438 263.077148438 208.510742188 303.5 c 128
 235.599609375 321.166992188 254.802734375 334.666992188 266.119140625 344 c 2
 277.245117188 354 l 2
 277.38671875 354.666992188 277.1953125 355.333007812 276.669921875 356 c 2
 275.9453125 362 l 1
 267.5234375 413.333007812 268.767578125 464.666992188 279.678710938 516 c 128
 290.590820312 567.333007812 313.0703125 613.5 347.118164062 654.5 c 128
 381.166015625 695.5 420.357421875 716 464.690429688 716 c 128
 509.0234375 716 540.623046875 700 559.487304688 668 c 128
 578.352539062 636 583.640625 600.5 575.350585938 561.5 c 128
 567.060546875 522.5 539.239257812 481 491.887695312 437 c 0
 465.311523438 412.333007812 424.913085938 380.666992188 370.694335938 342 c 1
 391.532226562 270.666992188 429.965820312 199 485.995117188 127 c 1
496.819335938 559 m 0
 505.915039062 601.794921875 499.016601562 650 455.162109375 650 c 0
 406.31640625 650 371.49609375 599.8203125 361.119140625 551 c 0
 350.348632812 500.333007812 349.217773438 452.666992188 357.72265625 408 c 1
 442.234375 470 488.600585938 520.333007812 496.819335938 559 c 0
165.159179688 156 m 128
 151.555664062 92.0029296875 186.635742188 47 249.990234375 47 c 0
 300.657226562 47 353.13671875 58.6669921875 407.4296875 82 c 1
 371.830078125 127.208984375 312.737304688 231.973632812 293.215820312 288 c 1
 243.180664062 253.333007812 217.688476562 235.333007812 216.73828125 234 c 0
 189.295898438 214.666992188 172.102539062 188.666992188 165.159179688 156 c 128
EndSplineSet
Substitution2: "'lnum' Lining Figures lookup 5 subtable" ampersand
Substitution2: "'onum' Oldstyle Figures lookup 4 subtable" ampersand
Substitution2: "'aalt' Access All Alternates lookup 0 subtable" ampersand
EndChar

StartChar: quotesingle
Encoding: 39 39 8
Width: 295
GlyphClass: 2
Flags: HMW
LayerCount: 2
Fore
SplineSet
196.399414062 430 m 1
 257.190429688 716 l 1
 345.190429688 716 l 1
 284.399414062 430 l 1
 196.399414062 430 l 1
EndSplineSet
EndChar

StartChar: parenleft
Encoding: 40 40 9
Width: 413
GlyphClass: 2
Flags: HMW
LayerCount: 2
Fore
SplineSet
518.416992188 750 m 1
 370.677734375 633.385742188 273.372070312 481.623046875 224.138671875 250 c 0
 190.93359375 93.779296875 198.701171875 -53.5869140625 238.604492188 -143 c 0
 264.82421875 -200.740234375 269.528320312 -207.965820312 305.861328125 -250 c 1
 234.861328125 -250 l 1
 123.942382812 -132 91.369140625 34.6669921875 137.138671875 250 c 0
 179.971679688 451.512695312 269.868164062 607.845703125 406.828125 719 c 0
 417.1953125 727 430.724609375 737.333007812 447.416992188 750 c 1
 518.416992188 750 l 1
EndSplineSet
EndChar

StartChar: parenright
Encoding: 41 41 10
Width: 413
GlyphClass: 2
Flags: HMW
LayerCount: 2
Fore
SplineSet
5.861328125 -250 m 1
 154.662109375 -133.546875 250.78515625 17.806640625 300.138671875 250 c 0
 333.765625 408.200195312 325.787109375 553.11328125 285.673828125 643 c 0
 259.454101562 700.740234375 254.75 707.965820312 218.416992188 750 c 1
 290.416992188 750 l 1
 400.668945312 632 432.909179688 465.333007812 387.138671875 250 c 0
 351.813476562 83.8037109375 268.123046875 -83.748046875 172.258789062 -170.5 c 256
 138.002929688 -201.5 106.537109375 -228 77.861328125 -250 c 1
 5.861328125 -250 l 1
EndSplineSet
EndChar

StartChar: asterisk
Encoding: 42 42 11
Width: 531
GlyphClass: 2
Flags: HMW
LayerCount: 2
Fore
SplineSet
555.418945312 439.5 m 128
 550.841796875 417.966796875 531.791992188 399 511.810546875 399 c 128
 503.143554688 399 491.610351562 404.333007812 477.2109375 415 c 2
 397.176757812 476 l 1
 386.35546875 400 379.599609375 355.666992188 376.907226562 343 c 0
 371.6640625 318.333007812 356.041992188 306 330.041992188 306 c 128
 304.041992188 306 293.6640625 318.333007812 298.907226562 343 c 0
 301.599609375 355.666992188 313.689453125 400 335.176757812 476 c 1
 225.573242188 412 l 2
 210.3984375 403.333007812 198.143554688 399 188.810546875 399 c 128
 168.233398438 399 156.701171875 417.3046875 161.3125 439 c 128
 163.86328125 451 175.534179688 462 196.327148438 472 c 2
 318.229492188 528 l 1
 296.638671875 539.333007812 264.797851562 557.333007812 222.708007812 582 c 0
 204.30859375 592.666992188 196.419921875 604.166992188 199.041015625 616.5 c 128
 203.80078125 638.89453125 222.891601562 657 244.149414062 657 c 128
 253.81640625 657 263.537109375 653.333007812 273.311523438 646 c 2
 357.283203125 580 l 1
 368.104492188 656 374.860351562 700.333007812 377.552734375 713 c 0
 382.795898438 737.666992188 398.416992188 750 424.416992188 750 c 256
 450.416992188 750 460.795898438 737.666992188 455.552734375 713 c 0
 452.860351562 700.333007812 440.770507812 656 419.283203125 580 c 1
 528.88671875 644 l 2
 544.061523438 652.666992188 556.31640625 657 565.649414062 657 c 128
 586.2265625 657 597.758789062 638.6953125 593.147460938 617 c 128
 590.596679688 605 578.92578125 594 558.1328125 584 c 2
 435.229492188 528 l 1
 457.48828125 516.666992188 489.662109375 498.666992188 531.751953125 474 c 0
 550.151367188 463.333007812 558.040039062 451.833007812 555.418945312 439.5 c 128
EndSplineSet
EndChar

StartChar: plus
Encoding: 43 43 12
Width: 826
GlyphClass: 2
Flags: HMW
LayerCount: 2
Fore
SplineSet
773.462890625 228 m 2
 483.462890625 228 l 1
 424.796875 -48 l 2
 419.837890625 -71.3330078125 409.524414062 -83 393.857421875 -83 c 256
 378.190429688 -83 372.837890625 -71.3330078125 377.796875 -48 c 2
 436.462890625 228 l 1
 144.462890625 228 l 2
 119.795898438 228 109.021484375 235.333007812 112.138671875 250 c 256
 115.256835938 264.666992188 129.1484375 272 153.815429688 272 c 2
 445.815429688 272 l 1
 504.481445312 548 l 2
 509.440429688 571.333007812 519.75390625 583 535.420898438 583 c 256
 551.087890625 583 556.440429688 571.333007812 551.481445312 548 c 2
 492.815429688 272 l 1
 782.815429688 272 l 2
 808.1484375 272 819.256835938 264.666992188 816.138671875 250 c 256
 813.021484375 235.333007812 798.795898438 228 773.462890625 228 c 2
EndSplineSet
EndChar

StartChar: comma
Encoding: 44 44 13
Width: 295
GlyphClass: 2
Flags: HMW
LayerCount: 2
Fore
SplineSet
122.430664062 -125 m 1
 74.4306640625 -125 l 1
 126.362304688 -3 l 1
 100.362304688 -3 l 1
 118.642578125 83 l 1
 211.642578125 83 l 1
 194 0 l 1
 122.430664062 -125 l 1
EndSplineSet
EndChar

StartChar: hyphen
Encoding: 45 45 14
Width: 354
GlyphClass: 2
Flags: HMW
LayerCount: 2
Fore
SplineSet
53.0234375 193 m 1
 65.3515625 251 l 1
 348.3515625 251 l 1
 336.0234375 193 l 1
 53.0234375 193 l 1
EndSplineSet
EndChar

StartChar: period
Encoding: 46 46 15
Width: 295
GlyphClass: 2
Flags: HMW
LayerCount: 2
Fore
SplineSet
102 0 m 1
 119.642578125 83 l 1
 212.642578125 83 l 1
 195 0 l 1
 102 0 l 1
EndSplineSet
EndChar

StartChar: slash
Encoding: 47 47 16
Width: 531
GlyphClass: 2
Flags: HMW
LayerCount: 2
Fore
SplineSet
615.702148438 709 m 2
 58.537109375 -228 l 2
 50.0869140625 -242.666992188 40.5283203125 -250 29.861328125 -250 c 0
 13.861328125 -250 7.419921875 -242.666992188 10.537109375 -228 c 0
 11.2451171875 -224.666992188 14.591796875 -218.333007812 20.5751953125 -209 c 2
 577.741210938 728 l 2
 586.19140625 742.666992188 595.75 750 606.416992188 750 c 0
 622.416992188 750 628.858398438 742.666992188 625.741210938 728 c 0
 625.033203125 724.666992188 621.686523438 718.333007812 615.702148438 709 c 2
EndSplineSet
EndChar

StartChar: zero
Encoding: 48 48 17
Width: 531
GlyphClass: 2
Flags: HMW
LayerCount: 2
Fore
SplineSet
552.29296875 326 m 0
 502.98046875 94 404.657226562 -22 257.32421875 -22 c 0
 208.657226562 -22 168.795898438 -5.6669921875 137.739257812 27 c 0
 88.7919921875 79 79.9765625 178.666992188 111.29296875 326 c 0
 147.995117188 498.666992188 210.688476562 607 299.374023438 651 c 0
 335.8671875 669 371.946289062 678 407.61328125 678 c 128
 487.6796875 678 539.157226562 632.899414062 557.857421875 578 c 0
 577.529296875 520 575.674804688 436 552.29296875 326 c 0
487.7421875 521 m 0
 477.303710938 581.666992188 445.084960938 612 391.084960938 612 c 128
 337.084960938 612 292.140625 579.333007812 256.25390625 514 c 0
 237.411132812 478.666992188 219.131835938 419.333007812 201.418945312 336 c 128
 183.706054688 252.666992188 176.265625 191 179.095703125 151 c 0
 185.266601562 79.6669921875 216.185546875 44 271.852539062 44 c 128
 327.51953125 44 373.387695312 78.6669921875 409.458007812 148 c 0
 430.244140625 189.333007812 449.776367188 253 468.056640625 339 c 128
 486.336914062 425 492.8984375 485.666992188 487.7421875 521 c 0
EndSplineSet
Substitution2: "'zero' Slashed Zero lookup 14 subtable" zero.slash
Substitution2: "'pnum' Proportional Numbers lookup 6 subtable" zero.prop
Substitution2: "'onum' Oldstyle Figures lookup 4 subtable" zero.oldstyle
AlternateSubs2: "'aalt' Access All Alternates lookup 1 subtable" zero.oldstyle zero.prop zero.slash
EndChar

StartChar: one
Encoding: 49 49 18
Width: 531
GlyphClass: 2
Flags: HMW
LayerCount: 2
Fore
SplineSet
98 0 m 1
 111.390625 63 l 1
 242.390625 63 l 1
 350.794921875 573 l 1
 312.486328125 559 265.189453125 551.333007812 208.90625 550 c 1
 222.084960938 612 l 1
 315.459960938 615.333007812 387.13671875 637.333007812 437.11328125 678 c 1
 462.11328125 678 l 1
 331.390625 63 l 1
 462.390625 63 l 1
 449 0 l 1
 98 0 l 1
EndSplineSet
Substitution2: "'pnum' Proportional Numbers lookup 6 subtable" one.prop
Substitution2: "'onum' Oldstyle Figures lookup 4 subtable" one.oldstyle
AlternateSubs2: "'aalt' Access All Alternates lookup 1 subtable" one.oldstyle one.prop
EndChar

StartChar: two
Encoding: 50 50 19
Width: 531
GlyphClass: 2
Flags: HMW
LayerCount: 2
Fore
SplineSet
484.4140625 463 m 128
 502.302734375 547.161132812 450.0234375 610 364.659179688 610 c 128
 320.659179688 610 284.591796875 594 256.45703125 562 c 0
 233.59765625 536 210.469726562 499.333007812 187.075195312 452 c 1
 152.829101562 512 l 1
 209.018554688 622.666992188 289.780273438 678 395.11328125 678 c 0
 523.073242188 678 602.384765625 589.887695312 575.201171875 462 c 0
 564.71484375 412.666992188 537.291992188 368.333007812 492.930664062 329 c 0
 479.047851562 317 458.504882812 300.333007812 431.303710938 279 c 1
 321.723632812 201 l 2
 306.000976562 190.25 169.4921875 85.501953125 153.729492188 74 c 1
 261.729492188 74 l 2
 268.356445312 74 292.321289062 75 298.94140625 75 c 2
 492.94140625 75 l 1
 477 0 l 1
 53 0 l 1
 67.2412109375 67 l 1
 224.598632812 191 l 1
 320.477539062 261 l 1
 376.254882812 307 l 2
 388.522460938 317.666992188 403.568359375 332 421.39453125 350 c 0
 454.622070312 384 475.627929688 421.666992188 484.4140625 463 c 128
EndSplineSet
Substitution2: "'pnum' Proportional Numbers lookup 6 subtable" two.prop
Substitution2: "'onum' Oldstyle Figures lookup 4 subtable" two.oldstyle
AlternateSubs2: "'aalt' Access All Alternates lookup 1 subtable" two.oldstyle two.prop
EndChar

StartChar: three
Encoding: 51 51 20
Width: 531
GlyphClass: 2
Flags: HMW
LayerCount: 2
Fore
SplineSet
420.245117188 354 m 1
 486.346679688 331.557617188 542.37890625 269.946289062 523.47265625 181 c 0
 511.002929688 122.333007812 478.360351562 73.8330078125 425.545898438 35.5 c 128
 372.73046875 -2.8330078125 316.657226562 -22 257.32421875 -22 c 0
 169.991210938 -22 104.763671875 13 61.642578125 83 c 1
 88.8837890625 150 l 1
 117.584960938 90.888671875 179.2421875 44 270.352539062 44 c 256
 308.352539062 44 341.651367188 57.1669921875 370.248046875 83.5 c 128
 398.845703125 109.833007812 416.829101562 140.333007812 424.197265625 175 c 256
 431.56640625 209.666992188 429.963867188 241.333007812 419.390625 270 c 0
 406.758789062 304.666992188 374.110351562 322 321.443359375 322 c 2
 244.443359375 322 l 1
 258.259765625 387 l 1
 312.442382812 391 341.272460938 393.333007812 344.747070312 394 c 0
 402.923828125 406.088867188 463.383789062 458.15625 477.166992188 523 c 256
 490.112304688 583.904296875 451.948242188 615 390.72265625 615 c 256
 314.0234375 615 246.616210938 566.1328125 207.766601562 507 c 1
 179.306640625 566 l 1
 241.844726562 640.666992188 317.780273438 678 407.11328125 678 c 0
 456.446289062 678 498.172851562 664.166992188 532.291992188 636.5 c 256
 566.411132812 608.833007812 578.51171875 571.666992188 568.591796875 525 c 0
 552.721679688 450.333007812 503.272460938 393.333007812 420.245117188 354 c 1
EndSplineSet
Substitution2: "'pnum' Proportional Numbers lookup 6 subtable" three.prop
Substitution2: "'onum' Oldstyle Figures lookup 4 subtable" three.oldstyle
AlternateSubs2: "'aalt' Access All Alternates lookup 1 subtable" three.oldstyle three.prop
EndChar

StartChar: four
Encoding: 52 52 21
Width: 531
GlyphClass: 2
Flags: HMW
LayerCount: 2
Fore
SplineSet
432.134765625 170 m 1
 396 0 l 1
 308 0 l 1
 344.134765625 170 l 1
 66.134765625 170 l 1
 79.525390625 233 l 1
 436.4375 656 l 1
 535.4375 656 l 1
 445.951171875 235 l 1
 549.951171875 235 l 1
 536.134765625 170 l 1
 432.134765625 170 l 1
438.1328125 584 m 1
 407.946289062 526.666992188 318.21875 410.333007812 168.951171875 235 c 1
 363.951171875 235 l 1
 438.1328125 584 l 1
EndSplineSet
Substitution2: "'pnum' Proportional Numbers lookup 6 subtable" four.prop
Substitution2: "'onum' Oldstyle Figures lookup 4 subtable" four.oldstyle
AlternateSubs2: "'aalt' Access All Alternates lookup 1 subtable" four.oldstyle four.prop
EndChar

StartChar: five
Encoding: 53 53 22
Width: 531
GlyphClass: 2
Flags: HMW
LayerCount: 2
Fore
SplineSet
107.333007812 138 m 1
 125.526367188 86.8388671875 176.12109375 44 251.352539062 44 c 0
 343.8359375 44 401.38671875 114.728515625 422.380859375 213.5 c 256
 429.961914062 249.166992188 429.728515625 281 421.6796875 309 c 0
 411.33203125 345 387.825195312 363 351.158203125 363 c 0
 296.491210938 363 252.298828125 337 218.579101562 285 c 1
 144.579101562 285 l 1
 223.4375 656 l 1
 580.4375 656 l 1
 565.983398438 588 l 1
 289.983398438 588 l 1
 248.109375 391 l 1
 285.494140625 416.333007812 324.853515625 429 366.186523438 429 c 0
 424.853515625 429 468.202148438 406.333007812 496.233398438 361 c 256
 524.263671875 315.666992188 531.725585938 262.166992188 518.6171875 200.5 c 256
 505.509765625 138.833007812 471.517578125 86.3330078125 416.639648438 43 c 128
 361.762695312 -0.3330078125 302.32421875 -22 238.32421875 -22 c 0
 153.657226562 -22 93.076171875 11.3330078125 56.5791015625 78 c 1
 107.333007812 138 l 1
EndSplineSet
Substitution2: "'pnum' Proportional Numbers lookup 6 subtable" five.prop
Substitution2: "'onum' Oldstyle Figures lookup 4 subtable" five.oldstyle
AlternateSubs2: "'aalt' Access All Alternates lookup 1 subtable" five.oldstyle five.prop
EndChar

StartChar: six
Encoding: 54 54 23
Width: 531
GlyphClass: 2
Flags: HMW
LayerCount: 2
Fore
SplineSet
532.400390625 223 m 0
 513.87890625 135.864257812 484.213867188 95.5322265625 427.77734375 46 c 0
 375.474609375 0.6669921875 320.32421875 -22 262.32421875 -22 c 0
 218.32421875 -22 181.825195312 -8.6669921875 152.826171875 18 c 0
 95.2802734375 71.6220703125 83.86328125 187.54296875 112.443359375 322 c 0
 131.998046875 414 172.669921875 494 234.45703125 562 c 0
 304.89453125 639.333007812 383.780273438 678 471.11328125 678 c 0
 510.446289062 678 546.958007812 671 580.649414062 657 c 1
 567.045898438 593 l 1
 531.497070312 607.666992188 495.389648438 615 458.72265625 615 c 0
 341.065429688 615 257.279296875 503.1328125 221.046875 386 c 1
 278.766601562 438 342.29296875 464 411.625976562 464 c 0
 466.958984375 464 504.745117188 436.333007812 524.984375 381 c 0
 542.397460938 334.333007812 544.870117188 281.666992188 532.400390625 223 c 0
441.84375 338 m 0
 427.013671875 378 399.09765625 398 358.09765625 398 c 256
 317.09765625 398 281.611328125 383.166992188 251.638671875 353.5 c 128
 221.666015625 323.833007812 202.025390625 288.666992188 192.713867188 248 c 2
 185.762695312 220 l 1
 181.7109375 194.666992188 182.696289062 161.666992188 188.719726562 121 c 0
 196.475585938 69.6669921875 225.685546875 44 276.352539062 44 c 0
 319.01953125 44 357.270507812 64 391.10546875 104 c 0
 413.299804688 130 429.8515625 168.666992188 440.762695312 220 c 256
 451.673828125 271.333007812 452.034179688 310.666992188 441.84375 338 c 0
EndSplineSet
Substitution2: "'pnum' Proportional Numbers lookup 6 subtable" six.prop
Substitution2: "'onum' Oldstyle Figures lookup 4 subtable" six.oldstyle
AlternateSubs2: "'aalt' Access All Alternates lookup 1 subtable" six.oldstyle six.prop
EndChar

StartChar: seven
Encoding: 55 55 24
Width: 531
GlyphClass: 2
Flags: HMW
LayerCount: 2
Fore
SplineSet
407.708007812 582 m 2
 401.081054688 582 377.115234375 581 370.495117188 581 c 2
 167.495117188 581 l 1
 183.4375 656 l 1
 624.4375 656 l 1
 609.983398438 588 l 1
 548.788085938 535.333007812 484.67578125 462.666992188 417.645507812 370 c 0
 336.506835938 258 280.844726562 131 250.662109375 -11 c 1
 157.662109375 -11 l 1
 204.991210938 211.666992188 329.006835938 409.333007812 529.708007812 582 c 1
 407.708007812 582 l 2
EndSplineSet
Substitution2: "'pnum' Proportional Numbers lookup 6 subtable" seven.prop
Substitution2: "'onum' Oldstyle Figures lookup 4 subtable" seven.oldstyle
AlternateSubs2: "'aalt' Access All Alternates lookup 1 subtable" seven.oldstyle seven.prop
EndChar

StartChar: eight
Encoding: 56 56 25
Width: 531
GlyphClass: 2
Flags: HMW
LayerCount: 2
Fore
SplineSet
422.458007812 355 m 1
 486.825195312 329.403320312 542.610351562 271.033203125 523.47265625 181 c 0
 511.14453125 123 478.87109375 74.6669921875 426.65234375 36 c 128
 374.43359375 -2.6669921875 318.991210938 -22 260.32421875 -22 c 128
 201.657226562 -22 154.266601562 -2.6669921875 118.15234375 36 c 128
 82.0380859375 74.6669921875 70.14453125 123 82.47265625 181 c 0
 101.393554688 270.014648438 183.884765625 329.633789062 258.458007812 355 c 1
 200.21484375 375.048828125 149.680664062 426.62109375 165.703125 502 c 0
 176.755859375 554 206.754882812 596.333007812 255.698242188 629 c 128
 304.641601562 661.666992188 355.780273438 678 409.11328125 678 c 256
 462.446289062 678 505.712890625 662 538.91015625 630 c 0
 575.68359375 596 588.614257812 553.333007812 577.703125 502 c 0
 561.689453125 426.658203125 489.149414062 375.026367188 422.458007812 355 c 1
498.596679688 501.5 m 128
 513.827148438 573.15234375 466.844726562 615 395.22265625 615 c 128
 323.2890625 615 259.814453125 573.08984375 244.491210938 501 c 128
 229.116210938 428.666015625 274.928710938 387 347.259765625 387 c 256
 419.319335938 387 483.318359375 429.62109375 498.596679688 501.5 c 128
433.685546875 182 m 256
 450.7578125 262.318359375 413.685546875 322 333.443359375 322 c 128
 253.204101562 322 190.538085938 261.286132812 173.47265625 181 c 128
 156.267578125 100.057617188 193.228515625 44 274.352539062 44 c 256
 355.477539062 44 416.486328125 101.084960938 433.685546875 182 c 256
EndSplineSet
Substitution2: "'pnum' Proportional Numbers lookup 6 subtable" eight.prop
Substitution2: "'onum' Oldstyle Figures lookup 4 subtable" eight.oldstyle
AlternateSubs2: "'aalt' Access All Alternates lookup 1 subtable" eight.oldstyle eight.prop
EndChar

StartChar: nine
Encoding: 57 57 26
Width: 531
GlyphClass: 2
Flags: HMW
LayerCount: 2
Fore
SplineSet
213.32421875 -22 m 0
 163.991210938 -22 119.654296875 -6.3330078125 80.3134765625 25 c 1
 127.642578125 83 l 1
 155.44921875 57 189.01953125 44 228.352539062 44 c 0
 337.188476562 44 415.818359375 158.4921875 448.390625 270 c 1
 390.669921875 218 327.143554688 192 257.810546875 192 c 0
 202.477539062 192 164.69140625 219.666992188 144.453125 275 c 0
 126.372070312 321.666992188 123.95703125 376.166992188 137.206054688 438.5 c 128
 150.455078125 500.833007812 183.418945312 556.333007812 236.096679688 605 c 128
 288.774414062 653.666992188 347.780273438 678 413.11328125 678 c 0
 465.11328125 678 507.4375 656 540.084960938 612 c 0
 578.889648438 559.333007812 584.263671875 467 556.206054688 335 c 0
 537.217773438 245.666992188 499.092773438 166.666992188 441.830078125 98 c 0
 374.159179688 18 297.991210938 -22 213.32421875 -22 c 0
399.72265625 615 m 256
 306.377929688 615 249.262695312 532.861328125 228.037109375 433 c 0
 203.23828125 316.333007812 231.506835938 258 312.83984375 258 c 0
 393.590820312 258 460.204101562 330.28515625 477.403320312 411.200195312 c 128
 486.217773438 452.666992188 487.307617188 497 480.672851562 544.200195312 c 128
 474.0390625 591.400390625 447.055664062 615 399.72265625 615 c 256
EndSplineSet
Substitution2: "'pnum' Proportional Numbers lookup 6 subtable" nine.prop
Substitution2: "'onum' Oldstyle Figures lookup 4 subtable" nine.oldstyle
AlternateSubs2: "'aalt' Access All Alternates lookup 1 subtable" nine.oldstyle nine.prop
EndChar

StartChar: colon
Encoding: 58 58 27
Width: 295
GlyphClass: 2
Flags: HMW
LayerCount: 2
Fore
SplineSet
177.8828125 357 m 1
 196.375 444 l 1
 289.375 444 l 1
 270.8828125 357 l 1
 177.8828125 357 l 1
102 0 m 1
 120.4921875 87 l 1
 213.4921875 87 l 1
 195 0 l 1
 102 0 l 1
EndSplineSet
EndChar

StartChar: semicolon
Encoding: 59 59 28
Width: 295
GlyphClass: 2
Flags: HMW
LayerCount: 2
Fore
SplineSet
176.8828125 357 m 1
 195.375 444 l 1
 288.375 444 l 1
 269.8828125 357 l 1
 176.8828125 357 l 1
122.430664062 -125 m 1
 74.4306640625 -125 l 1
 126.787109375 -1 l 1
 100.787109375 -1 l 1
 119.280273438 86 l 1
 212.280273438 86 l 1
 194.424804688 2 l 1
 122.430664062 -125 l 1
EndSplineSet
EndChar

StartChar: less
Encoding: 60 60 29
Width: 826
GlyphClass: 2
Flags: HMW
LayerCount: 2
Fore
SplineSet
702.498046875 -40 m 0
 699.831054688 -40 693.66015625 -37.6669921875 683.985351562 -33 c 2
 157.038085938 226 l 2
 144.313476562 232 139.013671875 240 141.138671875 250 c 256
 143.264648438 260 151.96484375 268 167.240234375 274 c 2
 804.29296875 533 l 2
 815.951171875 537.666992188 823.11328125 540 825.780273438 540 c 0
 841.11328125 540 847.221679688 532.666992188 844.104492188 518 c 0
 841.978515625 508 833.278320312 500 818.002929688 494 c 2
 220.138671875 250 l 1
 714.275390625 6 l 2
 727 0 732.299804688 -8 730.173828125 -18 c 0
 727.056640625 -32.6669921875 717.831054688 -40 702.498046875 -40 c 0
EndSplineSet
EndChar

StartChar: equal
Encoding: 61 61 30
Width: 826
GlyphClass: 2
Flags: HMW
LayerCount: 2
Fore
SplineSet
793.29296875 326 m 2
 166.29296875 326 l 2
 140.959960938 326 129.852539062 333.333007812 132.969726562 348 c 256
 136.086914062 362.666992188 149.978515625 370 174.645507812 370 c 2
 803.645507812 370 l 2
 828.978515625 370 840.086914062 362.666992188 836.969726562 348 c 256
 833.852539062 333.333007812 819.29296875 326 793.29296875 326 c 2
752.6328125 130 m 2
 123.6328125 130 l 2
 98.9658203125 130 88.19140625 137.333007812 91.30859375 152 c 256
 94.42578125 166.666992188 108.651367188 174 133.984375 174 c 2
 760.984375 174 l 2
 786.984375 174 798.42578125 166.666992188 795.30859375 152 c 256
 792.19140625 137.333007812 777.965820312 130 752.6328125 130 c 2
EndSplineSet
EndChar

StartChar: greater
Encoding: 62 62 31
Width: 826
GlyphClass: 2
Flags: HMW
LayerCount: 2
Fore
SplineSet
761.038085938 226 m 2
 123.985351562 -33 l 2
 112.326171875 -37.6669921875 105.165039062 -40 102.498046875 -40 c 0
 87.1650390625 -40 81.056640625 -32.6669921875 84.173828125 -18 c 0
 86.2998046875 -8 95 0 110.275390625 6 c 2
 708.138671875 250 l 1
 214.002929688 494 l 2
 201.278320312 500 195.978515625 508 198.104492188 518 c 0
 201.221679688 532.666992188 210.447265625 540 225.780273438 540 c 0
 228.447265625 540 234.6171875 537.666992188 244.29296875 533 c 2
 771.240234375 274 l 2
 783.96484375 268 789.264648438 260 787.138671875 250 c 256
 785.013671875 240 776.313476562 232 761.038085938 226 c 2
EndSplineSet
EndChar

StartChar: question
Encoding: 63 63 32
Width: 502
GlyphClass: 2
Flags: HMW
LayerCount: 2
Fore
SplineSet
383.352539062 705 m 256
 497.883789062 705 580.694335938 657.208007812 558.4375 552.5 c 256
 547.596679688 501.5 518.776367188 460 471.974609375 428 c 0
 387.788085938 370.666992188 337.758789062 304.666992188 321.887695312 230 c 2
 309.984375 174 l 1
 234.984375 174 l 1
 242.211914062 208 l 2
 266.16015625 320.666992188 325.1484375 410 419.176757812 476 c 0
 447.286132812 495.333007812 464.529296875 520 470.90625 550 c 0
 483.517578125 609.333007812 451.15625 639 373.823242188 639 c 0
 315.15625 639 260.188476562 620.333007812 208.920898438 583 c 1
 197.374023438 651 l 1
 261.026367188 687 323.01953125 705 383.352539062 705 c 256
189 0 m 1
 207.4921875 87 l 1
 300.4921875 87 l 1
 282 0 l 1
 189 0 l 1
EndSplineSet
EndChar

StartChar: at
Encoding: 64 64 33
Width: 708
GlyphClass: 2
Flags: HMW
LayerCount: 2
Fore
SplineSet
667.91796875 89 m 1
 605.15234375 35.0673828125 513.065429688 -11 407.662109375 -11 c 0
 309.662109375 -11 234.1015625 24 180.98046875 94 c 128
 127.859375 164 111.75 248.166992188 132.650390625 346.5 c 256
 153.551757812 444.833007812 205.477539062 529.166992188 288.427734375 599.5 c 128
 371.376953125 669.833007812 461.51953125 705 558.852539062 705 c 0
 716.852539062 705 771.549804688 590.666992188 722.9453125 362 c 0
 704.240234375 274 666.63671875 210 610.134765625 170 c 0
 562.240234375 136 516.9609375 119 474.293945312 119 c 0
 416.293945312 119 373.885742188 142.166992188 347.067382812 188.5 c 256
 320.248046875 234.833007812 313.145507812 287.666992188 325.756835938 347 c 256
 338.369140625 406.333007812 367.931640625 459.166992188 414.447265625 505.5 c 256
 460.962890625 551.833007812 513.219726562 575 571.219726562 575 c 0
 600.552734375 575 626.661132812 567.666992188 649.543945312 553 c 1
 638.397460938 610.333007812 603.15625 639 543.823242188 639 c 0
 467.823242188 639 398.421875 609.666992188 335.619140625 551 c 256
 272.815429688 492.333007812 233.088867188 423.833007812 216.438476562 345.5 c 256
 199.788085938 267.166992188 210.833984375 199.166992188 249.577148438 141.5 c 256
 288.319335938 83.8330078125 347.0234375 55 425.690429688 55 c 0
 477.690429688 55 530.483398438 65 584.067382812 85 c 0
 591.30078125 87.6669921875 600.584960938 89 611.91796875 89 c 2
 667.91796875 89 l 1
409.756835938 347 m 256
 394.009765625 272.916015625 417.504882812 185 484.323242188 185 c 256
 517.65625 185 548.58203125 200.333007812 577.100585938 231 c 0
 618.600585938 275.15625 622.452148438 284.405273438 637.669921875 356 c 256
 644.61328125 388.666992188 642.416015625 420.666992188 631.075195312 452 c 0
 617.819335938 490 593.19140625 509 557.19140625 509 c 256
 521.19140625 509 488.485351562 490 459.075195312 452 c 0
 434.416015625 420.666992188 417.975585938 385.666992188 409.756835938 347 c 256
EndSplineSet
EndChar

StartChar: A
Encoding: 65 65 34
Width: 708
GlyphClass: 2
Flags: HMW
LayerCount: 2
Fore
SplineSet
575 0 m 1
 539.149414062 203 l 1
 237.149414062 203 l 1
 113 0 l 1
 30 0 l 1
 453.514648438 694 l 1
 549.514648438 694 l 1
 678 0 l 1
 575 0 l 1
474.659179688 610 m 1
 462.749023438 585.333007812 430.633789062 528.333007812 378.3125 439 c 2
 273.90234375 263 l 1
 526.90234375 263 l 1
 485.466796875 515 l 2
 478.293945312 559.666992188 474.69140625 591.333007812 474.659179688 610 c 1
EndSplineSet
Position2: "'cpsp' Capital Spacing lookup 0 subtable" dx=7 dy=1 dh=14 dv=3
EndChar

StartChar: B
Encoding: 66 66 35
Width: 708
GlyphClass: 2
Flags: HMW
LayerCount: 2
Fore
SplineSet
528.158203125 363 m 1
 614.30859375 347.278320312 704.212890625 283.28125 684.172851562 189 c 0
 671.561523438 129.666992188 631.096679688 82 562.77734375 46 c 0
 504.258789062 15.3330078125 443.333007812 0 380 0 c 2
 100 0 l 1
 247.514648438 694 l 1
 499.514648438 694 l 2
 560.181640625 694 613.609375 680.333007812 659.799804688 653 c 0
 716.046875 619.666992188 738.219726562 575 726.31640625 519 c 0
 708.509765625 435.225585938 608.600585938 384.038085938 528.158203125 363 c 1
456.547851562 633 m 2
 327.547851562 633 l 1
 276.53515625 393 l 1
 395.53515625 393 l 2
 462.868164062 393 518.560546875 405.666992188 562.612304688 431 c 0
 593.104492188 449 612.44921875 463.166992188 620.645507812 473.5 c 256
 628.841796875 483.833007812 634.995117188 498.666992188 639.104492188 518 c 0
 647.323242188 556.666992188 627.4375 587 579.447265625 609 c 0
 542.84765625 625 501.880859375 633 456.547851562 633 c 2
411.71875 328 m 2
 262.71875 328 l 1
 205.965820312 61 l 1
 363.965820312 61 l 2
 410.6328125 61 455.6875 70.6669921875 499.129882812 90 c 0
 553.706054688 114.666992188 585.564453125 148.5 594.704101562 191.5 c 256
 603.844726562 234.5 585.510742188 269 539.704101562 295 c 0
 502.380859375 317 459.71875 328 411.71875 328 c 2
EndSplineSet
Position2: "'cpsp' Capital Spacing lookup 0 subtable" dx=7 dy=1 dh=14 dv=3
EndChar

StartChar: C
Encoding: 67 67 36
Width: 679
GlyphClass: 2
Flags: HMW
LayerCount: 2
Fore
SplineSet
404.662109375 -11 m 0
 307.995117188 -11 234.671875 24.3330078125 184.693359375 95 c 128
 134.713867188 165.666992188 120.103515625 249.833007812 140.86328125 347.5 c 256
 161.623046875 445.166992188 212.013671875 529.333007812 292.034179688 600 c 256
 372.0546875 670.666992188 460.3984375 706 557.064453125 706 c 0
 626.3984375 706 690.776367188 693.666992188 750.200195312 669 c 1
 715.708007812 582 l 1
 667.501953125 618.666992188 608.3984375 637 538.3984375 637 c 256
 468.3984375 637 403.809570312 606 344.630859375 544 c 0
 290.060546875 488 254.8046875 422.5 238.86328125 347.5 c 256
 222.921875 272.5 231.013671875 205.5 263.139648438 146.5 c 256
 295.265625 87.5 347.328125 58 419.328125 58 c 0
 463.995117188 58 500.344726562 62 528.37890625 70 c 128
 556.413085938 78 592.7890625 94.6669921875 637.506835938 120 c 1
 628.77734375 46 l 1
 583.151367188 22.6669921875 545.725585938 7.3330078125 516.5 0 c 128
 487.274414062 -7.3330078125 449.995117188 -11 404.662109375 -11 c 0
EndSplineSet
Position2: "'cpsp' Capital Spacing lookup 0 subtable" dx=7 dy=1 dh=14 dv=3
EndChar

StartChar: D
Encoding: 68 68 37
Width: 767
GlyphClass: 2
Flags: HMW
LayerCount: 2
Fore
SplineSet
377 0 m 2
 98 0 l 1
 245.514648438 694 l 1
 523.514648438 694 l 2
 616.84765625 694 686.873046875 658.833007812 733.58984375 588.5 c 256
 780.306640625 518.166992188 793.674804688 436 773.694335938 342 c 256
 753.713867188 248 705.603515625 167.5 629.362304688 100.5 c 256
 553.12109375 33.5 469 0 377 0 c 2
486.547851562 633 m 2
 328.547851562 633 l 1
 206.965820312 61 l 1
 364.965820312 61 l 2
 442.298828125 61 509.538085938 88 566.682617188 142 c 256
 623.828125 196 660.8671875 262.833007812 677.80078125 342.5 c 256
 694.734375 422.166992188 686.758789062 490.5 653.875 547.5 c 256
 620.990234375 604.5 565.21484375 633 486.547851562 633 c 2
EndSplineSet
Position2: "'cpsp' Capital Spacing lookup 0 subtable" dx=7 dy=1 dh=14 dv=3
EndChar

StartChar: E
Encoding: 69 69 38
Width: 637
GlyphClass: 2
Flags: HMW
LayerCount: 2
Fore
SplineSet
428.729492188 74 m 2
 435.356445312 74 459.321289062 75 465.94140625 75 c 2
 600.94140625 75 l 1
 585 0 l 1
 97 0 l 1
 243.876953125 691 l 1
 717.876953125 691 l 1
 703.209960938 622 l 1
 515.709960938 622 515.709960938 622 328.209960938 622 c 1
 279.322265625 392 l 1
 625.322265625 392 l 1
 611.505859375 327 l 1
 265.505859375 327 l 1
 211.729492188 74 l 1
 428.729492188 74 l 2
EndSplineSet
Position2: "'cpsp' Capital Spacing lookup 0 subtable" dx=7 dy=1 dh=14 dv=3
EndChar

StartChar: F
Encoding: 70 70 39
Width: 608
GlyphClass: 2
Flags: HMW
LayerCount: 2
Fore
SplineSet
688.209960938 622 m 1
 508.209960938 622 508.209960938 622 328.209960938 622 c 1
 276.346679688 378 l 1
 593.346679688 378 l 1
 579.530273438 313 l 1
 262.530273438 313 l 1
 196 0 l 1
 97 0 l 1
 243.876953125 691 l 1
 702.876953125 691 l 1
 688.209960938 622 l 1
EndSplineSet
Position2: "'cpsp' Capital Spacing lookup 0 subtable" dx=7 dy=1 dh=14 dv=3
EndChar

StartChar: G
Encoding: 71 71 40
Width: 708
GlyphClass: 2
Flags: HMW
LayerCount: 2
Fore
SplineSet
404.662109375 -11 m 0
 307.995117188 -11 234.671875 24.3330078125 184.693359375 95 c 128
 134.713867188 165.666992188 120.103515625 249.833007812 140.86328125 347.5 c 256
 161.623046875 445.166992188 212.013671875 529.333007812 292.034179688 600 c 256
 372.0546875 670.666992188 460.3984375 706 557.064453125 706 c 0
 635.064453125 706 703.118164062 689 761.224609375 655 c 1
 726.732421875 568 l 1
 677.842773438 614 616.731445312 637 543.3984375 637 c 256
 470.065429688 637 403.809570312 606 344.630859375 544 c 0
 290.060546875 488 254.8046875 422.5 238.86328125 347.5 c 256
 222.921875 272.5 231.013671875 205.5 263.139648438 146.5 c 256
 295.265625 87.5 347.328125 58 419.328125 58 c 0
 466.661132812 58 513.412109375 64.6669921875 559.579101562 78 c 1
 593.375976562 237 l 1
 455.375976562 237 l 1
 469.404296875 303 l 1
 695.404296875 303 l 1
 639.290039062 39 l 1
 560.87109375 5.6669921875 482.662109375 -11 404.662109375 -11 c 0
EndSplineSet
Position2: "'cpsp' Capital Spacing lookup 0 subtable" dx=7 dy=1 dh=14 dv=3
EndChar

StartChar: H
Encoding: 72 72 41
Width: 750
GlyphClass: 2
Flags: HMW
LayerCount: 2
Fore
SplineSet
549 0 m 1
 618.71875 328 l 1
 265.71875 328 l 1
 196 0 l 1
 97 0 l 1
 244.514648438 694 l 1
 343.514648438 694 l 1
 279.53515625 393 l 1
 632.53515625 393 l 1
 696.514648438 694 l 1
 794.514648438 694 l 1
 647 0 l 1
 549 0 l 1
EndSplineSet
Position2: "'cpsp' Capital Spacing lookup 0 subtable" dx=7 dy=1 dh=14 dv=3
EndChar

StartChar: I
Encoding: 73 73 42
Width: 295
GlyphClass: 2
Flags: HMW
LayerCount: 2
Fore
SplineSet
97 0 m 1
 244.514648438 694 l 1
 343.514648438 694 l 1
 196 0 l 1
 97 0 l 1
EndSplineSet
Position2: "'cpsp' Capital Spacing lookup 0 subtable" dx=7 dy=1 dh=14 dv=3
EndChar

StartChar: J
Encoding: 74 74 43
Width: 502
GlyphClass: 2
Flags: HMW
LayerCount: 2
Fore
SplineSet
444.883789062 150 m 2
 420.630859375 35.8994140625 334.041992188 -22 218.82421875 -22 c 128
 159.82421875 -22 103.037109375 -7.6669921875 48.4638671875 21 c 1
 81.6806640625 102 l 1
 110.12890625 63.3330078125 151.352539062 44 205.352539062 44 c 0
 282.291992188 44 333.640625 78.287109375 349.521484375 153 c 2
 464.514648438 694 l 1
 560.514648438 694 l 1
 444.883789062 150 l 2
EndSplineSet
Position2: "'cpsp' Capital Spacing lookup 0 subtable" dx=7 dy=1 dh=14 dv=3
EndChar

StartChar: K
Encoding: 75 75 44
Width: 738
GlyphClass: 2
Flags: HMW
LayerCount: 2
Fore
SplineSet
588 0 m 1
 407.520507812 360 l 1
 243.25 227 l 1
 195 0 l 1
 100 0 l 1
 247.514648438 694 l 1
 342.514648438 694 l 1
 264.930664062 329 l 1
 719.514648438 694 l 1
 824.514648438 694 l 1
 482.061523438 419 l 1
 690 0 l 1
 588 0 l 1
EndSplineSet
Position2: "'cpsp' Capital Spacing lookup 0 subtable" dx=7 dy=1 dh=14 dv=3
EndChar

StartChar: L
Encoding: 76 76 45
Width: 578
GlyphClass: 2
Flags: HMW
LayerCount: 2
Fore
SplineSet
97 0 m 1
 244.514648438 694 l 1
 343.514648438 694 l 1
 210.666015625 69 l 1
 259.666015625 69 l 1
 543.091796875 71 l 1
 528 0 l 1
 97 0 l 1
EndSplineSet
Position2: "'cpsp' Capital Spacing lookup 0 subtable" dx=7 dy=1 dh=14 dv=3
EndChar

StartChar: M
Encoding: 77 77 46
Width: 927
GlyphClass: 2
Flags: HMW
LayerCount: 2
Fore
SplineSet
482.893554688 103 m 1
 501.354492188 139.666992188 551.279296875 224 632.669921875 356 c 2
 841.514648438 694 l 1
 965.514648438 694 l 1
 818 0 l 1
 731 0 l 1
 859.383789062 604 l 1
 843.958007812 575.333007812 822.901367188 539 796.215820312 495 c 2
 504.67578125 22 l 1
 424.67578125 22 l 1
 351.1484375 410 l 2
 333.12890625 504 322.994140625 567.666992188 320.74609375 601 c 1
 193 0 l 1
 105 0 l 1
 252.514648438 694 l 1
 375.514648438 694 l 1
 409.953125 529.696289062 439.287109375 361.181640625 471.448242188 195 c 0
 477.796875 159 481.611328125 128.333007812 482.893554688 103 c 1
EndSplineSet
Position2: "'cpsp' Capital Spacing lookup 0 subtable" dx=7 dy=1 dh=14 dv=3
EndChar

StartChar: N
Encoding: 78 78 47
Width: 750
GlyphClass: 2
Flags: HMW
LayerCount: 2
Fore
SplineSet
576.4296875 82 m 1
 706.514648438 694 l 1
 793.514648438 694 l 1
 646 0 l 1
 512 0 l 1
 317.084960938 612 l 1
 187 0 l 1
 100 0 l 1
 247.514648438 694 l 1
 382.514648438 694 l 1
 576.4296875 82 l 1
EndSplineSet
Position2: "'cpsp' Capital Spacing lookup 0 subtable" dx=7 dy=1 dh=14 dv=3
EndChar

StartChar: O
Encoding: 79 79 48
Width: 785
GlyphClass: 2
Flags: HMW
LayerCount: 2
Fore
SplineSet
792.33203125 345 m 0
 771.643554688 247.666992188 722.302734375 162.166992188 644.311523438 88.5 c 128
 566.3203125 14.8330078125 479.491210938 -22 383.82421875 -22 c 128
 288.157226562 -22 216.734375 16 169.555664062 92 c 0
 124.05078125 163.333007812 111.678710938 247.833007812 132.438476562 345.5 c 128
 153.198242188 443.166992188 202.513671875 529.333007812 280.383789062 604 c 128
 358.254882812 678.666992188 443.5234375 716 536.190429688 716 c 128
 628.857421875 716 700.205078125 680 750.234375 608 c 0
 784.415039062 558.666992188 803.325195312 514.333007812 806.96484375 475 c 0
 809.962890625 448.333007812 805.084960938 405 792.33203125 345 c 0
679.96875 555 m 0
 649.005859375 616.333007812 597.69140625 647 526.024414062 647 c 128
 454.357421875 647 390.267578125 616 333.755859375 554 c 0
 283.328125 498.666992188 250.001953125 432.833007812 233.776367188 356.5 c 128
 217.551757812 280.166992188 221.465820312 212.333007812 245.521484375 153 c 0
 273.975585938 83 325.203125 48 399.203125 48 c 256
 473.203125 48 539.309570312 83 597.521484375 153 c 0
 646.94140625 213 679.763671875 281.166992188 695.989257812 357.5 c 128
 712.213867188 433.833007812 706.874023438 499.666992188 679.96875 555 c 0
EndSplineSet
Position2: "'cpsp' Capital Spacing lookup 0 subtable" dx=7 dy=1 dh=14 dv=3
EndChar

StartChar: P
Encoding: 80 80 49
Width: 679
GlyphClass: 2
Flags: HMW
LayerCount: 2
Fore
SplineSet
431.00390625 287 m 2
 258.00390625 287 l 1
 197 0 l 1
 98 0 l 1
 245.514648438 694 l 1
 509.514648438 694 l 2
 574.180664062 694 627.092773438 676.333007812 668.249023438 641 c 0
 714.696289062 602.333007812 731.4375 552.5 718.471679688 491.5 c 256
 705.505859375 430.5 669.852539062 381.166992188 611.512695312 343.5 c 256
 553.173828125 305.833007812 493.00390625 287 431.00390625 287 c 2
627.471679688 491.5 m 256
 647.252929688 584.563476562 572.41015625 633 473.547851562 633 c 2
 328.547851562 633 l 1
 268.182617188 349 l 1
 413.182617188 349 l 2
 462.515625 349 508.06640625 361 549.833984375 385 c 256
 591.602539062 409 617.481445312 444.5 627.471679688 491.5 c 256
EndSplineSet
Position2: "'cpsp' Capital Spacing lookup 0 subtable" dx=7 dy=1 dh=14 dv=3
EndChar

StartChar: Q
Encoding: 81 81 50
Width: 785
GlyphClass: 2
Flags: HMW
LayerCount: 2
Fore
SplineSet
573.2265625 34 m 1
 666.430664062 -125 l 1
 551.430664062 -125 l 1
 486.9375 -5 l 1
 452.38671875 -17 417.778320312 -23 383.111328125 -23 c 0
 287.778320312 -23 216.975585938 14 170.705078125 88 c 128
 124.434570312 162 111.678710938 247.833007812 132.438476562 345.5 c 128
 153.198242188 443.166992188 202.513671875 529.333007812 280.383789062 604 c 128
 358.254882812 678.666992188 445.190429688 716 541.190429688 716 c 256
 637.190429688 716 708.638671875 677.333007812 755.534179688 600 c 0
 800.754882812 527.333007812 813.020507812 442.333007812 792.33203125 345 c 0
 764.557617188 214.333007812 691.5234375 110.666992188 573.2265625 34 c 1
681.481445312 548 m 0
 651.509765625 614 599.857421875 647 526.524414062 647 c 128
 453.19140625 647 387.438476562 613.666992188 329.268554688 547 c 0
 278.131835938 488.333007812 244.416015625 420.666992188 228.119140625 344 c 128
 211.823242188 267.333007812 216.986328125 200.666992188 243.608398438 144 c 0
 273.720703125 78.6669921875 325.444335938 46 398.77734375 46 c 0
 421.444335938 46 440.344726562 48.6669921875 455.478515625 54 c 1
 378.874023438 197 l 1
 478.874023438 197 l 1
 538.98046875 94 l 1
 621.208007812 154.666992188 673.659179688 238.333007812 696.33203125 345 c 0
 712.76953125 422.333007812 707.819335938 490 681.481445312 548 c 0
EndSplineSet
Position2: "'cpsp' Capital Spacing lookup 0 subtable" dx=7 dy=1 dh=14 dv=3
EndChar

StartChar: R
Encoding: 82 82 51
Width: 688
GlyphClass: 2
Flags: HMW
LayerCount: 2
Fore
SplineSet
728.766601562 507 m 0
 708.162109375 410.065429688 603.541992188 349.844726562 513.081054688 325 c 1
 653 0 l 1
 553 0 l 1
 422.955078125 315 l 1
 260.955078125 315 l 1
 194 0 l 1
 98 0 l 1
 245.514648438 694 l 1
 501.514648438 694 l 2
 564.84765625 694 619.326171875 679 664.94921875 649 c 0
 719.963867188 613 741.236328125 565.666992188 728.766601562 507 c 0
422.771484375 380 m 2
 517.735351562 380 620.249023438 419.881835938 638.66015625 506.5 c 256
 647.94140625 550.166992188 632.991210938 583.333007812 593.809570312 606 c 0
 562.96875 624 523.881835938 633 476.547851562 633 c 2
 328.547851562 633 l 1
 274.771484375 380 l 1
 422.771484375 380 l 2
EndSplineSet
Position2: "'cpsp' Capital Spacing lookup 0 subtable" dx=7 dy=1 dh=14 dv=3
EndChar

StartChar: S
Encoding: 83 83 52
Width: 590
GlyphClass: 2
Flags: HMW
LayerCount: 2
Fore
SplineSet
288.32421875 -22 m 0
 202.991210938 -22 125.950195312 1.3330078125 57.203125 48 c 1
 92.482421875 134 l 1
 150.1953125 79.3330078125 220.385742188 52 303.052734375 52 c 0
 342.385742188 52 379.700195312 63.6669921875 414.9921875 87 c 256
 450.28515625 110.333007812 471.970703125 141 480.047851562 179 c 256
 488.125 217 480.310546875 247.666992188 456.602539062 271 c 0
 438.8125 287.666992188 405.692382812 302 357.243164062 314 c 256
 308.79296875 326 274.525390625 336.5 254.438476562 345.5 c 256
 234.3515625 354.5 216.50390625 369.333007812 200.897460938 390 c 0
 170.44921875 428.666992188 160.184570312 471.333007812 170.104492188 518 c 0
 182.857421875 578 217.560546875 626 274.212890625 662 c 256
 330.864257812 698 392.357421875 716 458.690429688 716 c 256
 525.0234375 716 584.244140625 699 636.350585938 665 c 1
 601.283203125 580 l 1
 555.826171875 623.333007812 500.765625 645 436.098632812 645 c 0
 398.098632812 645 361.270507812 634.833007812 325.616210938 614.5 c 256
 289.9609375 594.166992188 268.51953125 567 261.29296875 533 c 256
 254.065429688 499 259.872070312 473 278.712890625 455 c 256
 297.5546875 437 330.436523438 422.333007812 377.360351562 411 c 256
 424.28515625 399.666992188 455.634765625 390.333007812 471.409179688 383 c 0
 543.111328125 352.700195312 591.001953125 282.287109375 570.00390625 183.5 c 256
 557.747070312 125.833007812 523.40234375 77.1669921875 466.970703125 37.5 c 256
 410.5390625 -2.1669921875 350.991210938 -22 288.32421875 -22 c 0
EndSplineSet
Position2: "'cpsp' Capital Spacing lookup 0 subtable" dx=7 dy=1 dh=14 dv=3
EndChar

StartChar: T
Encoding: 84 84 53
Width: 726
GlyphClass: 2
Flags: HMW
LayerCount: 2
Fore
SplineSet
813.572265625 619 m 1
 677.572265625 619 677.572265625 619 541.572265625 619 c 1
 410 0 l 1
 311 0 l 1
 442.572265625 619 l 1
 306.072265625 619 306.072265625 619 169.572265625 619 c 1
 184.239257812 688 l 1
 828.239257812 688 l 1
 813.572265625 619 l 1
EndSplineSet
Position2: "'cpsp' Capital Spacing lookup 0 subtable" dx=7 dy=1 dh=14 dv=3
EndChar

StartChar: U
Encoding: 85 85 54
Width: 729
GlyphClass: 2
Flags: HMW
LayerCount: 2
Fore
SplineSet
560.446289062 51.5 m 128
 499.03125 2.5 431.82421875 -22 358.82421875 -22 c 128
 285.82421875 -22 228.364257812 2.5 186.446289062 51.5 c 128
 144.529296875 100.5 131.291992188 161.333007812 146.73828125 234 c 2
 244.514648438 694 l 1
 343.514648438 694 l 1
 245.525390625 233 l 2
 233.90625 178.333007812 238.9609375 132.333007812 260.693359375 95 c 128
 282.424804688 57.6669921875 320.123046875 39 373.790039062 39 c 128
 427.45703125 39 473.7578125 57.6669921875 512.693359375 95 c 128
 551.627929688 132.333007812 576.90625 178.333007812 588.525390625 233 c 2
 686.514648438 694 l 1
 773.514648438 694 l 1
 675.73828125 234 l 2
 660.291992188 161.333007812 621.862304688 100.5 560.446289062 51.5 c 128
EndSplineSet
Position2: "'cpsp' Capital Spacing lookup 0 subtable" dx=7 dy=1 dh=14 dv=3
EndChar

StartChar: V
Encoding: 86 86 55
Width: 708
GlyphClass: 2
Flags: HMW
LayerCount: 2
Fore
SplineSet
378.642578125 83 m 1
 395.485351562 118.333007812 449.282226562 208.333007812 540.032226562 353 c 2
 752.514648438 694 l 1
 839.514648438 694 l 1
 404 0 l 1
 304 0 l 1
 162.514648438 694 l 1
 265.514648438 694 l 1
 352.713867188 248 l 2
 368.66015625 169.333007812 377.301757812 114.333007812 378.642578125 83 c 1
EndSplineSet
Position2: "'cpsp' Capital Spacing lookup 0 subtable" dx=7 dy=1 dh=14 dv=3
EndChar

StartChar: W
Encoding: 87 87 56
Width: 1004
GlyphClass: 2
Flags: HMW
LayerCount: 2
Fore
SplineSet
742.280273438 86 m 1
 759.6328125 130 807.795898438 228 886.771484375 380 c 2
 1049.51464844 694 l 1
 1130.51464844 694 l 1
 768 0 l 1
 673 0 l 1
 637.022460938 400 l 2
 628.237304688 496.666992188 624.165039062 565.333007812 624.809570312 606 c 1
 607.881835938 564 565.459960938 477.333007812 497.544921875 346 c 2
 319 0 l 1
 230 0 l 1
 162.514648438 694 l 1
 258.514648438 694 l 1
 298.2890625 246 l 2
 303.918945312 184.666992188 305.866210938 132.666992188 304.129882812 90 c 1
 322.474609375 138.666992188 369.49609375 236 445.196289062 382 c 2
 606.514648438 694 l 1
 695.514648438 694 l 1
 726.245117188 354 l 2
 737.9296875 220.376953125 743.274414062 131.043945312 742.280273438 86 c 1
EndSplineSet
Position2: "'cpsp' Capital Spacing lookup 0 subtable" dx=7 dy=1 dh=14 dv=3
EndChar

StartChar: X
Encoding: 88 88 57
Width: 708
GlyphClass: 2
Flags: HMW
LayerCount: 2
Fore
SplineSet
579 0 m 1
 411.192382812 302 l 1
 122 0 l 1
 15 0 l 1
 376.795898438 366 l 1
 176.514648438 694 l 1
 292.514648438 694 l 1
 439.887695312 437 l 1
 690.514648438 694 l 1
 798.514648438 694 l 1
 473.795898438 366 l 1
 695 0 l 1
 579 0 l 1
EndSplineSet
Position2: "'cpsp' Capital Spacing lookup 0 subtable" dx=7 dy=1 dh=14 dv=3
EndChar

StartChar: Y
Encoding: 89 89 58
Width: 708
GlyphClass: 2
Flags: HMW
LayerCount: 2
Fore
SplineSet
460.877929688 277 m 1
 402 0 l 1
 307 0 l 1
 366.090820312 278 l 1
 150.514648438 694 l 1
 267.514648438 694 l 1
 414.084960938 405 l 2
 419.676757812 393.666992188 427.920898438 376 438.8203125 352 c 1
 520.162109375 443 l 2
 531.522460938 455.666992188 609.638671875 539.333007812 754.514648438 694 c 1
 853.514648438 694 l 1
 460.877929688 277 l 1
EndSplineSet
Position2: "'cpsp' Capital Spacing lookup 0 subtable" dx=7 dy=1 dh=14 dv=3
EndChar

StartChar: Z
Encoding: 90 90 59
Width: 649
GlyphClass: 2
Flags: HMW
LayerCount: 2
Fore
SplineSet
594.485351562 628 m 1
 523.016601562 628 469.212890625 627 418.2734375 627 c 2
 206.2734375 627 l 1
 220.514648438 694 l 1
 734.514648438 694 l 1
 725.162109375 650 l 1
 199.666015625 69 l 1
 228.666015625 69 l 1
 608.87890625 70 l 1
 594 0 l 1
 59 0 l 1
 68.77734375 46 l 1
 594.485351562 628 l 1
EndSplineSet
Position2: "'cpsp' Capital Spacing lookup 0 subtable" dx=7 dy=1 dh=14 dv=3
EndChar

StartChar: bracketleft
Encoding: 91 91 60
Width: 309
GlyphClass: 2
Flags: HMW
LayerCount: 2
Fore
SplineSet
53.861328125 -250 m 1
 266.416992188 750 l 1
 444.416992188 750 l 1
 430.388671875 684 l 1
 333.388671875 684 l 1
 148.889648438 -184 l 1
 245.889648438 -184 l 1
 231.861328125 -250 l 1
 53.861328125 -250 l 1
EndSplineSet
EndChar

StartChar: backslash
Encoding: 92 92 61
Width: 531
GlyphClass: 2
Flags: HMW
LayerCount: 2
Fore
SplineSet
393.861328125 -250 m 0
 383.194335938 -250 376.561523438 -242 373.961914062 -226 c 2
 213.528320312 727 l 1
 216.788085938 742.333007812 226.416992188 750 242.416992188 750 c 0
 253.083984375 750 259.716796875 742 262.31640625 726 c 2
 422.75 -227 l 1
 419.490234375 -242.333007812 409.861328125 -250 393.861328125 -250 c 0
EndSplineSet
EndChar

StartChar: bracketright
Encoding: 93 93 62
Width: 309
GlyphClass: 2
Flags: HMW
LayerCount: 2
Fore
SplineSet
-30.138671875 -250 m 1
 -16.1103515625 -184 l 1
 80.8896484375 -184 l 1
 265.388671875 684 l 1
 168.388671875 684 l 1
 182.416992188 750 l 1
 360.416992188 750 l 1
 147.861328125 -250 l 1
 -30.138671875 -250 l 1
EndSplineSet
EndChar

StartChar: asciicircum
Encoding: 94 94 63
Width: 556
GlyphClass: 2
Flags: HMW
LayerCount: 2
Fore
SplineSet
701.244140625 561 m 1
 439.750976562 681 l 1
 128.244140625 561 l 1
 119.770507812 587 l 1
 454.141601562 744 l 1
 721.770507812 587 l 1
 701.244140625 561 l 1
EndSplineSet
EndChar

StartChar: underscore
Encoding: 95 95 64
Width: 708
GlyphClass: 2
Flags: HMW
LayerCount: 2
Fore
SplineSet
-34.859375 -164 m 1
 -18.2802734375 -86 l 1
 687.719726562 -86 l 1
 671.140625 -164 l 1
 -34.859375 -164 l 1
EndSplineSet
EndChar

StartChar: grave
Encoding: 96 96 65
Width: 531
GlyphClass: 2
Flags: HMW
LayerCount: 2
Fore
SplineSet
390.017578125 527 m 1
 263.514648438 694 l 1
 352.514648438 694 l 1
 460.017578125 527 l 1
 390.017578125 527 l 1
EndSplineSet
EndChar

StartChar: a
Encoding: 97 97 66
Width: 510
GlyphClass: 2
Flags: HMW
LayerCount: 2
Fore
SplineSet
349.48828125 461 m 128
 454.731445312 461 516.2421875 391.622070312 494.215820312 288 c 2
 433 0 l 1
 349 0 l 1
 356.014648438 33 l 1
 307.112304688 3.6669921875 246.662109375 -11 174.662109375 -11 c 0
 103.891601562 -11 64.1357421875 42.98046875 79.2314453125 114 c 0
 89.859375 164 136.249023438 200.333007812 218.400390625 223 c 0
 270.850585938 237.666992188 330.884765625 245.666992188 398.501953125 247 c 1
 407.00390625 287 l 2
 419.389648438 345.26953125 399.774414062 398 341.59765625 398 c 0
 285.59765625 398 228.24609375 380.666992188 169.544921875 346 c 1
 178.635742188 417 l 1
 238.204101562 446.333007812 295.155273438 461 349.48828125 461 c 128
160.65625 116 m 0
 151.526367188 73.0458984375 199.099609375 54 242.478515625 54 c 0
 319.145507812 54 363.075195312 80.3330078125 374.270507812 133 c 2
 386.810546875 192 l 1
 245.393554688 185.333007812 170.008789062 160 160.65625 116 c 0
EndSplineSet
Substitution2: "'smcp' Lowercase to Small Capitals lookup 16 subtable" A.sc
EndChar

StartChar: b
Encoding: 98 98 67
Width: 549
GlyphClass: 2
Flags: HMW
LayerCount: 2
Fore
SplineSet
308.662109375 -11 m 0
 259.329101562 -11 217.155273438 7 182.139648438 43 c 1
 173 0 l 1
 85 0 l 1
 232.514648438 694 l 1
 316.514648438 694 l 1
 254.235351562 401 l 1
 312.170898438 438.333007812 369.971679688 457 427.638671875 457 c 128
 485.305664062 457 524.874023438 430.666992188 546.346679688 378 c 0
 565.377929688 332.666992188 568.622070312 280.5 556.081054688 221.5 c 128
 543.540039062 162.5 513.8359375 109 466.965820312 61 c 128
 420.096679688 13 367.329101562 -11 308.662109375 -11 c 0
287.190429688 55 m 128
 377.712890625 55 448.966796875 131.575195312 468.400390625 223 c 128
 478.4609375 270.333007812 475.094726562 310.166992188 458.30078125 342.5 c 128
 441.505859375 374.833007812 410.276367188 391 364.609375 391 c 128
 318.942382812 391 278.73828125 372 243.994140625 334 c 1
 197.65625 116 l 1
 213.012695312 75.3330078125 242.857421875 55 287.190429688 55 c 128
EndSplineSet
Substitution2: "'smcp' Lowercase to Small Capitals lookup 16 subtable" B.sc
EndChar

StartChar: c
Encoding: 99 99 68
Width: 472
GlyphClass: 2
Flags: HMW
LayerCount: 2
Fore
SplineSet
170.400390625 223 m 0
 150.9765625 131.6171875 190.219726562 57 279.116210938 57 c 0
 339.116210938 57 398.416992188 75.6669921875 457.018554688 113 c 1
 447.71484375 41 l 1
 387.678710938 6.3330078125 325.829101562 -11 262.162109375 -11 c 128
 198.495117188 -11 149.3125 11.6669921875 114.616210938 57 c 128
 79.9189453125 102.333007812 69.583984375 158 83.6123046875 224 c 128
 97.6416015625 290 131.711914062 346 185.822265625 392 c 128
 239.932617188 438 300.655273438 461 367.98828125 461 c 0
 423.321289062 461 474.87109375 446.333007812 522.635742188 417 c 1
 494.969726562 348 l 1
 452.013671875 378 405.202148438 393 354.53515625 393 c 0
 323.868164062 393 294.631835938 384.833007812 266.827148438 368.5 c 0
 216.9296875 339.189453125 184.788085938 290.689453125 170.400390625 223 c 0
EndSplineSet
Substitution2: "'smcp' Lowercase to Small Capitals lookup 16 subtable" C.sc
EndChar

StartChar: d
Encoding: 100 100 69
Width: 549
GlyphClass: 2
Flags: HMW
LayerCount: 2
Fore
SplineSet
372 0 m 1
 382.203125 48 l 1
 329.174804688 8.6669921875 274.329101562 -11 217.662109375 -11 c 256
 160.995117188 -11 121.298828125 13.1669921875 98.572265625 61.5 c 256
 75.845703125 109.833007812 70.7880859375 163.666992188 83.400390625 223 c 256
 96.01171875 282.333007812 123.46875 334.666992188 165.771484375 380 c 0
 212.682617188 431.333007812 264.138671875 457 320.138671875 457 c 256
 376.138671875 457 423.12109375 439.666992188 461.084960938 405 c 1
 522.514648438 694 l 1
 606.514648438 694 l 1
 459 0 l 1
 372 0 l 1
273.690429688 55 m 0
 321.62109375 55 391.624023438 92.3251953125 401.7578125 140 c 2
 443.84375 338 l 1
 425.354492188 373.333007812 394.276367188 391 350.609375 391 c 256
 260.727539062 391 189.6875 313.739257812 170.293945312 222.5 c 256
 150.717773438 130.400390625 182.372070312 55 273.690429688 55 c 0
EndSplineSet
Substitution2: "'smcp' Lowercase to Small Capitals lookup 16 subtable" D.sc
EndChar

StartChar: e
Encoding: 101 101 70
Width: 472
GlyphClass: 2
Flags: HMW
LayerCount: 2
Fore
SplineSet
160.125 217 m 1
 145.637695312 130.654296875 187.935546875 54 277.478515625 54 c 0
 335.478515625 54 393.254882812 73.3330078125 450.806640625 112 c 1
 442.927734375 42 l 1
 384.083984375 6.6669921875 322.995117188 -11 259.662109375 -11 c 128
 196.329101562 -11 147.5859375 12.1669921875 113.434570312 58.5 c 128
 79.283203125 104.833007812 69.0087890625 160 82.6123046875 224 c 128
 96.2158203125 288 128.345703125 343.5 179.002929688 390.5 c 128
 229.66015625 437.5 286.98828125 461 350.98828125 461 c 128
 479.426757812 461 513.517578125 355.28125 484.125 217 c 1
 160.125 217 l 1
431.666015625 276 m 1
 434.403320312 340.05859375 407 396 335.172851562 396 c 128
 264.072265625 396 205.694335938 335.084960938 178.666015625 276 c 1
 431.666015625 276 l 1
EndSplineSet
Substitution2: "'smcp' Lowercase to Small Capitals lookup 16 subtable" E.sc
EndChar

StartChar: f
Encoding: 102 102 71
Width: 325
GlyphClass: 2
Flags: HMW
LayerCount: 2
Fore
SplineSet
219.29296875 533 m 2
 240.426757812 632.426757812 333.55859375 705 432.852539062 705 c 0
 458.185546875 705 486.40625 701.333007812 517.514648438 694 c 1
 501.998046875 621 l 1
 475.21484375 633 449.65625 639 425.323242188 639 c 128
 400.990234375 639 378.640625 635 358.2734375 627 c 0
 330.672851562 616.333007812 313.400390625 594.666992188 306.45703125 562 c 2
 281.799804688 446 l 1
 400.799804688 446 l 1
 387.409179688 383 l 1
 271.409179688 383 l 1
 190 0 l 1
 106 0 l 1
 187.409179688 383 l 1
 110.409179688 383 l 1
 123.799804688 446 l 1
 200.799804688 446 l 1
 219.29296875 533 l 2
EndSplineSet
Substitution2: "'smcp' Lowercase to Small Capitals lookup 16 subtable" F.sc
EndChar

StartChar: g
Encoding: 103 103 72
Width: 531
GlyphClass: 2
Flags: HMW
LayerCount: 2
Fore
SplineSet
128.235351562 297.5 m 128
 145.936523438 380.774414062 242.146484375 455 325.712890625 455 c 128
 368.379882812 455 401.516601562 444.666992188 425.124023438 424 c 1
 481.516601562 444.666992188 539.712890625 455 599.712890625 455 c 1
 597.259765625 387 l 1
 567.017578125 389 546.564453125 390 535.897460938 390 c 128
 519.204101562 390 472.131835938 387 456.259765625 387 c 1
 471.357421875 357.666992188 475.22265625 325.666992188 467.853515625 291 c 0
 448.154296875 198.318359375 354.3046875 126 261.782226562 126 c 0
 227.115234375 126 197.432617188 135.333007812 172.733398438 154 c 1
 165.033203125 146 159.765625 135.333007812 156.931640625 122 c 0
 149.846679688 88.6669921875 165.63671875 72 204.303710938 72 c 2
 296.303710938 72 l 2
 312.970703125 72 336.6171875 70.3330078125 367.241210938 67 c 128
 397.866210938 63.6669921875 427.684570312 51.8330078125 456.6953125 31.5 c 128
 485.70703125 11.1669921875 495.288085938 -22.1669921875 485.439453125 -68.5 c 128
 475.591796875 -114.833007812 438.641601562 -150.666992188 374.58984375 -176 c 0
 325.005859375 -196 273.879882812 -206 221.212890625 -206 c 128
 168.545898438 -206 121.671875 -196 80.58984375 -176 c 0
 27.3076171875 -150.666992188 5.37890625 -115.833007812 14.8017578125 -71.5 c 128
 24.2255859375 -27.1669921875 53.6298828125 7.6669921875 103.014648438 33 c 1
 90.2158203125 54.3330078125 86.8984375 79.5 93.0625 108.5 c 128
 99.2265625 137.5 115.142578125 165.333007812 140.810546875 192 c 1
 123.571289062 220.666992188 119.37890625 255.833007812 128.235351562 297.5 c 128
390.341796875 298 m 128
 401.76171875 351.725585938 375.022460938 393 319.03515625 393 c 128
 259.5234375 393 218.481445312 350.408203125 205.853515625 291 c 256
 193.654296875 233.603515625 215.525390625 188 271.9609375 188 c 128
 299.293945312 188 322.115234375 195 340.424804688 209 c 128
 376.850585938 236.852539062 378.630859375 242.90625 390.341796875 298 c 128
234.391601562 -144 m 256
 296.948242188 -144 395.051757812 -122.079101562 405.908203125 -71 c 0
 415.260742188 -27 373.604492188 -5 280.9375 -5 c 2
 186.9375 -5 l 2
 138.78125 -5 102.8359375 -28.9990234375 94.12109375 -70 c 0
 83.0537109375 -122.06640625 171.171875 -144 234.391601562 -144 c 256
EndSplineSet
Substitution2: "'smcp' Lowercase to Small Capitals lookup 16 subtable" G.sc
EndChar

StartChar: h
Encoding: 104 104 73
Width: 549
GlyphClass: 2
Flags: HMW
LayerCount: 2
Fore
SplineSet
357.109375 391 m 0
 285.874023438 391 239.625976562 322.859375 223.2890625 246 c 2
 171 0 l 1
 83 0 l 1
 230.514648438 694 l 1
 314.514648438 694 l 1
 249.897460938 390 l 1
 298.724609375 434.666992188 352.471679688 457 411.138671875 457 c 0
 508.471679688 457 545.873046875 404 523.341796875 298 c 2
 460 0 l 1
 373 0 l 1
 434.853515625 291 l 2
 449.614257812 360.443359375 427.46484375 391 357.109375 391 c 0
EndSplineSet
Substitution2: "'smcp' Lowercase to Small Capitals lookup 16 subtable" H.sc
EndChar

StartChar: i
Encoding: 105 105 74
Width: 253
GlyphClass: 2
Flags: HMW
LayerCount: 2
Fore
SplineSet
195.45703125 562 m 1
 215.224609375 655 l 1
 314.224609375 655 l 1
 294.45703125 562 l 1
 195.45703125 562 l 1
82 0 m 1
 176.799804688 446 l 1
 260.799804688 446 l 1
 166 0 l 1
 82 0 l 1
EndSplineSet
Substitution2: "'smcp' Lowercase to Small Capitals lookup 16 subtable" I.sc
EndChar

StartChar: j
Encoding: 106 106 75
Width: 283
GlyphClass: 2
Flags: HMW
LayerCount: 2
Fore
SplineSet
218.45703125 562 m 1
 238.224609375 655 l 1
 337.224609375 655 l 1
 317.45703125 562 l 1
 218.45703125 562 l 1
185.883789062 -57 m 2
 168.504882812 -138.76171875 100.133789062 -205 17.42578125 -205 c 128
 -24.57421875 -205 -64.09375 -193.333007812 -101.134765625 -170 c 1
 -63.10546875 -104 l 1
 -43.640625 -125.333007812 -19.57421875 -136 9.0927734375 -136 c 0
 23.759765625 -136 39.4677734375 -132.666992188 56.2177734375 -126 c 0
 78.7275390625 -117.333007812 93.240234375 -97.6669921875 99.7587890625 -67 c 2
 208.587890625 445 l 1
 292.587890625 445 l 1
 185.883789062 -57 l 2
EndSplineSet
Substitution2: "'smcp' Lowercase to Small Capitals lookup 16 subtable" J.sc
EndChar

StartChar: k
Encoding: 107 107 76
Width: 519
GlyphClass: 2
Flags: HMW
LayerCount: 2
Fore
SplineSet
409 0 m 1
 292.974609375 221 l 1
 194.970703125 141 l 1
 165 0 l 1
 88 0 l 1
 235.514648438 694 l 1
 315.514648438 694 l 1
 219.651367188 243 l 1
 472.799804688 446 l 1
 574.799804688 446 l 1
 357.815429688 272 l 1
 502 0 l 1
 409 0 l 1
EndSplineSet
Substitution2: "'smcp' Lowercase to Small Capitals lookup 16 subtable" K.sc
EndChar

StartChar: l
Encoding: 108 108 77
Width: 253
GlyphClass: 2
Flags: HMW
LayerCount: 2
Fore
SplineSet
84 0 m 1
 231.514648438 694 l 1
 315.514648438 694 l 1
 168 0 l 1
 84 0 l 1
EndSplineSet
Substitution2: "'smcp' Lowercase to Small Capitals lookup 16 subtable" L.sc
EndChar

StartChar: m
Encoding: 109 109 78
Width: 844
GlyphClass: 2
Flags: HMW
CounterMasks: 1 38
LayerCount: 2
Fore
SplineSet
435.641601562 290 m 2
 449.838867188 356.791992188 431.284179688 390 356.897460938 390 c 0
 321.564453125 390 292.446289062 375.333007812 269.544921875 346 c 256
 246.642578125 316.666992188 231.153320312 283 223.076171875 245 c 2
 171 0 l 1
 83 0 l 1
 178.650390625 450 l 1
 259.650390625 450 l 1
 245.622070312 384 l 1
 296.349609375 431.333007812 351.712890625 455 411.712890625 455 c 0
 481.045898438 455 520.51953125 429 530.133789062 377 c 1
 580.51953125 429 638.045898438 455 702.712890625 455 c 0
 800.045898438 455 837.518554688 402.333007812 815.12890625 297 c 2
 752 0 l 1
 665 0 l 1
 726.641601562 290 l 2
 740.838867188 356.791992188 722.284179688 390 647.897460938 390 c 0
 612.564453125 390 583.279296875 375.333007812 560.044921875 346 c 256
 536.809570312 316.666992188 521.153320312 283 513.076171875 245 c 2
 461 0 l 1
 374 0 l 1
 435.641601562 290 l 2
EndSplineSet
Substitution2: "'smcp' Lowercase to Small Capitals lookup 16 subtable" M.sc
EndChar

StartChar: n
Encoding: 110 110 79
Width: 549
GlyphClass: 2
Flags: HMW
LayerCount: 2
Fore
SplineSet
356.897460938 390 m 0
 285.662109375 390 239.413085938 321.859375 223.076171875 245 c 2
 171 0 l 1
 83 0 l 1
 178.650390625 450 l 1
 259.650390625 450 l 1
 245.833984375 385 l 1
 295.75390625 431.666992188 350.712890625 455 410.712890625 455 c 0
 508.045898438 455 545.518554688 402.333007812 523.12890625 297 c 2
 460 0 l 1
 373 0 l 1
 434.641601562 290 l 2
 449.318359375 359.05078125 426.700195312 390 356.897460938 390 c 0
EndSplineSet
Substitution2: "'smcp' Lowercase to Small Capitals lookup 16 subtable" N.sc
EndChar

StartChar: o
Encoding: 111 111 80
Width: 531
GlyphClass: 2
Flags: HMW
LayerCount: 2
Fore
SplineSet
439.903320312 56 m 128
 385.076171875 11.3330078125 325.329101562 -11 260.662109375 -11 c 128
 195.995117188 -11 145.7421875 11.3330078125 109.903320312 56 c 128
 74.064453125 100.666992188 63.087890625 155.666992188 76.974609375 221 c 128
 90.8623046875 286.333007812 125.3359375 342.666992188 180.397460938 390 c 128
 235.458007812 437.333007812 295.821289062 461 361.48828125 461 c 128
 427.155273438 461 477.291015625 437.333007812 511.897460938 390 c 128
 546.502929688 342.666992188 556.862304688 286.333007812 542.974609375 221 c 128
 529.087890625 155.666992188 494.73046875 100.666992188 439.903320312 56 c 128
347.172851562 396 m 128
 301.172851562 396 261.938476562 380 229.469726562 348 c 128
 197.000976562 316 175.771484375 276.5 165.78125 229.5 c 128
 155.791992188 182.5 159.849609375 142 177.956054688 108 c 128
 196.0625 74 228.283203125 57 274.616210938 57 c 128
 320.94921875 57 360.526367188 73.8330078125 393.349609375 107.5 c 128
 426.172851562 141.166992188 447.649414062 181.833007812 457.78125 229.5 c 128
 467.9140625 277.166992188 463.51171875 316.833007812 444.576171875 348.5 c 128
 425.639648438 380.166992188 393.172851562 396 347.172851562 396 c 128
EndSplineSet
Substitution2: "'smcp' Lowercase to Small Capitals lookup 16 subtable" O.sc
EndChar

StartChar: p
Encoding: 112 112 81
Width: 549
GlyphClass: 2
Flags: HMW
LayerCount: 2
Fore
SplineSet
547.920898438 376 m 0
 565.759765625 331.333007812 568.374023438 279.333007812 555.762695312 220 c 128
 543.150390625 160.666992188 513.612304688 107.166992188 467.147460938 59.5 c 128
 420.682617188 11.8330078125 370.116210938 -12 315.44921875 -12 c 128
 260.782226562 -12 216.204101562 5.6669921875 181.71484375 41 c 1
 131.763671875 -194 l 1
 43.763671875 -194 l 1
 179.375 444 l 1
 263.375 444 l 1
 253.59765625 398 l 1
 311.0078125 436 371.712890625 455 435.712890625 455 c 0
 489.712890625 455 527.116210938 428.666992188 547.920898438 376 c 0
288.765625 53 m 128
 370.408203125 53 450.248046875 137.602539062 467.869140625 220.5 c 128
 477.150390625 264.166992188 472.536132812 302.833007812 454.025390625 336.5 c 128
 435.514648438 370.166992188 404.592773438 387 361.259765625 387 c 128
 317.926757812 387 278.625 368.333007812 243.356445312 331 c 1
 201.057617188 132 l 2
 198.223632812 118.666992188 199.21875 107.666992188 204.04296875 99 c 0
 220.857421875 68.3330078125 249.098632812 53 288.765625 53 c 128
EndSplineSet
Substitution2: "'smcp' Lowercase to Small Capitals lookup 16 subtable" P.sc
EndChar

StartChar: q
Encoding: 113 113 82
Width: 549
GlyphClass: 2
Flags: HMW
LayerCount: 2
Fore
SplineSet
330.763671875 -194 m 1
 381.565429688 45 l 1
 327.48828125 7 272.116210938 -12 215.44921875 -12 c 256
 158.782226562 -12 119.418945312 12.1669921875 97.359375 60.5 c 256
 75.2998046875 108.833007812 70.611328125 162.833007812 83.2939453125 222.5 c 256
 95.9765625 282.166992188 125.55078125 335.833007812 172.015625 383.5 c 256
 218.48046875 431.166992188 271.379882812 455 330.712890625 455 c 0
 369.487304688 455 423.122070312 433.6796875 439.317382812 415.5 c 256
 447.9296875 405.833007812 454.264648438 398 458.322265625 392 c 1
 471.712890625 455 l 1
 555.712890625 455 l 1
 417.763671875 -194 l 1
 330.763671875 -194 l 1
434.303710938 279 m 2
 446.250976562 335.209960938 411.30859375 387 355.259765625 387 c 0
 311.926757812 387 272.549804688 370.333007812 237.131835938 337 c 256
 201.713867188 303.666992188 179.36328125 265.166992188 170.081054688 221.5 c 256
 160.799804688 177.833007812 165.509765625 138.833007812 184.211914062 104.5 c 256
 202.9140625 70.1669921875 233.098632812 53 274.765625 53 c 256
 316.432617188 53 354.233398438 71.6669921875 388.168945312 109 c 0
 396.819335938 118.333007812 402.348632812 128.666992188 404.7578125 140 c 2
 434.303710938 279 l 2
EndSplineSet
Substitution2: "'smcp' Lowercase to Small Capitals lookup 16 subtable" Q.sc
EndChar

StartChar: r
Encoding: 114 114 83
Width: 363
GlyphClass: 2
Flags: HMW
LayerCount: 2
Fore
SplineSet
429.622070312 384 m 1
 328.692382812 381.392578125 236.262695312 316.4453125 214.487304688 214 c 2
 169 0 l 1
 85 0 l 1
 180.650390625 450 l 1
 259.650390625 450 l 1
 241.583007812 365 l 1
 299.52734375 424.333007812 367.23828125 454.333007812 444.712890625 455 c 1
 429.622070312 384 l 1
EndSplineSet
Substitution2: "'smcp' Lowercase to Small Capitals lookup 16 subtable" R.sc
EndChar

StartChar: s
Encoding: 115 115 84
Width: 407
GlyphClass: 2
Flags: HMW
LayerCount: 2
Fore
SplineSet
412.419921875 129 m 0
 391.609375 31.095703125 307.84765625 -11 203.162109375 -11 c 128
 149.495117188 -11 94.18359375 4 37.2265625 34 c 1
 66.53125 106 l 1
 112.11328125 72.6669921875 165.236328125 56 225.903320312 56 c 128
 286.5703125 56 321.579101562 78 330.931640625 122 c 0
 332.916015625 131.333007812 331.708007812 141.333007812 327.30859375 152 c 0
 313.602539062 185.231445312 257.751953125 189.041992188 206.51171875 200 c 128
 137.557617188 214.745117188 91.9033203125 263.004882812 107.100585938 334.5 c 128
 126.293945312 424.799804688 215.77734375 461 312.55078125 461 c 128
 364.17578125 461 412.650390625 450 457.974609375 428 c 1
 429.307617188 359 l 1
 388.833984375 385 340.59765625 398 284.59765625 398 c 128
 228.59765625 398 196.416992188 378.333007812 188.056640625 339 c 0
 182.796875 314.256835938 193.446289062 296.922851562 220.00390625 287 c 1
 248.203125 281.666992188 289.602539062 271 344.202148438 255 c 0
 358.926757812 249 374.255859375 238 390.1875 222 c 1
 392.336914062 218 l 1
 413.09375 193.333007812 419.788085938 163.666992188 412.419921875 129 c 0
EndSplineSet
Substitution2: "'smcp' Lowercase to Small Capitals lookup 16 subtable" S.sc
EndChar

StartChar: t
Encoding: 116 116 85
Width: 384
GlyphClass: 2
Flags: HMW
LayerCount: 2
Fore
SplineSet
195.662109375 -11 m 0
 136.329101562 -11 115.943359375 32.6669921875 134.506835938 120 c 2
 190.409179688 383 l 1
 101.409179688 383 l 1
 114.587890625 445 l 1
 206.587890625 445 l 1
 233.370117188 571 l 1
 310.370117188 571 l 1
 283.587890625 445 l 1
 431.587890625 445 l 1
 418.409179688 383 l 1
 270.409179688 383 l 1
 218.120117188 137 l 2
 206.784179688 83.6669921875 218.116210938 57 252.116210938 57 c 256
 286.116210938 57 320.595703125 68.6669921875 355.555664062 92 c 1
 360.951171875 28 l 1
 302.7578125 2 247.662109375 -11 195.662109375 -11 c 0
EndSplineSet
Substitution2: "'smcp' Lowercase to Small Capitals lookup 16 subtable" T.sc
EndChar

StartChar: u
Encoding: 117 117 86
Width: 549
GlyphClass: 2
Flags: HMW
LayerCount: 2
Fore
SplineSet
264.703125 48 m 256
 330.935546875 48 391.966796875 89.23046875 405.946289062 155 c 2
 467.375 444 l 1
 554.375 444 l 1
 460 0 l 1
 376 0 l 1
 385.352539062 44 l 1
 330.891601562 7.3330078125 267.329101562 -11 194.662109375 -11 c 0
 118.662109375 -11 89.2353515625 29.3330078125 106.380859375 110 c 2
 177.375 444 l 1
 265.375 444 l 1
 195.231445312 114 l 2
 182.862304688 55.8095703125 203.706054688 48 264.703125 48 c 256
EndSplineSet
Substitution2: "'smcp' Lowercase to Small Capitals lookup 16 subtable" U.sc
EndChar

StartChar: v
Encoding: 118 118 87
Width: 490
GlyphClass: 2
Flags: HMW
LayerCount: 2
Fore
SplineSet
260.81640625 65 m 1
 274.951171875 97 307.471679688 154.333007812 358.375976562 237 c 2
 486.375 444 l 1
 570.375 444 l 1
 293 0 l 1
 197 0 l 1
 109.375 444 l 1
 196.375 444 l 1
 244.53515625 186 l 2
 254.390625 132 259.817382812 91.6669921875 260.81640625 65 c 1
EndSplineSet
Substitution2: "'smcp' Lowercase to Small Capitals lookup 16 subtable" V.sc
EndChar

StartChar: w
Encoding: 119 119 88
Width: 726
GlyphClass: 2
Flags: HMW
LayerCount: 2
Fore
SplineSet
527.666015625 69 m 1
 539.375976562 99 566.330078125 153.666992188 608.525390625 233 c 2
 721.375 444 l 1
 803.375 444 l 1
 563 0 l 1
 467 0 l 1
 442.501953125 247 l 2
 436.788085938 301.666992188 434.764648438 342.333007812 436.43359375 369 c 1
 424.157226562 336.333007812 397.537109375 281.666992188 356.57421875 205 c 2
 247 0 l 1
 161 0 l 1
 109.375 444 l 1
 194.375 444 l 1
 213.602539062 271 l 2
 223.139648438 181 227.040039062 114.666992188 225.303710938 72 c 1
 238.572265625 109.333007812 268.276367188 170.666992188 314.4140625 256 c 2
 414.375 444 l 1
 492.375 444 l 1
 515.313476562 232 l 2
 523.967773438 156.666992188 528.084960938 102.333007812 527.666015625 69 c 1
EndSplineSet
Substitution2: "'smcp' Lowercase to Small Capitals lookup 16 subtable" W.sc
EndChar

StartChar: x
Encoding: 120 120 89
Width: 490
GlyphClass: 2
Flags: HMW
LayerCount: 2
Fore
SplineSet
401 0 m 1
 283.110351562 184 l 1
 93 0 l 1
 0 0 l 1
 254.67578125 229 l 1
 101.375 444 l 1
 195.375 444 l 1
 303.94140625 282 l 1
 478.375 444 l 1
 571.375 444 l 1
 330.67578125 229 l 1
 495 0 l 1
 401 0 l 1
EndSplineSet
Substitution2: "'smcp' Lowercase to Small Capitals lookup 16 subtable" X.sc
EndChar

StartChar: y
Encoding: 121 121 90
Width: 490
GlyphClass: 2
Flags: HMW
LayerCount: 2
Fore
SplineSet
268.516601562 73 m 1
 289.611328125 128.333007812 362.231445312 252 486.375 444 c 1
 570.375 444 l 1
 226.870117188 -90 l 2
 189.844726562 -147.26953125 148.947265625 -205 84.42578125 -205 c 128
 56.42578125 -205 29.9931640625 -202.333007812 5.1259765625 -197 c 1
 13.2177734375 -126 l 1
 40.80859375 -137.333007812 67.9375 -143 94.6044921875 -143 c 0
 117.048828125 -143 140.016601562 -124.333007812 163.5078125 -87 c 2
 220.212890625 1 l 1
 109.375 444 l 1
 197.375 444 l 1
 245.172851562 262.15625 268.88671875 138.489257812 268.516601562 73 c 1
EndSplineSet
Substitution2: "'smcp' Lowercase to Small Capitals lookup 16 subtable" Y.sc
EndChar

StartChar: z
Encoding: 122 122 91
Width: 462
GlyphClass: 2
Flags: HMW
LayerCount: 2
Fore
SplineSet
246.81640625 65 m 2
 254.122070312 65 277.551757812 66 285.028320312 66 c 2
 442.028320312 66 l 1
 428 0 l 1
 30 0 l 1
 39.3525390625 44 l 1
 388.196289062 382 l 1
 312.196289062 382 l 2
 305.674804688 382 280.498046875 381 273.984375 381 c 2
 124.984375 381 l 1
 138.375 444 l 1
 520.375 444 l 1
 511.447265625 402 l 1
 162.81640625 65 l 1
 246.81640625 65 l 2
EndSplineSet
Substitution2: "'smcp' Lowercase to Small Capitals lookup 16 subtable" Z.sc
EndChar

StartChar: braceleft
Encoding: 123 123 92
Width: 531
GlyphClass: 2
Flags: HMW
LayerCount: 2
Fore
SplineSet
375.861328125 -250 m 0
 315.861328125 -250 269.553710938 -237.333007812 236.938476562 -212 c 0
 195.94140625 -179.654296875 192.5703125 -157.2734375 208.783203125 -81 c 2
 250.65625 116 l 2
 260.291992188 161.333007812 251.75 192.5 225.030273438 209.5 c 0
 195.166992188 228.5 166.020507812 238 137.588867188 238 c 0
 129.588867188 238 126.474609375 242.166992188 128.245117188 250.5 c 128
 130.016601562 258.833007812 136.569335938 263 147.90234375 263 c 0
 191.802734375 265.666992188 230.919921875 280.333007812 265.254882812 307 c 0
 283.0390625 321.666992188 296.240234375 343 304.858398438 371 c 1
 358.84765625 625 l 2
 367.633789062 666.333007812 399.505859375 698.666992188 454.465820312 722 c 0
 497.766601562 740.666992188 542.416992188 750 588.416992188 750 c 0
 604.416992188 750 611.567382812 746 609.8671875 738 c 128
 608.166015625 730 603.103515625 725 594.678710938 723 c 0
 552.111328125 720.333007812 517.723632812 710.666992188 491.514648438 694 c 128
 465.3046875 677.333007812 449.131835938 660.833007812 442.993164062 644.5 c 128
 436.854492188 628.166992188 429.604492188 600.333007812 421.244140625 561 c 2
 383.196289062 382 l 2
 369.451171875 317.333007812 320.765625 273.333007812 237.138671875 250 c 1
 299.5546875 230 330.994140625 196 331.458007812 148 c 0
 331.374023438 141.333007812 325.59375 111 314.116210938 57 c 2
 282.444335938 -92 l 2
 277.34375 -116 275.013671875 -131.666992188 275.455078125 -139 c 0
 277.119140625 -165.666992188 288.631835938 -186 309.98828125 -200 c 0
 334.397460938 -216 362.197265625 -224 393.387695312 -224 c 0
 401.387695312 -224 404.466796875 -228.333007812 402.624023438 -237 c 256
 400.782226562 -245.666992188 391.861328125 -250 375.861328125 -250 c 0
EndSplineSet
EndChar

StartChar: bar
Encoding: 124 124 93
Width: 295
GlyphClass: 2
Flags: HMW
LayerCount: 2
Fore
SplineSet
94.861328125 -250 m 256
 78.861328125 -250 73.3408203125 -238.333007812 78.30078125 -215 c 2
 275.977539062 715 l 2
 280.9375 738.333007812 291.416992188 750 307.416992188 750 c 256
 323.416992188 750 328.9375 738.333007812 323.977539062 715 c 2
 126.30078125 -215 l 2
 121.340820312 -238.333007812 110.861328125 -250 94.861328125 -250 c 256
EndSplineSet
EndChar

StartChar: braceright
Encoding: 125 125 94
Width: 531
GlyphClass: 2
Flags: HMW
LayerCount: 2
Fore
SplineSet
486.375976562 237 m 0
 442.475585938 234.333007812 403.358398438 219.666992188 369.0234375 193 c 0
 351.239257812 178.333007812 338.038085938 157 329.419921875 129 c 1
 275.430664062 -125 l 2
 266.64453125 -166.333007812 234.772460938 -198.666992188 179.8125 -222 c 0
 136.51171875 -240.666992188 91.861328125 -250 45.861328125 -250 c 0
 29.861328125 -250 22.7109375 -246 24.4111328125 -238 c 128
 26.1123046875 -230 31.1748046875 -225 39.599609375 -223 c 0
 82.1669921875 -220.333007812 114.60546875 -212 136.9140625 -198 c 0
 166.356445312 -178.666992188 184.313476562 -160.833007812 190.78515625 -144.5 c 128
 197.256835938 -128.166992188 204.673828125 -100.333007812 213.034179688 -61 c 2
 251.08203125 118 l 2
 264.827148438 182.666992188 313.512695312 226.666992188 397.138671875 250 c 1
 334.723632812 270 303.284179688 304 302.8203125 352 c 0
 302.904296875 358.666992188 308.684570312 389 320.162109375 443 c 2
 351.833007812 592 l 2
 356.934570312 616 359.264648438 631.666992188 358.823242188 639 c 0
 357.159179688 665.666992188 345.646484375 686 324.290039062 700 c 0
 299.880859375 716 272.081054688 724 240.890625 724 c 0
 232.890625 724 229.811523438 728.333007812 231.654296875 737 c 256
 233.49609375 745.666992188 242.416992188 750 258.416992188 750 c 0
 317.75 750 364.057617188 737.333007812 397.33984375 712 c 0
 438.491210938 681.038085938 441.408203125 655.865234375 425.495117188 581 c 2
 383.622070312 384 l 2
 373.986328125 338.666992188 382.528320312 307.5 409.248046875 290.5 c 0
 439.111328125 271.5 468.2578125 262 496.689453125 262 c 0
 504.689453125 262 507.803710938 257.833007812 506.033203125 249.5 c 128
 504.26171875 241.166992188 497.708984375 237 486.375976562 237 c 0
EndSplineSet
EndChar

StartChar: asciitilde
Encoding: 126 126 95
Width: 556
GlyphClass: 2
Flags: HMW
LayerCount: 2
Fore
SplineSet
583.864257812 244 m 1
 548.643554688 222.317382812 483.661132812 193 431.0234375 193 c 256
 404.356445312 193 371.932617188 204.333007812 333.75 227 c 256
 295.568359375 249.666992188 262.477539062 261 234.477539062 261 c 0
 187.810546875 261 129.255859375 238 58.810546875 192 c 1
 45.0615234375 212 l 1
 113.4140625 256 l 2
 166.641601562 290 216.254882812 307 262.254882812 307 c 0
 291.587890625 307 325.345703125 295.666992188 363.528320312 273 c 128
 401.709960938 250.333007812 434.467773438 239 461.80078125 239 c 0
 509.133789062 239 567.689453125 262 637.467773438 308 c 1
 651.215820312 288 l 1
 583.864257812 244 l 1
EndSplineSet
EndChar

StartChar: exclamdown
Encoding: 161 161 97
Width: 337
GlyphClass: 3
Flags: HMW
LayerCount: 2
Fore
SplineSet
210.786132812 413 m 1
 229.278320312 500 l 1
 322.278320312 500 l 1
 303.786132812 413 l 1
 210.786132812 413 l 1
81.763671875 -194 m 1
 201.29296875 326 l 1
 276.29296875 326 l 1
 266.728515625 281 l 1
 174.763671875 -194 l 1
 81.763671875 -194 l 1
EndSplineSet
Ligature2: "'dlig' Discretionary Ligatures lookup 13 subtable" exclam quoteleft
Ligature2: "'dlig' Discretionary Ligatures lookup 13 subtable" exclam grave
EndChar

StartChar: cent
Encoding: 162 162 98
Width: 472
GlyphClass: 2
Flags: HMW
LayerCount: 2
Fore
SplineSet
219.51171875 -7 m 1
 122.500976562 13.0029296875 58.4150390625 105.455078125 83.5068359375 223.5 c 256
 95.48046875 279.833007812 123.178710938 330.166992188 166.602539062 374.5 c 128
 210.025390625 418.833007812 260.538085938 446.333007812 318.138671875 457 c 1
 328.978515625 508 l 1
 400.978515625 508 l 1
 390.98828125 461 l 1
 435.23046875 459 479.18359375 444.666992188 522.848632812 418 c 1
 494.969726562 348 l 1
 456.637695312 374.666992188 417.159179688 389.666992188 376.53515625 393 c 1
 305.328125 58 l 1
 357.794921875 63.3330078125 408.358398438 81.6669921875 457.018554688 113 c 1
 447.501953125 40 l 1
 395.267578125 10.6669921875 343.057617188 -6 290.874023438 -10 c 1
 279.396484375 -64 l 1
 207.396484375 -64 l 1
 219.51171875 -7 l 1
302.833984375 385 m 1
 268.041992188 375 239.254882812 354.833007812 216.474609375 324.5 c 256
 193.694335938 294.166992188 178.40625 260.666992188 170.612304688 224 c 256
 154.131835938 146.465820312 178.758789062 84.0341796875 234.603515625 64 c 1
 302.833984375 385 l 1
EndSplineSet
Substitution2: "'onum' Oldstyle Figures lookup 4 subtable" cent.oldstyle
Substitution2: "'aalt' Access All Alternates lookup 0 subtable" cent.oldstyle
EndChar

StartChar: sterling
Encoding: 163 163 99
Width: 708
GlyphClass: 2
Flags: HMW
LayerCount: 2
Fore
SplineSet
499.252929688 60 m 128
 543.690429688 60 570.856445312 107.53125 580.30859375 152 c 1
 668.30859375 152 l 1
 658.389648438 105.333007812 636.245117188 64.6669921875 601.876953125 30 c 128
 567.5078125 -4.6669921875 527.657226562 -22 482.32421875 -22 c 0
 387.993164062 -22 308.97265625 23.736328125 212.11328125 17 c 128
 183.35546875 15 160.678710938 6.3330078125 144.086914062 -9 c 1
 87.3525390625 44 l 1
 204.930664062 150.309570312 263.657226562 239.975585938 263.530273438 313 c 1
 137.530273438 313 l 1
 151.984375 381 l 1
 254.984375 381 l 1
 246.461914062 435 l 1
 245.62109375 453 246.97265625 470.333007812 250.514648438 487 c 0
 260.29296875 533 284.624023438 575.333007812 323.509765625 614 c 0
 376.845703125 667.333007812 437.84765625 694 506.514648438 694 c 0
 622.208984375 694 693.169921875 602.990234375 668.514648438 487 c 1
 581.514648438 487 l 1
 596.8828125 559.30078125 557.744140625 612 484.084960938 612 c 128
 446.084960938 612 411.61328125 595.666992188 380.668945312 563 c 0
 358.376953125 539.666992188 344.25390625 514 338.302734375 486 c 0
 336.03515625 475.333007812 334.899414062 464.5 334.89453125 453.5 c 128
 334.889648438 442.5 338.918945312 418.333007812 346.984375 381 c 1
 506.984375 381 l 1
 492.530273438 313 l 1
 351.530273438 313 l 1
 350.595703125 302.333007812 348.99609375 291.666992188 346.728515625 281 c 0
 334.1171875 221.666992188 302.030273438 161.666992188 250.467773438 101 c 1
 290.326171875 100.333007812 336.338867188 93.3330078125 388.504882812 80 c 128
 440.670898438 66.6669921875 477.5859375 60 499.252929688 60 c 128
EndSplineSet
EndChar

StartChar: currency
Encoding: 164 164 100
Width: 826
GlyphClass: 2
Flags: HMW
LayerCount: 2
Fore
SplineSet
622.313476562 25 m 2
 560.405273438 96 l 1
 517.12109375 68 471.311523438 54 422.978515625 54 c 128
 374.645507812 54 334.12109375 68 301.405273438 96 c 1
 210.313476562 25 l 2
 198.188476562 15 187.79296875 10 179.125976562 10 c 0
 164.458984375 10 158.471679688 16.3330078125 161.1640625 29 c 0
 163.499023438 39.9853515625 176.499023438 49.078125 183.903320312 56 c 2
 275.20703125 128 l 1
 252.859375 164 246.502929688 204.666992188 256.138671875 250 c 256
 265.775390625 295.333007812 289.490234375 336.333007812 327.283203125 373 c 1
 266.375 444 l 2
 257.309570312 454.666992188 253.625976562 464 255.327148438 472 c 0
 258.01953125 484.666992188 266.698242188 491 281.365234375 491 c 0
 290.032226562 491 298.302734375 486 306.176757812 476 c 2
 367.873046875 404 l 1
 411.82421875 432 457.799804688 446 505.799804688 446 c 256
 553.799804688 446 593.82421875 432 625.873046875 404 c 1
 716.96484375 475 l 2
 729.756835938 485 740.485351562 490 749.15234375 490 c 0
 763.15234375 490 768.876953125 484 766.327148438 472 c 0
 764.625976562 464 757.309570312 454.666992188 744.375 444 c 2
 653.283203125 373 l 1
 675.7734375 337.666992188 682.09375 296.833007812 672.245117188 250.5 c 128
 662.397460938 204.166992188 639.05078125 163.333007812 602.20703125 128 c 1
 662.903320312 56 l 2
 670.77734375 46 673.864257812 37 672.1640625 29 c 0
 669.471679688 16.3330078125 661.458984375 10 648.125976562 10 c 0
 639.458984375 10 630.85546875 15 622.313476562 25 c 2
625.138671875 250 m 0
 643.493164062 336.350585938 583.234375 402 496.947265625 402 c 128
 410.68359375 402 321.493164062 336.348632812 303.138671875 250 c 256
 284.73046875 163.39453125 346.166992188 98 432.830078125 98 c 128
 476.830078125 98 517.615234375 112.666992188 555.182617188 142 c 0
 580.909179688 162.666992188 597.689453125 179.666992188 605.5234375 193 c 128
 613.357421875 206.333007812 619.896484375 225.333007812 625.138671875 250 c 0
EndSplineSet
EndChar

StartChar: yen
Encoding: 165 165 101
Width: 708
GlyphClass: 2
Flags: HMW
LayerCount: 2
Fore
SplineSet
544.370117188 364 m 1
 668.370117188 364 l 1
 653.916992188 296 l 1
 478.916992188 296 l 1
 460.877929688 277 l 1
 447.912109375 216 l 1
 636.912109375 216 l 1
 622.458007812 148 l 1
 433.458007812 148 l 1
 402 0 l 1
 307 0 l 1
 338.458007812 148 l 1
 150.458007812 148 l 1
 164.912109375 216 l 1
 352.912109375 216 l 1
 366.090820312 278 l 1
 355.916992188 296 l 1
 181.916992188 296 l 1
 196.370117188 364 l 1
 321.370117188 364 l 1
 150.514648438 694 l 1
 267.514648438 694 l 1
 414.084960938 405 l 2
 420.34375 393.666992188 426.771484375 380 433.370117188 364 c 1
 450.370117188 364 l 1
 520.162109375 443 l 2
 529.904296875 454.333007812 537.747070312 463 543.689453125 469 c 2
 754.514648438 694 l 1
 853.514648438 694 l 1
 544.370117188 364 l 1
EndSplineSet
EndChar

StartChar: brokenbar
Encoding: 166 166 102
Width: 295
GlyphClass: 2
Flags: HMW
LayerCount: 2
Fore
SplineSet
213.467773438 308 m 256
 197.467773438 308 191.947265625 319.666992188 196.907226562 343 c 2
 275.977539062 715 l 2
 280.9375 738.333007812 291.416992188 750 307.416992188 750 c 256
 323.416992188 750 328.9375 738.333007812 323.977539062 715 c 2
 244.907226562 343 l 2
 239.947265625 319.666992188 229.467773438 308 213.467773438 308 c 256
94.861328125 -250 m 256
 78.861328125 -250 73.3408203125 -238.333007812 78.30078125 -215 c 2
 157.37109375 157 l 2
 162.331054688 180.333007812 172.810546875 192 188.810546875 192 c 256
 204.810546875 192 210.331054688 180.333007812 205.37109375 157 c 2
 126.30078125 -215 l 2
 121.340820312 -238.333007812 110.861328125 -250 94.861328125 -250 c 256
EndSplineSet
EndChar

StartChar: section
Encoding: 167 167 103
Width: 559
GlyphClass: 2
Flags: HMW
LayerCount: 2
Fore
SplineSet
418.3984375 637 m 256
 358.228515625 637 294.29296875 594.16015625 281.504882812 534 c 0
 273.002929688 494 299.30078125 459.333007812 360.399414062 430 c 2
 456.833984375 385 l 2
 495.533203125 366.333007812 526.017578125 341.166992188 548.286132812 309.5 c 256
 570.555664062 277.833007812 577.296875 241.333007812 568.51171875 200 c 0
 556.041015625 141.333007812 520.647460938 94 462.328125 58 c 1
 478.376953125 30 482.858398438 -0.6669921875 475.7734375 -34 c 0
 464.719726562 -86 435.484375 -128.666992188 388.065429688 -162 c 256
 340.647460938 -195.333007812 290.271484375 -212 236.938476562 -212 c 256
 183.60546875 -212 140.20703125 -195.833007812 106.747070312 -163.5 c 256
 73.2861328125 -131.166992188 62.08203125 -89 73.1357421875 -37 c 1
 160.135742188 -37 l 1
 147.333007812 -97.228515625 192.693359375 -137 252.879882812 -137 c 256
 313.079101562 -137 375.985351562 -94.162109375 388.7734375 -34 c 0
 397.275390625 6 371.310546875 40.6669921875 310.87890625 70 c 2
 214.444335938 115 l 2
 175.745117188 133.666992188 145.09375 158.833007812 122.4921875 190.5 c 256
 99.8896484375 222.166992188 92.9814453125 258.666992188 101.766601562 300 c 0
 114.095703125 358 149.751953125 405 208.737304688 441 c 1
 192.022460938 469 187.278320312 500 194.504882812 534 c 0
 205.55859375 586 234.959960938 628.666992188 282.712890625 662 c 256
 330.46484375 695.333007812 380.83984375 712 433.83984375 712 c 256
 486.83984375 712 530.071289062 695.833007812 563.53125 663.5 c 256
 596.991210938 631.166992188 608.196289062 589 597.142578125 537 c 1
 510.142578125 537 l 1
 522.9453125 597.23046875 478.614257812 637 418.3984375 637 c 256
404.6796875 309 m 2
 308.458007812 355 l 2
 291.491210938 363 273.829101562 374 255.471679688 388 c 1
 219.362304688 368.666992188 196.879882812 338.166992188 188.0234375 296.5 c 256
 179.166015625 254.833007812 205.358398438 219.666992188 266.598632812 191 c 2
 362.8203125 145 l 2
 377.26171875 137.666992188 394.51953125 126.333007812 414.59375 111 c 1
 450.986328125 131.666992188 473.291992188 161.333007812 481.51171875 200 c 0
 490.864257812 244 465.25390625 280.333007812 404.6796875 309 c 2
EndSplineSet
EndChar

StartChar: dieresis
Encoding: 168 168 104
Width: 531
GlyphClass: 2
Flags: HMW
LayerCount: 2
Fore
SplineSet
412.370117188 571 m 1
 429.374023438 651 l 1
 518.374023438 651 l 1
 501.370117188 571 l 1
 412.370117188 571 l 1
258.370117188 571 m 1
 275.374023438 651 l 1
 364.374023438 651 l 1
 347.370117188 571 l 1
 258.370117188 571 l 1
EndSplineSet
EndChar

StartChar: copyright
Encoding: 169 169 105
Width: 694
GlyphClass: 2
Flags: HMW
LayerCount: 2
Fore
SplineSet
646.649414062 99.5 m 128
 560.216796875 33.1669921875 467.166992188 0 367.5 0 c 128
 267.833007812 0 188.716796875 33.1669921875 130.149414062 99.5 c 128
 71.58203125 165.833007812 52.78515625 248.333007812 73.7568359375 347 c 256
 94.7294921875 445.666992188 148.598632812 528.166992188 235.365234375 594.5 c 128
 322.131835938 660.833007812 415.84765625 694 516.514648438 694 c 128
 617.181640625 694 695.954101562 660 752.833007812 592 c 0
 792.388671875 546 814.9375 504.666992188 820.4765625 468 c 0
 823.900390625 443.333007812 819.66015625 403 807.756835938 347 c 0
 786.78515625 248.333007812 733.08203125 165.833007812 646.649414062 99.5 c 128
505.374023438 651 m 256
 418.041015625 651 336.54296875 622 260.881835938 564 c 128
 185.220703125 506 138.178710938 433.666992188 119.756835938 347 c 256
 101.3359375 260.333007812 117.627929688 188 168.6328125 130 c 128
 219.63671875 72 289.306640625 43 377.639648438 43 c 128
 465.97265625 43 547.779296875 72.6669921875 623.057617188 132 c 0
 675.034179688 172.666992188 710.091796875 209 728.2265625 241 c 0
 740.760742188 262.333007812 752.271484375 297.666992188 762.756835938 347 c 0
 781.178710938 433.666992188 764.720703125 506 713.381835938 564 c 128
 662.04296875 622 592.70703125 651 505.374023438 651 c 256
415.231445312 114 m 0
 351.8984375 114 304.41796875 136.833007812 272.791992188 182.5 c 128
 241.165039062 228.166992188 232.153320312 283 245.756835938 347 c 256
 259.360351562 411 291.551757812 466 342.329101562 512 c 128
 393.106445312 558 450.162109375 581 513.495117188 581 c 0
 555.495117188 581 595.127929688 573 632.393554688 557 c 1
 610.491210938 501 l 1
 576.641601562 523.666992188 538.55078125 535 496.217773438 535 c 128
 453.884765625 535 414.810546875 515.833007812 378.99609375 477.5 c 128
 343.180664062 439.166992188 320.06640625 395.5 309.650390625 346.5 c 128
 299.235351562 297.5 303.989257812 254 323.912109375 216 c 128
 343.834960938 178 376.296875 159 421.296875 159 c 128
 466.296875 159 512.368164062 172.666992188 559.51171875 200 c 1
 552.883789062 150 l 1
 508.44921875 126 462.564453125 114 415.231445312 114 c 0
EndSplineSet
EndChar

StartChar: ordfeminine
Encoding: 170 170 106
Width: 396
GlyphClass: 2
Flags: W
HStem: 311 49<144.084 393.541> 385 47<211.465 352.362> 527 40<255.755 395.018> 671 45<242.012 399.141>
LayerCount: 2
Fore
SplineSet
353.690429688 716 m 256
 436.196289062 716 499.512695312 675.174804688 482.470703125 595 c 2
 439.53515625 393 l 1
 368.53515625 393 l 1
 373.423828125 416 l 1
 333.030273438 395.333007812 283.166992188 385 223.833984375 385 c 0
 169.510742188 385 127.04296875 418.9140625 138.5390625 473 c 0
 153.940429688 545.45703125 307.494140625 565.817382812 403.51953125 567 c 1
 409.258789062 594 l 2
 418.73046875 638.563476562 395.931640625 671 351.625 671 c 0
 303.625 671 255.670898438 658.666992188 207.760742188 634 c 1
 212.6015625 685 l 1
 262.327148438 705.666992188 309.357421875 716 353.690429688 716 c 256
353.10546875 311 m 2
 174.10546875 311 l 2
 150.10546875 311 139.840820312 319.166992188 143.3125 335.5 c 256
 146.784179688 351.833007812 160.520507812 360 184.520507812 360 c 2
 363.520507812 360 l 2
 387.520507812 360 397.784179688 351.833007812 394.3125 335.5 c 256
 390.840820312 319.166992188 377.10546875 311 353.10546875 311 c 2
284.82421875 432 m 256
 325.55078125 432 377.8671875 446.313476562 386.302734375 486 c 2
 395.017578125 527 l 1
 275.600585938 520.333007812 212.844726562 502.666992188 206.751953125 474 c 0
 200.155273438 442.963867188 246.709960938 432 284.82421875 432 c 256
EndSplineSet
EndChar

StartChar: guillemotleft
Encoding: 171 171 107
Width: 531
GlyphClass: 2
Flags: HMW
LayerCount: 2
Fore
SplineSet
404 0 m 1
 339.549804688 219 l 1
 497.3125 439 l 1
 567.3125 439 l 1
 427.549804688 219 l 1
 474 0 l 1
 404 0 l 1
229 0 m 1
 164.549804688 219 l 1
 322.3125 439 l 1
 392.3125 439 l 1
 251.549804688 219 l 1
 299 0 l 1
 229 0 l 1
EndSplineSet
Substitution2: "'cv04' Character Variants 04 in Greek lookup 24-1" guillemotleft.gr
Substitution2: "'cv03' Character Variants 03 in Cyrillic lookup 23-1" guillemotleft.cyr
EndChar

StartChar: logicalnot
Encoding: 172 172 108
Width: 826
GlyphClass: 2
Flags: HMW
LayerCount: 2
Fore
SplineSet
766.6328125 130 m 256
 750.6328125 130 744.19140625 137.333007812 747.30859375 152 c 2
 784.29296875 326 l 1
 152.29296875 326 l 2
 136.29296875 326 129.852539062 333.333007812 132.969726562 348 c 256
 136.086914062 362.666992188 145.645507812 370 161.645507812 370 c 2
 817.645507812 370 l 2
 833.645507812 370 840.086914062 362.666992188 836.969726562 348 c 2
 795.30859375 152 l 2
 792.19140625 137.333007812 782.6328125 130 766.6328125 130 c 256
EndSplineSet
EndChar

StartChar: uni00AD
Encoding: 173 173 109
Width: 354
GlyphClass: 2
Flags: HMW
LayerCount: 2
Fore
SplineSet
53.0234375 193 m 1
 65.3515625 251 l 1
 348.3515625 251 l 1
 336.0234375 193 l 1
 53.0234375 193 l 1
EndSplineSet
EndChar

StartChar: registered
Encoding: 174 174 110
Width: 694
GlyphClass: 2
Flags: HMW
LayerCount: 2
Fore
SplineSet
646.649414062 99.5 m 128
 560.216796875 33.1669921875 467.166992188 0 367.5 0 c 128
 267.833007812 0 188.716796875 33.1669921875 130.149414062 99.5 c 128
 71.58203125 165.833007812 52.78515625 248.333007812 73.7568359375 347 c 256
 94.7294921875 445.666992188 148.598632812 528.166992188 235.365234375 594.5 c 128
 322.131835938 660.833007812 415.84765625 694 516.514648438 694 c 128
 617.181640625 694 695.954101562 660 752.833007812 592 c 0
 792.388671875 546 814.9375 504.666992188 820.4765625 468 c 0
 823.900390625 443.333007812 819.66015625 403 807.756835938 347 c 0
 786.78515625 248.333007812 733.08203125 165.833007812 646.649414062 99.5 c 128
505.374023438 651 m 256
 418.041015625 651 336.54296875 622 260.881835938 564 c 128
 185.220703125 506 138.178710938 433.666992188 119.756835938 347 c 256
 101.3359375 260.333007812 117.627929688 188 168.6328125 130 c 128
 219.63671875 72 289.306640625 43 377.639648438 43 c 128
 465.97265625 43 547.779296875 72.6669921875 623.057617188 132 c 0
 675.034179688 172.666992188 710.091796875 209 728.2265625 241 c 0
 740.760742188 262.333007812 752.271484375 297.666992188 762.756835938 347 c 0
 781.178710938 433.666992188 764.720703125 506 713.381835938 564 c 128
 662.04296875 622 592.70703125 651 505.374023438 651 c 256
635.225585938 448 m 0
 622.025390625 385.901367188 554.006835938 347.758789062 499.78125 333 c 1
 587.20703125 128 l 1
 522.20703125 128 l 1
 440.29296875 326 l 1
 339.29296875 326 l 1
 297.20703125 128 l 1
 235.20703125 128 l 1
 328.51953125 567 l 1
 490.51953125 567 l 2
 531.186523438 567 567.455078125 556.5 599.32421875 535.5 c 128
 631.193359375 514.5 643.161132812 485.333007812 635.225585938 448 c 0
441.43359375 369 m 2
 500.26171875 369 564.793945312 394.219726562 576.119140625 447.5 c 128
 581.858398438 474.5 573.740234375 494.333007812 551.766601562 507 c 128
 529.791992188 519.666992188 504.137695312 526 474.8046875 526 c 2
 381.8046875 526 l 1
 348.43359375 369 l 1
 441.43359375 369 l 2
EndSplineSet
EndChar

StartChar: macron
Encoding: 175 175 111
Width: 531
GlyphClass: 2
Flags: HMW
LayerCount: 2
Fore
SplineSet
195.51953125 567 m 1
 209.123046875 631 l 1
 592.123046875 631 l 1
 578.51953125 567 l 1
 195.51953125 567 l 1
EndSplineSet
EndChar

StartChar: degree
Encoding: 176 176 112
Width: 398
GlyphClass: 2
Flags: HMW
LayerCount: 2
Fore
SplineSet
466.075195312 555.5 m 128
 449.266601562 476.419921875 367.626953125 417 288.635742188 417 c 256
 209.640625 417 153.266601562 476.419921875 170.075195312 555.5 c 128
 186.883789062 634.580078125 268.5234375 694 347.514648438 694 c 256
 426.509765625 694 482.883789062 634.580078125 466.075195312 555.5 c 128
419.075195312 555.5 m 128
 430.478515625 609.1484375 391.125976562 650 337.662109375 650 c 128
 283.89453125 650 228.680664062 610.09765625 217.181640625 556 c 256
 205.633789062 501.671875 243.818359375 461 297.98828125 461 c 256
 351.884765625 461 407.6171875 501.596679688 419.075195312 555.5 c 128
EndSplineSet
EndChar

StartChar: plusminus
Encoding: 177 177 113
Width: 826
GlyphClass: 2
Flags: HMW
LayerCount: 2
Fore
SplineSet
725 0 m 2
 96 0 l 2
 71.3330078125 0 60.59375 7.5 63.7822265625 22.5 c 256
 66.970703125 37.5 80.8984375 45 105.565429688 45 c 2
 397.565429688 45 l 1
 454.10546875 311 l 1
 162.10546875 311 l 2
 137.438476562 311 126.6640625 318.333007812 129.78125 333 c 256
 132.8984375 347.666992188 146.791015625 355 171.458007812 355 c 2
 463.458007812 355 l 1
 522.123046875 631 l 2
 527.083007812 654.333007812 537.395507812 666 553.0625 666 c 256
 568.729492188 666 574.083007812 654.333007812 569.123046875 631 c 2
 510.458007812 355 l 1
 800.458007812 355 l 2
 825.791015625 355 836.8984375 347.666992188 833.78125 333 c 256
 830.6640625 318.333007812 816.438476562 311 791.10546875 311 c 2
 501.10546875 311 l 1
 444.565429688 45 l 1
 734.565429688 45 l 2
 759.8984375 45 770.970703125 37.5 767.782226562 22.5 c 256
 764.59375 7.5 750.333007812 0 725 0 c 2
EndSplineSet
EndChar

StartChar: two.superior
Encoding: 178 178 114
Width: 375
GlyphClass: 2
Flags: W
HStem: 310 46<180.67 411.893> 674 42<248.047 381.717>
LayerCount: 2
Fore
SplineSet
403.345703125 585 m 256
 415.470703125 642.044921875 372.153320312 674 314.762695312 674 c 0
 285.095703125 674 261.229492188 666 243.162109375 650 c 0
 225.09375 634 207.73046875 610.333007812 191.0703125 579 c 1
 179.322265625 595.866210938 169.944335938 608.200195312 162.934570312 616 c 1
 201.772460938 682.666992188 258.857421875 716 334.190429688 716 c 0
 377.5234375 716 413.28125 704.666992188 441.463867188 682 c 0
 469.645507812 659.333007812 479.34375 627.333007812 470.55859375 586 c 0
 459.607421875 534.479492188 414.671875 505.739257812 371.176757812 476 c 1
 333.500976562 454 l 2
 296.627929688 432.469726562 217.986328125 379.41796875 180.669921875 356 c 1
 421.669921875 356 l 1
 411.892578125 310 l 1
 104.892578125 310 l 1
 113.607421875 351 l 1
 172.591796875 390.387695312 231.244140625 430.197265625 291.4765625 468 c 0
 303.702148438 475.333007812 320.918945312 487.333007812 343.12890625 504 c 0
 377.322265625 530 397.393554688 557 403.345703125 585 c 256
EndSplineSet
EndChar

StartChar: three.superior
Encoding: 179 179 115
Width: 382
GlyphClass: 2
Flags: W
HStem: 296 42<171.726 326.799> 502 41<241.418 305.269> 677 39<253.821 391.254>
LayerCount: 2
Fore
SplineSet
362.954101562 522 m 1
 407.247070312 509.3984375 452.004882812 475.192382812 440.061523438 419 c 0
 431.984375 381 408.607421875 351 369.930664062 329 c 0
 331.254882812 307 292.25 296 252.916992188 296 c 0
 189.583984375 296 141.451171875 317.333007812 108.520507812 360 c 1
 127.447265625 402 l 1
 153.288085938 359.333007812 197.419921875 338 259.84375 338 c 0
 310.955078125 338 357.361328125 368.663085938 368.379882812 420.5 c 0
 379.711914062 473.811523438 343.143554688 502 289.703125 502 c 2
 232.703125 502 l 1
 241.41796875 543 l 1
 305.268554688 547 l 1
 343.499023438 553.153320312 387.702148438 581.97265625 396.635742188 624 c 0
 404.145507812 659.333007812 381.900390625 677 329.900390625 677 c 0
 277.900390625 677 235.627929688 655.333007812 203.084960938 612 c 1
 179.736328125 648 l 1
 224.705078125 693.333007812 279.190429688 716 343.190429688 716 c 0
 408.783203125 716 476.217773438 683.1953125 463.635742188 624 c 0
 454.56640625 581.333007812 421.005859375 547.333007812 362.954101562 522 c 1
EndSplineSet
EndChar

StartChar: acute
Encoding: 180 180 116
Width: 531
GlyphClass: 2
Flags: HMW
LayerCount: 2
Fore
SplineSet
373.017578125 527 m 1
 303.017578125 527 l 1
 481.514648438 694 l 1
 570.514648438 694 l 1
 373.017578125 527 l 1
EndSplineSet
EndChar

StartChar: uni00B5
Encoding: 181 181 117
Width: 549
GlyphClass: 2
Flags: HMW
LayerCount: 2
Fore
SplineSet
264.990234375 47 m 256
 333.509765625 47 391.659179688 87.7861328125 406.159179688 156 c 2
 467.375 444 l 1
 554.375 444 l 1
 459.575195312 -2 l 1
 375.575195312 -2 l 1
 385.139648438 43 l 1
 331.345703125 6.3330078125 267.782226562 -12 194.44921875 -12 c 0
 183.782226562 -12 175.1875 -11.6669921875 168.662109375 -11 c 1
 129.763671875 -194 l 1
 41.763671875 -194 l 1
 177.375 444 l 1
 265.375 444 l 1
 195.444335938 115 l 2
 182.734375 55.2080078125 202.111328125 47 264.990234375 47 c 256
EndSplineSet
EndChar

StartChar: paragraph
Encoding: 182 182 118
Width: 649
GlyphClass: 2
Flags: HMW
LayerCount: 2
Fore
SplineSet
716.94921875 649 m 2
 667.94921875 649 l 1
 496.203125 -159 l 2
 491.244140625 -182.333007812 480.763671875 -194 464.763671875 -194 c 256
 448.763671875 -194 443.244140625 -182.333007812 448.203125 -159 c 2
 619.94921875 649 l 1
 551.94921875 649 l 1
 380.203125 -159 l 2
 375.244140625 -182.333007812 364.930664062 -194 349.263671875 -194 c 256
 333.596679688 -194 328.244140625 -182.333007812 333.203125 -159 c 2
 415.462890625 228 l 1
 343.50390625 231.333007812 280.018554688 251 225.00390625 287 c 0
 163.647460938 327.666992188 140.622070312 384 155.92578125 456 c 256
 171.229492188 528 210.3203125 585.666992188 273.198242188 629 c 256
 336.076171875 672.333007812 402.181640625 694 471.514648438 694 c 2
 726.514648438 694 l 2
 751.84765625 694 762.919921875 686.5 759.731445312 671.5 c 256
 756.54296875 656.5 742.282226562 649 716.94921875 649 c 2
EndSplineSet
EndChar

StartChar: periodcentered
Encoding: 183 183 119
Width: 826
GlyphClass: 2
Flags: HMW
LayerCount: 2
Fore
SplineSet
433.041992188 306 m 1
 450.684570312 389 l 1
 542.684570312 389 l 1
 525.041992188 306 l 1
 433.041992188 306 l 1
EndSplineSet
EndChar

StartChar: cedilla
Encoding: 184 184 120
Width: 472
GlyphClass: 2
Flags: HMW
LayerCount: 2
Fore
SplineSet
190.189453125 -192 m 1
 112.189453125 -192 l 1
 227.8984375 -24 l 1
 297.8984375 -24 l 1
 190.189453125 -192 l 1
EndSplineSet
EndChar

StartChar: one.superior
Encoding: 185 185 121
Width: 393
GlyphClass: 2
Flags: HMW
LayerCount: 2
Fore
SplineSet
135.892578125 310 m 1
 144.182617188 349 l 1
 238.182617188 349 l 1
 302.374023438 651 l 1
 276.815429688 643.666992188 243.227539062 639.333007812 201.611328125 638 c 1
 209.900390625 677 l 1
 276.993164062 679 328.088867188 692 363.190429688 716 c 1
 381.190429688 716 l 1
 303.182617188 349 l 1
 398.182617188 349 l 1
 389.892578125 310 l 1
 135.892578125 310 l 1
EndSplineSet
EndChar

StartChar: ordmasculine
Encoding: 186 186 122
Width: 445
GlyphClass: 2
Flags: W
HStem: 311 49<130.084 454.446> 385 49<243.951 391.119> 670 46<284.873 433.43>
LayerCount: 2
Fore
SplineSet
533.481445312 548 m 256
 522.995117188 498.666992188 494.431640625 459.166992188 447.79296875 429.5 c 0
 401.154296875 399.833007812 352.666992188 385 302.333984375 385 c 0
 252.000976562 385 209.987304688 399.833007812 176.29296875 429.5 c 0
 142.598632812 459.166992188 130.995117188 498.666992188 141.481445312 548 c 256
 151.966796875 597.333007812 180.540039062 637.666992188 227.200195312 669 c 0
 273.860351562 700.333007812 322.690429688 716 373.690429688 716 c 0
 424.690429688 716 466.693359375 700.333007812 499.700195312 669 c 0
 532.70703125 637.666992188 543.966796875 597.333007812 533.481445312 548 c 256
413.10546875 311 m 2
 160.10546875 311 l 2
 136.10546875 311 125.840820312 319.166992188 129.3125 335.5 c 0
 132.784179688 351.833007812 146.520507812 360 170.520507812 360 c 2
 423.520507812 360 l 2
 448.1875 360 458.784179688 351.833007812 455.3125 335.5 c 0
 451.840820312 319.166992188 437.772460938 311 413.10546875 311 c 2
460.755859375 554 m 256
 475.908203125 625.28515625 434.204101562 670 363.413085938 670 c 0
 293.163085938 670 231.502929688 623.37890625 216.543945312 553 c 0
 201.4296875 481.893554688 241.206054688 434 312.75 434 c 0
 384.799804688 434 445.463867188 482.053710938 460.755859375 554 c 256
EndSplineSet
EndChar

StartChar: guillemotright
Encoding: 187 187 123
Width: 531
GlyphClass: 2
Flags: HMW
LayerCount: 2
Fore
SplineSet
304 0 m 1
 234 0 l 1
 374.549804688 219 l 1
 327.3125 439 l 1
 397.3125 439 l 1
 461.549804688 219 l 1
 304 0 l 1
129 0 m 1
 59 0 l 1
 198.549804688 219 l 1
 152.3125 439 l 1
 222.3125 439 l 1
 286.549804688 219 l 1
 129 0 l 1
EndSplineSet
Substitution2: "'cv04' Character Variants 04 in Greek lookup 24-1" guillemotright.gr
Substitution2: "'cv03' Character Variants 03 in Cyrillic lookup 23-1" guillemotright.cyr
EndChar

StartChar: onequarter
Encoding: 188 188 124
Width: 834
GlyphClass: 3
Flags: HMW
LayerCount: 2
Fore
SplineSet
276.250976562 20 m 1
 221.250976562 20 l 1
 783.262695312 674 l 1
 839.262695312 674 l 1
 276.250976562 20 l 1
709.680664062 102 m 1
 688 0 l 1
 623 0 l 1
 644.680664062 102 l 1
 445.680664062 102 l 1
 453.970703125 141 l 1
 700.172851562 396 l 1
 772.172851562 396 l 1
 718.395507812 143 l 1
 793.395507812 143 l 1
 784.680664062 102 l 1
 709.680664062 102 l 1
135.467773438 308 m 1
 143.756835938 347 l 1
 237.756835938 347 l 1
 302.162109375 650 l 1
 276.603515625 642.666992188 243.014648438 638.333007812 201.3984375 637 c 1
 209.900390625 677 l 1
 276.993164062 679 328.088867188 692 363.190429688 716 c 1
 381.190429688 716 l 1
 302.756835938 347 l 1
 397.756835938 347 l 1
 389.467773438 308 l 1
 135.467773438 308 l 1
702.182617188 349 m 1
 680.288085938 315 619.692382812 246.333007812 520.395507812 143 c 1
 658.395507812 143 l 1
 702.182617188 349 l 1
EndSplineSet
Ligature2: "'frac' Diagonal Fractions lookup 3 subtable" one fraction four
Ligature2: "'frac' Diagonal Fractions lookup 3 subtable" one slash four
EndChar

StartChar: onehalf
Encoding: 189 189 125
Width: 834
GlyphClass: 3
Flags: HMW
LayerCount: 2
Fore
SplineSet
530.990234375 47 m 1
 571.493164062 47 603.771484375 48 633.203125 48 c 2
 773.203125 48 l 1
 763 0 l 1
 456 0 l 1
 464.71484375 41 l 1
 575.869140625 117 l 1
 653.604492188 162.391601562 705.418945312 200.724609375 731.313476562 232 c 0
 743.763671875 246.666992188 751.689453125 262 755.090820312 278 c 0
 766.978515625 333.92578125 721.94921875 365 665.583007812 365 c 128
 636.25 365 612.584960938 357.166992188 594.587890625 341.5 c 128
 576.590820312 325.833007812 559.192382812 302 542.390625 270 c 1
 536.515625 280 529.903320312 289.666992188 522.5546875 299 c 2
 514.467773438 308 l 1
 553.446289062 375.333007812 610.602539062 409 685.935546875 409 c 0
 729.268554688 409 765.026367188 397.666992188 793.208984375 375 c 128
 821.390625 352.333007812 831.088867188 320.333007812 822.303710938 279 c 0
 816.068359375 249.666992188 796.92578125 222.333007812 764.874023438 197 c 0
 741.904296875 179.5 718.216796875 163.625 693.813476562 149.375 c 128
 669.409179688 135.125 615.134765625 101 530.990234375 47 c 1
234.250976562 20 m 1
 179.250976562 20 l 1
 741.262695312 674 l 1
 797.262695312 674 l 1
 234.250976562 20 l 1
135.467773438 308 m 1
 143.756835938 347 l 1
 237.756835938 347 l 1
 302.162109375 650 l 1
 276.603515625 642.666992188 243.014648438 638.333007812 201.3984375 637 c 1
 209.900390625 677 l 1
 276.993164062 679 328.088867188 692 363.190429688 716 c 1
 381.190429688 716 l 1
 302.756835938 347 l 1
 397.756835938 347 l 1
 389.467773438 308 l 1
 135.467773438 308 l 1
EndSplineSet
Ligature2: "'frac' Diagonal Fractions lookup 3 subtable" one fraction two
Ligature2: "'frac' Diagonal Fractions lookup 3 subtable" one slash two
EndChar

StartChar: threequarters
Encoding: 190 190 126
Width: 834
GlyphClass: 3
Flags: HMW
LayerCount: 2
Fore
SplineSet
278.250976562 20 m 1
 223.250976562 20 l 1
 785.262695312 674 l 1
 841.262695312 674 l 1
 278.250976562 20 l 1
711.680664062 102 m 1
 690 0 l 1
 625 0 l 1
 646.680664062 102 l 1
 447.680664062 102 l 1
 455.970703125 141 l 1
 702.172851562 396 l 1
 774.172851562 396 l 1
 720.395507812 143 l 1
 795.395507812 143 l 1
 786.680664062 102 l 1
 711.680664062 102 l 1
393.7421875 521 m 1
 437.9609375 508.418945312 483.78125 474.139648438 471.848632812 418 c 0
 463.771484375 380 440.359375 349.833007812 401.612304688 327.5 c 256
 362.865234375 305.166992188 323.491210938 294 283.491210938 294 c 0
 220.82421875 294 172.693359375 315.333007812 139.095703125 358 c 1
 158.022460938 400 l 1
 180.706054688 362.545898438 228.412109375 336 290.918945312 336 c 256
 343.01171875 336 387.983398438 366.881835938 399.061523438 419 c 256
 410.3984375 472.3359375 375.508789062 501 321.491210938 501 c 2
 264.491210938 501 l 1
 273.206054688 542 l 1
 336.055664062 546 l 1
 373.450195312 553.173828125 418.604492188 581.514648438 427.422851562 623 c 0
 435.075195312 659 414.233398438 677 364.900390625 677 c 0
 310.387695312 677 263.043945312 649.364257812 234.084960938 612 c 1
 211.736328125 648 l 1
 256.0390625 693.333007812 310.190429688 716 374.190429688 716 c 0
 407.5234375 716 437.692382812 708.166992188 464.6953125 692.5 c 256
 491.698242188 676.833007812 501.94140625 653.666992188 495.422851562 623 c 0
 486.211914062 579.666992188 452.318359375 545.666992188 393.7421875 521 c 1
704.182617188 349 m 1
 682.288085938 315 621.692382812 246.333007812 522.395507812 143 c 1
 660.395507812 143 l 1
 704.182617188 349 l 1
EndSplineSet
Ligature2: "'frac' Diagonal Fractions lookup 3 subtable" three fraction four
Ligature2: "'frac' Diagonal Fractions lookup 3 subtable" three slash four
EndChar

StartChar: questiondown
Encoding: 191 191 127
Width: 502
GlyphClass: 3
Flags: HMW
LayerCount: 2
Fore
SplineSet
276.786132812 413 m 1
 295.278320312 500 l 1
 388.278320312 500 l 1
 369.786132812 413 l 1
 276.786132812 413 l 1
134.947265625 -52 m 256
 121.569335938 -114.938476562 144.51953125 -139 208.455078125 -139 c 0
 272.455078125 -139 335.755859375 -120.333007812 398.357421875 -83 c 1
 409.904296875 -151 l 1
 336.918945312 -187 264.758789062 -205 193.42578125 -205 c 0
 88.9287109375 -205 25.8955078125 -155.743164062 47.8408203125 -52.5 c 256
 58.5390625 -2.1669921875 84.693359375 39.3330078125 126.303710938 72 c 0
 196.065429688 127.333007812 238.881835938 192.333007812 254.752929688 267 c 2
 267.29296875 326 l 1
 342.29296875 326 l 1
 335.06640625 292 l 2
 311.543945312 181.333007812 260.697265625 92.6669921875 182.526367188 26 c 0
 157.325195312 4.6669921875 141.465820312 -21.3330078125 134.947265625 -52 c 256
EndSplineSet
Ligature2: "'dlig' Discretionary Ligatures lookup 13 subtable" question quoteleft
Ligature2: "'dlig' Discretionary Ligatures lookup 13 subtable" question grave
EndChar

StartChar: Agrave
Encoding: 192 192 128
Width: 708
GlyphClass: 2
Flags: HMW
LayerCount: 2
Fore
SplineSet
516.716796875 742 m 1
 328.499023438 868 l 1
 454.499023438 868 l 1
 619.716796875 742 l 1
 516.716796875 742 l 1
575 0 m 1
 539.149414062 203 l 1
 237.149414062 203 l 1
 113 0 l 1
 30 0 l 1
 453.7265625 695 l 1
 549.7265625 695 l 1
 678 0 l 1
 575 0 l 1
474.872070312 611 m 1
 462.961914062 586.333007812 430.846679688 529.333007812 378.524414062 440 c 2
 273.90234375 263 l 1
 526.90234375 263 l 1
 485.678710938 516 l 2
 478.364257812 560 474.762695312 591.666992188 474.872070312 611 c 1
EndSplineSet
Position2: "'cpsp' Capital Spacing lookup 0 subtable" dx=7 dy=1 dh=14 dv=3
EndChar

StartChar: Aacute
Encoding: 193 193 129
Width: 708
GlyphClass: 2
Flags: HMW
LayerCount: 2
Fore
SplineSet
505.716796875 742 m 1
 403.716796875 742 l 1
 621.499023438 868 l 1
 747.499023438 868 l 1
 505.716796875 742 l 1
575 0 m 1
 539.149414062 203 l 1
 237.149414062 203 l 1
 113 0 l 1
 30 0 l 1
 453.7265625 695 l 1
 549.7265625 695 l 1
 678 0 l 1
 575 0 l 1
474.872070312 611 m 1
 462.961914062 586.333007812 430.846679688 529.333007812 378.524414062 440 c 2
 273.90234375 263 l 1
 526.90234375 263 l 1
 485.678710938 516 l 2
 478.364257812 560 474.762695312 591.666992188 474.872070312 611 c 1
EndSplineSet
Position2: "'cpsp' Capital Spacing lookup 0 subtable" dx=7 dy=1 dh=14 dv=3
EndChar

StartChar: Acircumflex
Encoding: 194 194 130
Width: 708
GlyphClass: 2
Flags: HMW
LayerCount: 2
Fore
SplineSet
609.591796875 732 m 1
 529.784179688 827 l 1
 408.591796875 732 l 1
 339.591796875 732 l 1
 505.923828125 870 l 1
 570.923828125 870 l 1
 679.591796875 732 l 1
 609.591796875 732 l 1
575 0 m 1
 539.149414062 203 l 1
 237.149414062 203 l 1
 113 0 l 1
 30 0 l 1
 453.7265625 695 l 1
 549.7265625 695 l 1
 678 0 l 1
 575 0 l 1
474.872070312 611 m 1
 462.961914062 586.333007812 430.846679688 529.333007812 378.524414062 440 c 2
 273.90234375 263 l 1
 526.90234375 263 l 1
 485.678710938 516 l 2
 478.364257812 560 474.762695312 591.666992188 474.872070312 611 c 1
EndSplineSet
Position2: "'cpsp' Capital Spacing lookup 0 subtable" dx=7 dy=1 dh=14 dv=3
EndChar

StartChar: Atilde
Encoding: 195 195 131
Width: 708
GlyphClass: 2
Flags: HMW
LayerCount: 2
Fore
SplineSet
713.736328125 855 m 1
 698.639648438 790.083007812 647.702148438 732 581.591796875 732 c 0
 561.591796875 732 538.943359375 741.5 513.649414062 760.5 c 128
 488.354492188 779.5 467.70703125 789 451.70703125 789 c 0
 427.70703125 789 411.001953125 770 401.591796875 732 c 1
 332.591796875 732 l 1
 347.553710938 796.3359375 398.517578125 855 463.736328125 855 c 0
 483.736328125 855 506.34765625 845.333007812 531.571289062 826 c 128
 556.794921875 806.666992188 577.407226562 797 593.407226562 797 c 0
 617.407226562 797 634.18359375 816.333007812 643.736328125 855 c 1
 713.736328125 855 l 1
575 0 m 1
 539.149414062 203 l 1
 237.149414062 203 l 1
 113 0 l 1
 30 0 l 1
 453.7265625 695 l 1
 549.7265625 695 l 1
 678 0 l 1
 575 0 l 1
474.872070312 611 m 1
 462.8203125 585.666992188 430.705078125 528.666992188 378.524414062 440 c 2
 273.90234375 263 l 1
 526.90234375 263 l 1
 485.678710938 516 l 2
 478.364257812 560 474.762695312 591.666992188 474.872070312 611 c 1
EndSplineSet
Position2: "'cpsp' Capital Spacing lookup 0 subtable" dx=7 dy=1 dh=14 dv=3
EndChar

StartChar: Adieresis
Encoding: 196 196 132
Width: 708
GlyphClass: 2
Flags: HMW
LayerCount: 2
Fore
SplineSet
555.591796875 732 m 1
 573.446289062 816 l 1
 663.446289062 816 l 1
 645.591796875 732 l 1
 555.591796875 732 l 1
373.591796875 732 m 1
 391.446289062 816 l 1
 480.446289062 816 l 1
 462.591796875 732 l 1
 373.591796875 732 l 1
575 0 m 1
 539.149414062 203 l 1
 237.149414062 203 l 1
 113 0 l 1
 30 0 l 1
 453.7265625 695 l 1
 549.7265625 695 l 1
 678 0 l 1
 575 0 l 1
474.872070312 611 m 1
 462.8203125 585.666992188 430.705078125 528.666992188 378.524414062 440 c 2
 273.90234375 263 l 1
 526.90234375 263 l 1
 485.466796875 515 l 2
 478.293945312 559.666992188 474.762695312 591.666992188 474.872070312 611 c 1
EndSplineSet
Position2: "'cpsp' Capital Spacing lookup 0 subtable" dx=7 dy=1 dh=14 dv=3
EndChar

StartChar: Aring
Encoding: 197 197 133
Width: 708
GlyphClass: 2
Flags: HMW
LayerCount: 2
Fore
SplineSet
637.944335938 776 m 128
 626.610351562 722.680664062 556.40625 690 499.1640625 690 c 128
 441.892578125 690 387.615234375 722.705078125 398.944335938 776 c 128
 410.27734375 829.319335938 480.481445312 862 537.723632812 862 c 128
 594.995117188 862 649.272460938 829.294921875 637.944335938 776 c 128
575 0 m 1
 539.149414062 203 l 1
 237.149414062 203 l 1
 113 0 l 1
 30 0 l 1
 453.7265625 695 l 1
 549.7265625 695 l 1
 678 0 l 1
 575 0 l 1
511.716796875 742 m 0
 551.016601562 742 561.971679688 743.198242188 568.944335938 776 c 0
 573.76171875 798.666992188 559.50390625 810 526.170898438 810 c 256
 492.837890625 810 473.76171875 798.666992188 468.944335938 776 c 256
 464.125976562 753.333007812 478.383789062 742 511.716796875 742 c 0
474.872070312 611 m 1
 462.8203125 585.666992188 430.705078125 528.666992188 378.524414062 440 c 2
 273.90234375 263 l 1
 526.90234375 263 l 1
 485.678710938 516 l 2
 478.364257812 560 474.762695312 591.666992188 474.872070312 611 c 1
EndSplineSet
Position2: "'cpsp' Capital Spacing lookup 0 subtable" dx=7 dy=1 dh=14 dv=3
EndChar

StartChar: AE
Encoding: 198 198 134
Width: 915
GlyphClass: 2
Flags: HMW
LayerCount: 2
Fore
SplineSet
731.729492188 74 m 2
 739.03515625 74 762.46484375 75 769.94140625 75 c 2
 882.94140625 75 l 1
 867 0 l 1
 442 0 l 1
 488.762695312 220 l 1
 256.762695312 220 l 1
 115 0 l 1
 30 0 l 1
 478.514648438 694 l 1
 999.514648438 694 l 1
 984.635742188 624 l 1
 821.635742188 624 l 2
 814.135742188 624 791.163085938 625 783.84765625 625 c 2
 672.84765625 625 l 1
 623.53515625 393 l 1
 906.53515625 393 l 1
 892.71875 328 l 1
 609.71875 328 l 1
 555.729492188 74 l 1
 731.729492188 74 l 2
574.84765625 625 m 1
 518.84765625 625 l 1
 296.728515625 281 l 1
 501.728515625 281 l 1
 574.84765625 625 l 1
EndSplineSet
Position2: "'cpsp' Capital Spacing lookup 0 subtable" dx=7 dy=1 dh=14 dv=3
EndChar

StartChar: Ccedilla
Encoding: 199 199 135
Width: 679
GlyphClass: 2
Flags: HMW
LayerCount: 2
Fore
SplineSet
410.111328125 -23 m 0
 310.111328125 -23 235.000976562 13.3330078125 184.780273438 86 c 256
 134.55859375 158.666992188 120.182617188 245.5 141.650390625 346.5 c 256
 163.119140625 447.5 214.076171875 534.333007812 294.521484375 607 c 256
 374.967773438 679.666992188 465.5234375 716 566.190429688 716 c 0
 630.190429688 716 692.639648438 704 753.538085938 680 c 1
 718.258789062 594 l 1
 667.102539062 629.333007812 611.190429688 647 550.524414062 647 c 0
 475.190429688 647 407.318359375 614.666992188 346.90625 550 c 0
 291.911132812 492 256.088867188 423.833007812 239.438476562 345.5 c 256
 222.788085938 267.166992188 230.515625 197.666992188 262.620117188 137 c 256
 294.725585938 76.3330078125 349.111328125 46 425.77734375 46 c 0
 463.77734375 46 497.258789062 49.8330078125 526.221679688 57.5 c 128
 555.184570312 65.1669921875 591.762695312 82 635.956054688 108 c 1
 627.2265625 34 l 1
 584.55078125 12 548.362304688 -3 518.662109375 -11 c 128
 488.9609375 -19 452.778320312 -23 410.111328125 -23 c 0
304.512695312 -214 m 1
 226.512695312 -214 l 1
 343.072265625 -42 l 1
 413.072265625 -42 l 1
 304.512695312 -214 l 1
EndSplineSet
Position2: "'cpsp' Capital Spacing lookup 0 subtable" dx=7 dy=1 dh=14 dv=3
EndChar

StartChar: Egrave
Encoding: 200 200 136
Width: 637
GlyphClass: 2
Flags: HMW
LayerCount: 2
Fore
SplineSet
477.716796875 742 m 1
 289.499023438 868 l 1
 416.499023438 868 l 1
 580.716796875 742 l 1
 477.716796875 742 l 1
211.94140625 75 m 1
 316.751953125 75 393.587890625 76 466.154296875 76 c 2
 601.154296875 76 l 1
 585 0 l 1
 97 0 l 1
 244.088867188 692 l 1
 718.088867188 692 l 1
 703.209960938 622 l 1
 508.209960938 622 l 2
 501.688476562 622 476.936523438 623 470.422851562 623 c 2
 328.422851562 623 l 1
 279.53515625 393 l 1
 625.53515625 393 l 1
 611.505859375 327 l 1
 265.505859375 327 l 1
 211.94140625 75 l 1
EndSplineSet
Position2: "'cpsp' Capital Spacing lookup 0 subtable" dx=7 dy=1 dh=14 dv=3
EndChar

StartChar: Eacute
Encoding: 201 201 137
Width: 637
GlyphClass: 2
Flags: HMW
LayerCount: 2
Fore
SplineSet
466.716796875 742 m 1
 364.716796875 742 l 1
 582.499023438 868 l 1
 709.499023438 868 l 1
 466.716796875 742 l 1
211.94140625 75 m 1
 316.751953125 75 393.587890625 76 466.154296875 76 c 2
 601.154296875 76 l 1
 585 0 l 1
 97 0 l 1
 244.088867188 692 l 1
 718.088867188 692 l 1
 703.209960938 622 l 1
 508.209960938 622 l 2
 501.688476562 622 476.936523438 623 470.422851562 623 c 2
 328.422851562 623 l 1
 279.53515625 393 l 1
 625.53515625 393 l 1
 611.505859375 327 l 1
 265.505859375 327 l 1
 211.94140625 75 l 1
EndSplineSet
Position2: "'cpsp' Capital Spacing lookup 0 subtable" dx=7 dy=1 dh=14 dv=3
EndChar

StartChar: Ecircumflex
Encoding: 202 202 138
Width: 637
GlyphClass: 2
Flags: HMW
LayerCount: 2
Fore
SplineSet
571.591796875 732 m 1
 490.784179688 827 l 1
 369.591796875 732 l 1
 300.591796875 732 l 1
 466.923828125 870 l 1
 532.923828125 870 l 1
 640.591796875 732 l 1
 571.591796875 732 l 1
211.94140625 75 m 1
 316.751953125 75 393.587890625 76 466.154296875 76 c 2
 601.154296875 76 l 1
 585 0 l 1
 97 0 l 1
 244.088867188 692 l 1
 718.088867188 692 l 1
 703.209960938 622 l 1
 508.209960938 622 l 2
 501.688476562 622 476.936523438 623 470.422851562 623 c 2
 328.422851562 623 l 1
 279.53515625 393 l 1
 625.53515625 393 l 1
 611.505859375 327 l 1
 265.505859375 327 l 1
 211.94140625 75 l 1
EndSplineSet
Position2: "'cpsp' Capital Spacing lookup 0 subtable" dx=7 dy=1 dh=14 dv=3
EndChar

StartChar: Edieresis
Encoding: 203 203 139
Width: 637
GlyphClass: 2
Flags: HMW
LayerCount: 2
Fore
SplineSet
517.591796875 732 m 1
 535.446289062 816 l 1
 624.446289062 816 l 1
 606.591796875 732 l 1
 517.591796875 732 l 1
334.591796875 732 m 1
 352.446289062 816 l 1
 441.446289062 816 l 1
 423.591796875 732 l 1
 334.591796875 732 l 1
211.94140625 75 m 1
 316.751953125 75 393.587890625 76 466.154296875 76 c 2
 601.154296875 76 l 1
 585 0 l 1
 97 0 l 1
 244.088867188 692 l 1
 718.088867188 692 l 1
 703.209960938 622 l 1
 508.209960938 622 l 2
 501.688476562 622 476.936523438 623 470.422851562 623 c 2
 328.422851562 623 l 1
 279.53515625 393 l 1
 625.53515625 393 l 1
 611.505859375 327 l 1
 265.505859375 327 l 1
 211.94140625 75 l 1
EndSplineSet
Position2: "'cpsp' Capital Spacing lookup 0 subtable" dx=7 dy=1 dh=14 dv=3
EndChar

StartChar: Igrave
Encoding: 204 204 140
Width: 295
GlyphClass: 2
Flags: HMW
LayerCount: 2
Fore
SplineSet
284.716796875 742 m 1
 96.4990234375 868 l 1
 222.499023438 868 l 1
 387.716796875 742 l 1
 284.716796875 742 l 1
125 0 m 1
 272.7265625 695 l 1
 371.7265625 695 l 1
 224 0 l 1
 125 0 l 1
EndSplineSet
Position2: "'cpsp' Capital Spacing lookup 0 subtable" dx=7 dy=1 dh=14 dv=3
EndChar

StartChar: Iacute
Encoding: 205 205 141
Width: 295
GlyphClass: 2
Flags: HMW
LayerCount: 2
Fore
SplineSet
357.716796875 742 m 1
 254.716796875 742 l 1
 473.499023438 868 l 1
 599.499023438 868 l 1
 357.716796875 742 l 1
103 0 m 1
 250.7265625 695 l 1
 349.7265625 695 l 1
 202 0 l 1
 103 0 l 1
EndSplineSet
Position2: "'cpsp' Capital Spacing lookup 0 subtable" dx=7 dy=1 dh=14 dv=3
EndChar

StartChar: Icircumflex
Encoding: 206 206 142
Width: 295
GlyphClass: 2
Flags: HMW
LayerCount: 2
Fore
SplineSet
418.591796875 732 m 1
 337.784179688 827 l 1
 216.591796875 732 l 1
 147.591796875 732 l 1
 313.923828125 870 l 1
 379.923828125 870 l 1
 487.591796875 732 l 1
 418.591796875 732 l 1
112 0 m 1
 259.7265625 695 l 1
 358.7265625 695 l 1
 211 0 l 1
 112 0 l 1
EndSplineSet
Position2: "'cpsp' Capital Spacing lookup 0 subtable" dx=7 dy=1 dh=14 dv=3
EndChar

StartChar: Idieresis
Encoding: 207 207 143
Width: 295
GlyphClass: 2
Flags: HMW
LayerCount: 2
Fore
SplineSet
342.591796875 732 m 1
 360.446289062 816 l 1
 449.446289062 816 l 1
 431.591796875 732 l 1
 342.591796875 732 l 1
159.591796875 732 m 1
 177.446289062 816 l 1
 266.446289062 816 l 1
 248.591796875 732 l 1
 159.591796875 732 l 1
90 0 m 1
 237.7265625 695 l 1
 336.7265625 695 l 1
 189 0 l 1
 90 0 l 1
EndSplineSet
Position2: "'cpsp' Capital Spacing lookup 0 subtable" dx=7 dy=1 dh=14 dv=3
EndChar

StartChar: Eth
Encoding: 208 208 144
Width: 767
GlyphClass: 2
Flags: HMW
CounterMasks: 1 e0
LayerCount: 2
Fore
SplineSet
373 0 m 2
 94 0 l 1
 160.530273438 313 l 1
 78.5302734375 313 l 1
 92.984375 381 l 1
 174.984375 381 l 1
 241.514648438 694 l 1
 519.514648438 694 l 2
 612.84765625 694 682.872070312 658.833007812 729.58984375 588.5 c 256
 776.306640625 518.166992188 789.674804688 436 769.694335938 342 c 256
 749.713867188 248 701.603515625 167.5 625.362304688 100.5 c 256
 549.12109375 33.5 465 0 373 0 c 2
482.547851562 633 m 2
 324.547851562 633 l 1
 270.984375 381 l 1
 376.984375 381 l 1
 362.530273438 313 l 1
 256.530273438 313 l 1
 202.965820312 61 l 1
 360.965820312 61 l 2
 438.298828125 61 505.538085938 88 562.682617188 142 c 256
 619.828125 196 656.8671875 262.833007812 673.80078125 342.5 c 256
 690.734375 422.166992188 682.758789062 490.5 649.875 547.5 c 256
 616.990234375 604.5 561.21484375 633 482.547851562 633 c 2
EndSplineSet
Position2: "'cpsp' Capital Spacing lookup 0 subtable" dx=7 dy=1 dh=14 dv=3
EndChar

StartChar: Ntilde
Encoding: 209 209 145
Width: 750
GlyphClass: 2
Flags: HMW
LayerCount: 2
Fore
SplineSet
733.736328125 855 m 1
 718.639648438 790.083007812 667.702148438 732 601.591796875 732 c 0
 581.591796875 732 558.943359375 741.5 533.649414062 760.5 c 256
 508.354492188 779.5 487.70703125 789 471.70703125 789 c 0
 447.70703125 789 431.001953125 770 421.591796875 732 c 1
 352.591796875 732 l 1
 367.553710938 796.3359375 418.517578125 855 483.736328125 855 c 0
 503.736328125 855 526.34765625 845.333007812 551.571289062 826 c 256
 576.794921875 806.666992188 597.407226562 797 613.407226562 797 c 0
 637.407226562 797 654.18359375 816.333007812 663.736328125 855 c 1
 733.736328125 855 l 1
576.4296875 82 m 1
 706.7265625 695 l 1
 793.7265625 695 l 1
 646 0 l 1
 512 0 l 1
 317.296875 613 l 1
 187 0 l 1
 100 0 l 1
 247.7265625 695 l 1
 382.7265625 695 l 1
 576.4296875 82 l 1
EndSplineSet
Position2: "'cpsp' Capital Spacing lookup 0 subtable" dx=7 dy=1 dh=14 dv=3
EndChar

StartChar: Ograve
Encoding: 210 210 146
Width: 785
GlyphClass: 2
Flags: HMW
LayerCount: 2
Fore
SplineSet
552.716796875 742 m 1
 364.499023438 868 l 1
 490.499023438 868 l 1
 654.716796875 742 l 1
 552.716796875 742 l 1
792.33203125 345 m 0
 771.643554688 247.666992188 722.302734375 162.166992188 644.311523438 88.5 c 128
 566.3203125 14.8330078125 479.491210938 -22 383.82421875 -22 c 128
 288.157226562 -22 217.188476562 15 170.91796875 89 c 128
 124.646484375 163 111.890625 248.833007812 132.650390625 346.5 c 128
 153.41015625 444.166992188 202.725585938 530.333007812 280.596679688 605 c 128
 358.467773438 679.666992188 443.736328125 717 536.403320312 717 c 128
 629.0703125 717 700.41796875 681 750.447265625 609 c 0
 784.486328125 559 803.325195312 514.333007812 806.96484375 475 c 0
 810.104492188 449 805.227539062 405.666992188 792.33203125 345 c 0
679.96875 555 m 0
 649.147460938 617 597.903320312 648 526.236328125 648 c 128
 454.569335938 648 390.48046875 617 333.96875 555 c 0
 283.540039062 499.666992188 250.213867188 433.833007812 233.989257812 357.5 c 128
 217.763671875 281.166992188 221.607421875 213 245.521484375 153 c 0
 273.975585938 83 325.203125 48 399.203125 48 c 256
 473.203125 48 539.309570312 83 597.521484375 153 c 0
 646.94140625 213 679.798828125 281.333007812 696.095703125 358 c 128
 712.391601562 434.666992188 707.015625 500.333007812 679.96875 555 c 0
EndSplineSet
Position2: "'cpsp' Capital Spacing lookup 0 subtable" dx=7 dy=1 dh=14 dv=3
EndChar

StartChar: Oacute
Encoding: 211 211 147
Width: 785
GlyphClass: 2
Flags: HMW
LayerCount: 2
Fore
SplineSet
541.716796875 742 m 1
 438.716796875 742 l 1
 657.499023438 868 l 1
 783.499023438 868 l 1
 541.716796875 742 l 1
792.33203125 345 m 0
 771.643554688 247.666992188 722.302734375 162.166992188 644.311523438 88.5 c 128
 566.3203125 14.8330078125 479.491210938 -22 383.82421875 -22 c 128
 288.157226562 -22 217.188476562 15 170.91796875 89 c 128
 124.646484375 163 111.890625 248.833007812 132.650390625 346.5 c 128
 153.41015625 444.166992188 202.725585938 530.333007812 280.596679688 605 c 128
 358.467773438 679.666992188 443.736328125 717 536.403320312 717 c 128
 629.0703125 717 700.41796875 681 750.447265625 609 c 0
 784.486328125 559 803.325195312 514.333007812 806.96484375 475 c 0
 810.104492188 449 805.227539062 405.666992188 792.33203125 345 c 0
679.96875 555 m 0
 649.147460938 617 597.903320312 648 526.236328125 648 c 128
 454.569335938 648 390.48046875 617 333.96875 555 c 0
 283.540039062 499.666992188 250.213867188 433.833007812 233.989257812 357.5 c 128
 217.763671875 281.166992188 221.607421875 213 245.521484375 153 c 0
 273.975585938 83 325.203125 48 399.203125 48 c 256
 473.203125 48 539.309570312 83 597.521484375 153 c 0
 646.94140625 213 679.798828125 281.333007812 696.095703125 358 c 128
 712.391601562 434.666992188 707.015625 500.333007812 679.96875 555 c 0
EndSplineSet
Position2: "'cpsp' Capital Spacing lookup 0 subtable" dx=7 dy=1 dh=14 dv=3
EndChar

StartChar: Ocircumflex
Encoding: 212 212 148
Width: 785
GlyphClass: 2
Flags: HMW
LayerCount: 2
Fore
SplineSet
645.591796875 732 m 1
 564.784179688 827 l 1
 444.591796875 732 l 1
 375.591796875 732 l 1
 541.923828125 870 l 1
 606.923828125 870 l 1
 714.591796875 732 l 1
 645.591796875 732 l 1
792.33203125 345 m 0
 771.643554688 247.666992188 722.302734375 162.166992188 644.311523438 88.5 c 128
 566.3203125 14.8330078125 479.491210938 -22 383.82421875 -22 c 128
 288.157226562 -22 217.188476562 15 170.91796875 89 c 128
 124.646484375 163 111.890625 248.833007812 132.650390625 346.5 c 128
 153.41015625 444.166992188 202.725585938 530.333007812 280.596679688 605 c 128
 358.467773438 679.666992188 443.736328125 717 536.403320312 717 c 128
 629.0703125 717 700.41796875 681 750.447265625 609 c 0
 784.486328125 559 803.325195312 514.333007812 806.96484375 475 c 0
 810.104492188 449 805.227539062 405.666992188 792.33203125 345 c 0
679.96875 555 m 0
 649.147460938 617 597.903320312 648 526.236328125 648 c 128
 454.569335938 648 390.48046875 617 333.96875 555 c 0
 283.540039062 499.666992188 250.213867188 433.833007812 233.989257812 357.5 c 128
 217.763671875 281.166992188 221.607421875 213 245.521484375 153 c 0
 273.975585938 83 325.203125 48 399.203125 48 c 256
 473.203125 48 539.309570312 83 597.521484375 153 c 0
 646.94140625 213 679.798828125 281.333007812 696.095703125 358 c 128
 712.391601562 434.666992188 707.015625 500.333007812 679.96875 555 c 0
EndSplineSet
Position2: "'cpsp' Capital Spacing lookup 0 subtable" dx=7 dy=1 dh=14 dv=3
EndChar

StartChar: Otilde
Encoding: 213 213 149
Width: 785
GlyphClass: 2
Flags: HMW
LayerCount: 2
Fore
SplineSet
748.736328125 855 m 1
 733.7734375 790.6640625 682.810546875 732 617.591796875 732 c 0
 597.591796875 732 574.943359375 741.5 549.649414062 760.5 c 128
 524.354492188 779.5 503.70703125 789 487.70703125 789 c 0
 463.70703125 789 447.001953125 770 437.591796875 732 c 1
 367.591796875 732 l 1
 382.5546875 796.342773438 434.533203125 855 499.736328125 855 c 0
 519.736328125 855 542.34765625 845.333007812 567.571289062 826 c 128
 592.794921875 806.666992188 613.407226562 797 629.407226562 797 c 0
 653.407226562 797 670.18359375 816.333007812 679.736328125 855 c 1
 748.736328125 855 l 1
792.33203125 345 m 0
 771.643554688 247.666992188 722.302734375 162.166992188 644.311523438 88.5 c 128
 566.3203125 14.8330078125 479.491210938 -22 383.82421875 -22 c 128
 288.157226562 -22 217.188476562 15 170.91796875 89 c 128
 124.646484375 163 111.890625 248.833007812 132.650390625 346.5 c 128
 153.41015625 444.166992188 202.725585938 530.333007812 280.596679688 605 c 128
 358.467773438 679.666992188 443.736328125 717 536.403320312 717 c 128
 629.0703125 717 700.41796875 681 750.447265625 609 c 0
 784.486328125 559 803.325195312 514.333007812 806.96484375 475 c 0
 810.104492188 449 805.227539062 405.666992188 792.33203125 345 c 0
679.96875 555 m 0
 649.147460938 617 597.903320312 648 526.236328125 648 c 128
 454.569335938 648 390.48046875 617 333.96875 555 c 0
 283.540039062 499.666992188 250.213867188 433.833007812 233.989257812 357.5 c 128
 217.763671875 281.166992188 221.607421875 213 245.521484375 153 c 0
 273.975585938 83 325.203125 48 399.203125 48 c 256
 473.203125 48 539.309570312 83 597.521484375 153 c 0
 646.94140625 213 679.798828125 281.333007812 696.095703125 358 c 128
 712.391601562 434.666992188 707.015625 500.333007812 679.96875 555 c 0
EndSplineSet
Position2: "'cpsp' Capital Spacing lookup 0 subtable" dx=7 dy=1 dh=14 dv=3
EndChar

StartChar: Odieresis
Encoding: 214 214 150
Width: 785
GlyphClass: 2
Flags: HMW
LayerCount: 2
Fore
SplineSet
591.591796875 732 m 1
 609.446289062 816 l 1
 698.446289062 816 l 1
 680.591796875 732 l 1
 591.591796875 732 l 1
408.591796875 732 m 1
 426.446289062 816 l 1
 516.446289062 816 l 1
 498.591796875 732 l 1
 408.591796875 732 l 1
792.33203125 345 m 0
 771.643554688 247.666992188 722.302734375 162.166992188 644.311523438 88.5 c 128
 566.3203125 14.8330078125 479.491210938 -22 383.82421875 -22 c 128
 288.157226562 -22 216.734375 16 169.555664062 92 c 0
 124.05078125 163.333007812 111.678710938 247.833007812 132.438476562 345.5 c 128
 153.198242188 443.166992188 202.548828125 529.5 280.490234375 604.5 c 128
 358.432617188 679.5 443.736328125 717 536.403320312 717 c 128
 629.0703125 717 700.34765625 680.666992188 750.234375 608 c 0
 784.415039062 558.666992188 803.325195312 514.333007812 806.96484375 475 c 0
 810.104492188 449 805.227539062 405.666992188 792.33203125 345 c 0
679.96875 555 m 0
 649.147460938 617 597.903320312 648 526.236328125 648 c 128
 454.569335938 648 390.48046875 617 333.96875 555 c 0
 283.540039062 499.666992188 250.178710938 433.666992188 233.8828125 357 c 128
 217.586914062 280.333007812 221.465820312 212.333007812 245.521484375 153 c 0
 273.975585938 83 325.203125 48 399.203125 48 c 256
 473.203125 48 539.309570312 83 597.521484375 153 c 0
 646.94140625 213 679.798828125 281.333007812 696.095703125 358 c 128
 712.391601562 434.666992188 707.015625 500.333007812 679.96875 555 c 0
EndSplineSet
Position2: "'cpsp' Capital Spacing lookup 0 subtable" dx=7 dy=1 dh=14 dv=3
EndChar

StartChar: multiply
Encoding: 215 215 151
Width: 826
GlyphClass: 2
Flags: W
LayerCount: 2
Fore
SplineSet
622.313476562 25 m 2
 457.549804688 219 l 1
 210.313476562 25 l 2
 198.188476562 15 187.79296875 10 179.125976562 10 c 0
 164.458984375 10 158.471679688 16.3330078125 161.1640625 29 c 0
 162.581054688 35.6669921875 170.161132812 44.6669921875 183.903320312 56 c 2
 431.138671875 250 l 1
 266.375 444 l 2
 257.309570312 454.666992188 253.625976562 464 255.327148438 472 c 0
 258.01953125 484.666992188 266.698242188 491 281.365234375 491 c 0
 290.032226562 491 298.302734375 486 306.176757812 476 c 2
 470.94140625 282 l 1
 716.96484375 475 l 2
 729.756835938 485 740.485351562 490 749.15234375 490 c 0
 763.15234375 490 768.876953125 484 766.327148438 472 c 0
 764.625976562 464 757.309570312 454.666992188 744.375 444 c 2
 498.138671875 250 l 1
 662.903320312 56 l 2
 670.77734375 46 673.864257812 37 672.1640625 29 c 0
 669.471679688 16.3330078125 661.458984375 10 648.125976562 10 c 0
 639.458984375 10 630.85546875 15 622.313476562 25 c 2
EndSplineSet
EndChar

StartChar: Oslash
Encoding: 216 216 152
Width: 826
GlyphClass: 2
Flags: HMW
LayerCount: 2
Fore
SplineSet
764.185546875 636 m 1
 826.302734375 576.40625 863.147460938 471.158203125 836.33203125 345 c 0
 814.934570312 244.333007812 762.750976562 158 679.780273438 86 c 256
 596.80859375 14 505.32421875 -22 405.32421875 -22 c 0
 351.32421875 -22 301.158203125 -8.6669921875 254.826171875 18 c 1
 185.971679688 -66 l 1
 131.198242188 -32 l 1
 204.328125 58 l 1
 131.532226562 132.666992188 107.533203125 228.333007812 132.33203125 345 c 0
 153.729492188 445.666992188 206.0546875 532.666992188 289.309570312 606 c 128
 372.563476562 679.333007812 463.857421875 716 563.190429688 716 c 0
 615.190429688 716 665.689453125 702.666992188 714.688476562 676 c 1
 783.54296875 760 l 1
 838.31640625 726 l 1
 764.185546875 636 l 1
710.157226562 570 m 1
 304.3671875 77 l 1
 338.881835938 54.3330078125 377.47265625 43 420.139648438 43 c 0
 500.139648438 43 569.314453125 72.8330078125 627.6640625 132.5 c 256
 686.013671875 192.166992188 724.504882812 265.833007812 743.138671875 353.5 c 256
 761.772460938 441.166992188 750.779296875 513.333007812 710.157226562 570 c 1
548.374023438 651 m 0
 469.041015625 651 400.05859375 620.5 341.42578125 559.5 c 256
 282.791992188 498.5 244.30078125 424.833007812 225.950195312 338.5 c 256
 207.599609375 252.166992188 217.998046875 180.333007812 257.14453125 123 c 1
 664.934570312 616 l 1
 629.227539062 639.333007812 590.374023438 651 548.374023438 651 c 0
EndSplineSet
Position2: "'cpsp' Capital Spacing lookup 0 subtable" dx=7 dy=1 dh=14 dv=3
EndChar

StartChar: Ugrave
Encoding: 217 217 153
Width: 729
GlyphClass: 2
Flags: HMW
LayerCount: 2
Fore
SplineSet
525.716796875 742 m 1
 336.499023438 868 l 1
 463.499023438 868 l 1
 627.716796875 742 l 1
 525.716796875 742 l 1
359.32421875 -22 m 256
 285.991210938 -22 228.364257812 2.5 186.446289062 51.5 c 256
 144.529296875 100.5 131.291992188 161.333007812 146.73828125 234 c 2
 244.7265625 695 l 1
 343.7265625 695 l 1
 245.525390625 233 l 2
 233.90625 178.333007812 238.9609375 132.333007812 260.693359375 95 c 256
 282.424804688 57.6669921875 320.123046875 39 373.790039062 39 c 256
 427.45703125 39 473.7578125 57.6669921875 512.693359375 95 c 256
 551.627929688 132.333007812 576.90625 178.333007812 588.525390625 233 c 2
 686.7265625 695 l 1
 773.7265625 695 l 1
 675.73828125 234 l 2
 660.291992188 161.333007812 622.029296875 100.5 560.946289062 51.5 c 128
 499.864257812 2.5 432.657226562 -22 359.32421875 -22 c 256
EndSplineSet
Position2: "'cpsp' Capital Spacing lookup 0 subtable" dx=7 dy=1 dh=14 dv=3
EndChar

StartChar: Uacute
Encoding: 218 218 154
Width: 729
GlyphClass: 2
Flags: HMW
LayerCount: 2
Fore
SplineSet
514.716796875 742 m 1
 411.716796875 742 l 1
 629.499023438 868 l 1
 756.499023438 868 l 1
 514.716796875 742 l 1
359.32421875 -22 m 256
 285.991210938 -22 228.364257812 2.5 186.446289062 51.5 c 256
 144.529296875 100.5 131.291992188 161.333007812 146.73828125 234 c 2
 244.7265625 695 l 1
 343.7265625 695 l 1
 245.525390625 233 l 2
 233.90625 178.333007812 238.9609375 132.333007812 260.693359375 95 c 256
 282.424804688 57.6669921875 320.123046875 39 373.790039062 39 c 256
 427.45703125 39 473.7578125 57.6669921875 512.693359375 95 c 256
 551.627929688 132.333007812 576.90625 178.333007812 588.525390625 233 c 2
 686.7265625 695 l 1
 773.7265625 695 l 1
 675.73828125 234 l 2
 660.291992188 161.333007812 622.029296875 100.5 560.946289062 51.5 c 128
 499.864257812 2.5 432.657226562 -22 359.32421875 -22 c 256
EndSplineSet
Position2: "'cpsp' Capital Spacing lookup 0 subtable" dx=7 dy=1 dh=14 dv=3
EndChar

StartChar: Ucircumflex
Encoding: 219 219 155
Width: 729
GlyphClass: 2
Flags: HMW
LayerCount: 2
Fore
SplineSet
618.591796875 732 m 1
 537.784179688 827 l 1
 416.591796875 732 l 1
 347.591796875 732 l 1
 514.923828125 870 l 1
 579.923828125 870 l 1
 687.591796875 732 l 1
 618.591796875 732 l 1
359.32421875 -22 m 256
 285.991210938 -22 228.364257812 2.5 186.446289062 51.5 c 256
 144.529296875 100.5 131.291992188 161.333007812 146.73828125 234 c 2
 244.7265625 695 l 1
 343.7265625 695 l 1
 245.525390625 233 l 2
 233.90625 178.333007812 238.9609375 132.333007812 260.693359375 95 c 256
 282.424804688 57.6669921875 320.123046875 39 373.790039062 39 c 256
 427.45703125 39 473.7578125 57.6669921875 512.693359375 95 c 256
 551.627929688 132.333007812 576.90625 178.333007812 588.525390625 233 c 2
 686.7265625 695 l 1
 773.7265625 695 l 1
 675.73828125 234 l 2
 660.291992188 161.333007812 622.029296875 100.5 560.946289062 51.5 c 128
 499.864257812 2.5 432.657226562 -22 359.32421875 -22 c 256
EndSplineSet
Position2: "'cpsp' Capital Spacing lookup 0 subtable" dx=7 dy=1 dh=14 dv=3
EndChar

StartChar: Udieresis
Encoding: 220 220 156
Width: 729
GlyphClass: 2
Flags: HMW
LayerCount: 2
Fore
SplineSet
564.591796875 732 m 1
 582.446289062 816 l 1
 671.446289062 816 l 1
 653.591796875 732 l 1
 564.591796875 732 l 1
381.591796875 732 m 1
 399.446289062 816 l 1
 488.446289062 816 l 1
 470.591796875 732 l 1
 381.591796875 732 l 1
560.446289062 51.5 m 128
 499.03125 2.5 431.82421875 -22 358.82421875 -22 c 128
 285.82421875 -22 228.364257812 2.5 186.446289062 51.5 c 128
 144.529296875 100.5 131.291992188 161.333007812 146.73828125 234 c 2
 244.7265625 695 l 1
 343.7265625 695 l 1
 245.525390625 233 l 2
 233.90625 178.333007812 238.9609375 132.333007812 260.693359375 95 c 128
 282.424804688 57.6669921875 320.123046875 39 373.790039062 39 c 128
 427.45703125 39 473.7578125 57.6669921875 512.693359375 95 c 128
 551.627929688 132.333007812 576.90625 178.333007812 588.525390625 233 c 2
 686.7265625 695 l 1
 773.7265625 695 l 1
 675.73828125 234 l 2
 660.291992188 161.333007812 621.862304688 100.5 560.446289062 51.5 c 128
EndSplineSet
Position2: "'cpsp' Capital Spacing lookup 0 subtable" dx=7 dy=1 dh=14 dv=3
EndChar

StartChar: Yacute
Encoding: 221 221 157
Width: 708
GlyphClass: 2
Flags: HMW
LayerCount: 2
Fore
SplineSet
506.716796875 742 m 1
 404.716796875 742 l 1
 622.499023438 868 l 1
 748.499023438 868 l 1
 506.716796875 742 l 1
460.877929688 277 m 1
 402 0 l 1
 307 0 l 1
 366.090820312 278 l 1
 150.7265625 695 l 1
 267.7265625 695 l 1
 414.297851562 406 l 2
 419.888671875 394.666992188 428.063476562 376.666992188 438.8203125 352 c 1
 520.162109375 443 l 2
 531.522460938 455.666992188 609.709960938 539.666992188 754.7265625 695 c 1
 853.7265625 695 l 1
 460.877929688 277 l 1
EndSplineSet
Position2: "'cpsp' Capital Spacing lookup 0 subtable" dx=7 dy=1 dh=14 dv=3
EndChar

StartChar: Thorn
Encoding: 222 222 158
Width: 620
GlyphClass: 2
Flags: HMW
LayerCount: 2
Fore
SplineSet
636.49609375 374 m 0
 626.860351562 328.666992188 598.709960938 284.833007812 552.044921875 242.5 c 128
 505.379882812 200.166992188 440.71484375 179 358.047851562 179 c 2
 231.047851562 179 l 1
 193 0 l 1
 100 0 l 1
 247.514648438 694 l 1
 340.514648438 694 l 1
 313.732421875 568 l 1
 448.732421875 568 l 2
 508.732421875 568 558.143554688 550.333007812 596.966796875 515 c 128
 635.7890625 479.666992188 648.965820312 432.666992188 636.49609375 374 c 0
390.766601562 507 m 2
 300.766601562 507 l 1
 243.80078125 239 l 1
 341.80078125 239 l 2
 407.80078125 239 456.857421875 254.166992188 488.97265625 284.5 c 128
 521.086914062 314.833007812 540.190429688 344.333007812 546.283203125 373 c 0
 555.494140625 416.333007812 543.543945312 449.5 510.432617188 472.5 c 128
 477.321289062 495.5 437.43359375 507 390.766601562 507 c 2
EndSplineSet
Position2: "'cpsp' Capital Spacing lookup 0 subtable" dx=7 dy=1 dh=14 dv=3
EndChar

StartChar: germandbls
Encoding: 223 223 159
Width: 510
GlyphClass: 2
Flags: HMW
LayerCount: 2
Fore
SplineSet
438.1484375 410 m 1
 500.942382812 366.815429688 539.6875 285.513671875 516.41015625 176 c 128
 505.782226562 126 478.5 82.3330078125 434.565429688 45 c 128
 390.629882812 7.6669921875 342.329101562 -11 289.662109375 -11 c 0
 260.995117188 -11 238.466796875 -8 222.075195312 -2 c 128
 205.68359375 4 197.841796875 8.6669921875 198.55078125 12 c 1
 233.87890625 70 l 1
 256.419921875 60 279.357421875 55 302.690429688 55 c 0
 368.319335938 55 416.723632812 111.612304688 431.259765625 180 c 0
 442.879882812 234.666992188 437.798828125 281.333007812 416.018554688 320 c 128
 394.237304688 358.666992188 356.821289062 378.666992188 303.771484375 380 c 1
 317.799804688 446 l 1
 355.942382812 446.666992188 390.99609375 456.333007812 422.96484375 475 c 128
 454.932617188 493.666992188 474.8125 521.333007812 482.606445312 558 c 0
 488.1328125 584 482.883789062 604 466.860351562 618 c 128
 450.8359375 632 431.490234375 639 408.823242188 639 c 0
 339.490234375 639 298.517578125 609.333007812 285.90625 550 c 2
 169 0 l 1
 85 0 l 1
 202.119140625 551 l 2
 212.1796875 598.333007812 238.317382812 635.833007812 280.53125 663.5 c 128
 322.745117188 691.166992188 367.685546875 705 415.352539062 705 c 128
 463.01953125 705 502.815429688 691.5 534.744140625 664.5 c 128
 566.671875 637.5 577.888671875 601.666992188 568.393554688 557 c 0
 555.499023438 496.333007812 512.083984375 447.333007812 438.1484375 410 c 1
EndSplineSet
Substitution2: "'smcp' Lowercase to Small Capitals lookup 16 subtable" Germandbls.sc
EndChar

StartChar: agrave
Encoding: 224 224 160
Width: 510
GlyphClass: 2
Flags: HMW
LayerCount: 2
Fore
SplineSet
372.166992188 523 m 1
 246.514648438 694 l 1
 335.514648438 694 l 1
 443.166992188 523 l 1
 372.166992188 523 l 1
349.9140625 463 m 256
 455.165039062 463 516.451171875 392.607421875 494.428710938 289 c 2
 433 0 l 1
 349 0 l 1
 356.014648438 33 l 1
 307.112304688 3.6669921875 246.662109375 -11 174.662109375 -11 c 0
 103.893554688 -11 64.3544921875 44.009765625 79.4443359375 115 c 0
 90.072265625 165 136.461914062 201.333007812 218.612304688 224 c 0
 271.063476562 238.666992188 331.09765625 246.666992188 398.713867188 248 c 1
 407.215820312 288 l 2
 419.6015625 346.26953125 399.987304688 399 341.810546875 399 c 0
 285.810546875 399 228.458984375 381.666992188 169.756835938 347 c 1
 179.061523438 419 l 1
 238.62890625 448.333007812 295.581054688 463 349.9140625 463 c 256
386.810546875 192 m 1
 245.393554688 185.333007812 170.080078125 160.333007812 160.869140625 117 c 0
 156.334960938 95.6669921875 163.004882812 80 180.87890625 70 c 256
 198.752929688 60 219.357421875 55 242.690429688 55 c 0
 319.357421875 55 363.216796875 81 374.270507812 133 c 2
 386.810546875 192 l 1
EndSplineSet
Substitution2: "'smcp' Lowercase to Small Capitals lookup 16 subtable" Agrave.sc
EndChar

StartChar: aacute
Encoding: 225 225 161
Width: 510
GlyphClass: 2
Flags: HMW
LayerCount: 2
Fore
SplineSet
356.166992188 523 m 1
 285.166992188 523 l 1
 465.514648438 694 l 1
 554.514648438 694 l 1
 356.166992188 523 l 1
349.9140625 463 m 256
 455.165039062 463 516.451171875 392.607421875 494.428710938 289 c 2
 433 0 l 1
 349 0 l 1
 356.014648438 33 l 1
 307.112304688 3.6669921875 246.662109375 -11 174.662109375 -11 c 0
 103.893554688 -11 64.3544921875 44.009765625 79.4443359375 115 c 0
 90.072265625 165 136.461914062 201.333007812 218.612304688 224 c 0
 271.063476562 238.666992188 331.09765625 246.666992188 398.713867188 248 c 1
 407.215820312 288 l 2
 419.6015625 346.26953125 399.987304688 399 341.810546875 399 c 0
 285.810546875 399 228.458984375 381.666992188 169.756835938 347 c 1
 179.061523438 419 l 1
 238.62890625 448.333007812 295.581054688 463 349.9140625 463 c 256
386.810546875 192 m 1
 245.393554688 185.333007812 170.080078125 160.333007812 160.869140625 117 c 0
 156.334960938 95.6669921875 163.004882812 80 180.87890625 70 c 256
 198.752929688 60 219.357421875 55 242.690429688 55 c 0
 319.357421875 55 363.216796875 81 374.270507812 133 c 2
 386.810546875 192 l 1
EndSplineSet
Substitution2: "'smcp' Lowercase to Small Capitals lookup 16 subtable" Aacute.sc
EndChar

StartChar: acircumflex
Encoding: 226 226 162
Width: 510
GlyphClass: 2
Flags: HMW
LayerCount: 2
Fore
SplineSet
463.7421875 521 m 1
 389.4609375 642 l 1
 263.7421875 521 l 1
 195.7421875 521 l 1
 368.15234375 697 l 1
 434.15234375 697 l 1
 531.7421875 521 l 1
 463.7421875 521 l 1
349.9140625 463 m 256
 455.165039062 463 516.451171875 392.607421875 494.428710938 289 c 2
 433 0 l 1
 349 0 l 1
 356.014648438 33 l 1
 307.112304688 3.6669921875 246.662109375 -11 174.662109375 -11 c 0
 103.893554688 -11 64.3544921875 44.009765625 79.4443359375 115 c 0
 90.072265625 165 136.461914062 201.333007812 218.612304688 224 c 0
 271.063476562 238.666992188 331.09765625 246.666992188 398.713867188 248 c 1
 407.215820312 288 l 2
 419.6015625 346.26953125 399.987304688 399 341.810546875 399 c 0
 285.810546875 399 228.458984375 381.666992188 169.756835938 347 c 1
 179.061523438 419 l 1
 238.62890625 448.333007812 295.581054688 463 349.9140625 463 c 256
386.810546875 192 m 1
 245.393554688 185.333007812 170.080078125 160.333007812 160.869140625 117 c 0
 156.334960938 95.6669921875 163.004882812 80 180.87890625 70 c 256
 198.752929688 60 219.357421875 55 242.690429688 55 c 0
 319.357421875 55 363.216796875 81 374.270507812 133 c 2
 386.810546875 192 l 1
EndSplineSet
Substitution2: "'smcp' Lowercase to Small Capitals lookup 16 subtable" Acircumflex.sc
EndChar

StartChar: atilde
Encoding: 227 227 163
Width: 510
GlyphClass: 2
Flags: HMW
LayerCount: 2
Fore
SplineSet
573.413085938 670 m 1
 558.31640625 605.083007812 507.37890625 547 441.268554688 547 c 0
 421.268554688 547 398.62109375 556.5 373.326171875 575.5 c 256
 348.032226562 594.5 327.716796875 604 312.383789062 604 c 0
 287.716796875 604 270.678710938 585 261.268554688 547 c 1
 192.268554688 547 l 1
 207.365234375 611.916992188 258.302734375 670 324.413085938 670 c 0
 344.413085938 670 367.025390625 660.333007812 392.249023438 641 c 256
 417.47265625 621.666992188 437.751953125 612 453.084960938 612 c 0
 477.751953125 612 494.861328125 631.333007812 504.413085938 670 c 1
 573.413085938 670 l 1
349.9140625 463 m 256
 455.165039062 463 516.451171875 392.607421875 494.428710938 289 c 2
 433 0 l 1
 349 0 l 1
 356.014648438 33 l 1
 307.112304688 3.6669921875 246.662109375 -11 174.662109375 -11 c 0
 103.893554688 -11 64.3544921875 44.009765625 79.4443359375 115 c 0
 100.576171875 214.416992188 274.419921875 245.548828125 398.713867188 248 c 1
 407.215820312 288 l 2
 419.6015625 346.26953125 399.987304688 399 341.810546875 399 c 0
 285.810546875 399 228.458984375 381.666992188 169.756835938 347 c 1
 179.061523438 419 l 1
 238.62890625 448.333007812 295.581054688 463 349.9140625 463 c 256
386.810546875 192 m 1
 245.393554688 185.333007812 170.080078125 160.333007812 160.869140625 117 c 0
 156.334960938 95.6669921875 163.004882812 80 180.87890625 70 c 256
 198.752929688 60 219.357421875 55 242.690429688 55 c 0
 319.357421875 55 363.216796875 81 374.270507812 133 c 2
 386.810546875 192 l 1
EndSplineSet
Substitution2: "'smcp' Lowercase to Small Capitals lookup 16 subtable" Atilde.sc
EndChar

StartChar: adieresis
Encoding: 228 228 164
Width: 510
GlyphClass: 2
Flags: HMW
LayerCount: 2
Fore
SplineSet
405.51953125 567 m 1
 423.374023438 651 l 1
 512.374023438 651 l 1
 494.51953125 567 l 1
 405.51953125 567 l 1
252.51953125 567 m 1
 270.374023438 651 l 1
 359.374023438 651 l 1
 341.51953125 567 l 1
 252.51953125 567 l 1
349.701171875 462 m 256
 454.944335938 462 516.454101562 392.622070312 494.428710938 289 c 2
 433 0 l 1
 349 0 l 1
 356.014648438 33 l 1
 307.112304688 3.6669921875 246.662109375 -11 174.662109375 -11 c 0
 103.893554688 -11 64.3544921875 44.009765625 79.4443359375 115 c 0
 100.576171875 214.416992188 274.419921875 245.548828125 398.713867188 248 c 1
 407.215820312 288 l 2
 419.6015625 346.26953125 399.987304688 399 341.810546875 399 c 0
 285.810546875 399 228.458984375 381.666992188 169.756835938 347 c 1
 179.061523438 419 l 1
 238.487304688 447.666992188 295.368164062 462 349.701171875 462 c 256
386.810546875 192 m 1
 245.393554688 185.333007812 170.080078125 160.333007812 160.869140625 117 c 0
 156.334960938 95.6669921875 163.004882812 80 180.87890625 70 c 256
 198.752929688 60 219.357421875 55 242.690429688 55 c 0
 319.357421875 55 363.216796875 81 374.270507812 133 c 2
 386.810546875 192 l 1
EndSplineSet
Substitution2: "'smcp' Lowercase to Small Capitals lookup 16 subtable" Adieresis.sc
EndChar

StartChar: aring
Encoding: 229 229 165
Width: 510
GlyphClass: 2
Flags: HMW
LayerCount: 2
Fore
SplineSet
361.041992188 513 m 256
 332.375 513 307.170898438 520.666992188 285.430664062 536 c 256
 263.689453125 551.333007812 255.688476562 572.5 261.427734375 599.5 c 256
 267.166992188 626.5 284.297851562 647.5 312.818359375 662.5 c 256
 341.33984375 677.5 370.1015625 685 399.1015625 685 c 256
 428.1015625 685 453.506835938 677.5 475.318359375 662.5 c 256
 497.130859375 647.5 505.130859375 626.333007812 499.321289062 599 c 256
 493.51171875 571.666992188 476.1796875 550.5 447.32421875 535.5 c 256
 418.46875 520.5 389.708984375 513 361.041992188 513 c 256
349.9140625 463 m 256
 455.165039062 463 516.451171875 392.607421875 494.428710938 289 c 2
 433 0 l 1
 349 0 l 1
 356.014648438 33 l 1
 307.112304688 3.6669921875 246.662109375 -11 174.662109375 -11 c 0
 103.893554688 -11 64.3544921875 44.009765625 79.4443359375 115 c 0
 90.072265625 165 136.461914062 201.333007812 218.612304688 224 c 0
 271.063476562 238.666992188 331.09765625 246.666992188 398.713867188 248 c 1
 407.215820312 288 l 2
 419.6015625 346.26953125 399.987304688 399 341.810546875 399 c 0
 285.810546875 399 228.458984375 381.666992188 169.756835938 347 c 1
 179.061523438 419 l 1
 238.62890625 448.333007812 295.581054688 463 349.9140625 463 c 256
373.094726562 565 m 0
 412.39453125 565 423.349609375 566.198242188 430.321289062 599 c 0
 435.139648438 621.666992188 420.880859375 633 387.547851562 633 c 256
 354.21484375 633 335.139648438 621.666992188 330.321289062 599 c 256
 325.502929688 576.333007812 339.76171875 565 373.094726562 565 c 0
386.810546875 192 m 1
 245.393554688 185.333007812 170.080078125 160.333007812 160.869140625 117 c 0
 156.334960938 95.6669921875 163.004882812 80 180.87890625 70 c 256
 198.752929688 60 219.357421875 55 242.690429688 55 c 0
 319.357421875 55 363.216796875 81 374.270507812 133 c 2
 386.810546875 192 l 1
EndSplineSet
Substitution2: "'smcp' Lowercase to Small Capitals lookup 16 subtable" Aring.sc
EndChar

StartChar: ae
Encoding: 230 230 166
Width: 767
GlyphClass: 2
Flags: HMW
LayerCount: 2
Fore
SplineSet
398.00390625 287 m 2
 410.387695312 345.263671875 391.791992188 398 333.59765625 398 c 0
 277.59765625 398 219.913085938 380.666992188 160.544921875 346 c 1
 168.635742188 417 l 1
 228.87109375 446.333007812 289.655273438 461 350.98828125 461 c 256
 412.321289062 461 454.745117188 436.333007812 478.259765625 387 c 1
 532.745117188 436.333007812 589.98828125 461 649.98828125 461 c 256
 709.98828125 461 748.818359375 442.166992188 766.479492188 404.5 c 128
 793.5078125 346.854492188 794.483398438 293.958984375 778.125 217 c 1
 471.125 217 l 1
 464.297851562 172.333007812 470.815429688 134 490.680664062 102 c 256
 510.545898438 70 544.478515625 54 592.478515625 54 c 256
 640.478515625 54 690.920898438 73.3330078125 743.806640625 112 c 1
 735.927734375 42 l 1
 682.416992188 6.6669921875 624.662109375 -11 562.662109375 -11 c 256
 500.662109375 -11 451.30859375 14 414.603515625 64 c 1
 384.8515625 30.6669921875 338.913085938 9 276.787109375 -1 c 0
 232.703125 -7.6669921875 196.662109375 -11 168.662109375 -11 c 0
 120.662109375 -11 91.0126953125 6.3330078125 79.71484375 41 c 0
 70.57421875 67 68.484375 91.6669921875 73.4443359375 115 c 0
 90.4482421875 195 195.942382812 239.666992188 389.926757812 249 c 1
 398.00390625 287 l 2
695.708984375 375 m 0
 679.3515625 389 660.83984375 396 640.172851562 396 c 0
 573.311523438 396 515.538085938 331.935546875 489.666015625 276 c 1
 723.666015625 276 l 1
 726.818359375 325.333007812 717.499023438 358.333007812 695.708984375 375 c 0
379.172851562 189 m 1
 343.83984375 189 303.323242188 185 257.622070312 177 c 0
 195.35546875 166.333007812 161.033203125 146 154.65625 116 c 0
 150.263671875 95.3330078125 156.801757812 79.8330078125 174.272460938 69.5 c 256
 191.743164062 59.1669921875 210.811523438 54 231.478515625 54 c 256
 252.145507812 54 275.44921875 57 301.390625 63 c 0
 339.900390625 71.6669921875 362.838867188 93.3330078125 370.20703125 128 c 0
 375.025390625 150.666992188 378.014648438 171 379.172851562 189 c 1
EndSplineSet
Substitution2: "'smcp' Lowercase to Small Capitals lookup 16 subtable" AE.sc
EndChar

StartChar: ccedilla
Encoding: 231 231 167
Width: 472
GlyphClass: 2
Flags: HMW
LayerCount: 2
Fore
SplineSet
170.1875 222 m 0
 150.763671875 130.6171875 190.006835938 56 278.903320312 56 c 0
 338.903320312 56 398.204101562 74.6669921875 456.806640625 112 c 1
 447.290039062 39 l 1
 387.395507812 5 325.616210938 -12 261.94921875 -12 c 128
 198.282226562 -12 149.100585938 10.6669921875 114.403320312 56 c 128
 79.7060546875 101.333007812 69.37109375 157 83.400390625 223 c 128
 97.4287109375 289 131.534179688 345.166992188 185.715820312 391.5 c 128
 239.897460938 437.833007812 300.655273438 461 367.98828125 461 c 0
 423.321289062 461 474.87109375 446.333007812 522.635742188 417 c 1
 494.756835938 347 l 1
 451.942382812 377.666992188 405.202148438 393 354.53515625 393 c 0
 323.868164062 393 294.631835938 384.833007812 266.827148438 368.5 c 0
 216.9296875 339.189453125 184.716796875 290.356445312 170.1875 222 c 0
193.512695312 -214 m 1
 115.512695312 -214 l 1
 232.072265625 -42 l 1
 301.072265625 -42 l 1
 193.512695312 -214 l 1
EndSplineSet
Substitution2: "'smcp' Lowercase to Small Capitals lookup 16 subtable" Ccedilla.sc
EndChar

StartChar: egrave
Encoding: 232 232 168
Width: 472
GlyphClass: 2
Flags: HMW
LayerCount: 2
Fore
SplineSet
353.166992188 523 m 1
 227.514648438 694 l 1
 316.514648438 694 l 1
 424.166992188 523 l 1
 353.166992188 523 l 1
160.125 217 m 1
 145.831054688 131.461914062 188.62890625 55 277.690429688 55 c 0
 335.690429688 55 393.466796875 74.3330078125 451.018554688 113 c 1
 442.927734375 42 l 1
 384.083984375 6.6669921875 322.995117188 -11 259.662109375 -11 c 128
 196.329101562 -11 147.5859375 12.1669921875 113.434570312 58.5 c 128
 79.283203125 104.833007812 69.044921875 160.166992188 82.71875 224.5 c 128
 96.3935546875 288.833007812 128.428710938 344.666992188 178.822265625 392 c 128
 229.215820312 439.333007812 286.581054688 463 350.9140625 463 c 128
 479.836914062 463 513.7265625 356.265625 484.125 217 c 1
 160.125 217 l 1
431.877929688 277 m 1
 434.616210938 341.05859375 407.211914062 397 335.384765625 397 c 128
 264.284179688 397 205.907226562 336.084960938 178.877929688 277 c 1
 431.877929688 277 l 1
EndSplineSet
Substitution2: "'smcp' Lowercase to Small Capitals lookup 16 subtable" Egrave.sc
EndChar

StartChar: eacute
Encoding: 233 233 169
Width: 472
GlyphClass: 2
Flags: HMW
LayerCount: 2
Fore
SplineSet
337.166992188 523 m 1
 266.166992188 523 l 1
 446.514648438 694 l 1
 535.514648438 694 l 1
 337.166992188 523 l 1
160.125 217 m 1
 145.831054688 131.461914062 188.62890625 55 277.690429688 55 c 0
 335.690429688 55 393.466796875 74.3330078125 451.018554688 113 c 1
 442.927734375 42 l 1
 384.083984375 6.6669921875 322.995117188 -11 259.662109375 -11 c 128
 196.329101562 -11 147.5859375 12.1669921875 113.434570312 58.5 c 128
 79.283203125 104.833007812 69.044921875 160.166992188 82.71875 224.5 c 128
 96.3935546875 288.833007812 128.428710938 344.666992188 178.822265625 392 c 128
 229.215820312 439.333007812 286.581054688 463 350.9140625 463 c 128
 479.836914062 463 513.7265625 356.265625 484.125 217 c 1
 160.125 217 l 1
431.877929688 277 m 1
 434.616210938 341.05859375 407.211914062 397 335.384765625 397 c 128
 264.284179688 397 205.907226562 336.084960938 178.877929688 277 c 1
 431.877929688 277 l 1
EndSplineSet
Substitution2: "'smcp' Lowercase to Small Capitals lookup 16 subtable" Eacute.sc
EndChar

StartChar: ecircumflex
Encoding: 234 234 170
Width: 472
GlyphClass: 2
Flags: HMW
LayerCount: 2
Fore
SplineSet
444.7421875 521 m 1
 370.4609375 642 l 1
 245.7421875 521 l 1
 176.7421875 521 l 1
 349.15234375 697 l 1
 415.15234375 697 l 1
 512.7421875 521 l 1
 444.7421875 521 l 1
160.125 217 m 1
 145.831054688 131.461914062 188.62890625 55 277.690429688 55 c 0
 335.690429688 55 393.466796875 74.3330078125 451.018554688 113 c 1
 442.927734375 42 l 1
 384.083984375 6.6669921875 322.995117188 -11 259.662109375 -11 c 128
 196.329101562 -11 147.5859375 12.1669921875 113.434570312 58.5 c 128
 79.283203125 104.833007812 69.044921875 160.166992188 82.71875 224.5 c 128
 96.3935546875 288.833007812 128.428710938 344.666992188 178.822265625 392 c 128
 229.215820312 439.333007812 286.581054688 463 350.9140625 463 c 128
 479.836914062 463 513.7265625 356.265625 484.125 217 c 1
 160.125 217 l 1
431.877929688 277 m 1
 434.616210938 341.05859375 407.211914062 397 335.384765625 397 c 128
 264.284179688 397 205.907226562 336.084960938 178.877929688 277 c 1
 431.877929688 277 l 1
EndSplineSet
Substitution2: "'smcp' Lowercase to Small Capitals lookup 16 subtable" Ecircumflex.sc
EndChar

StartChar: edieresis
Encoding: 235 235 171
Width: 472
GlyphClass: 2
Flags: HMW
LayerCount: 2
Fore
SplineSet
386.51953125 567 m 1
 404.374023438 651 l 1
 493.374023438 651 l 1
 475.51953125 567 l 1
 386.51953125 567 l 1
233.51953125 567 m 1
 251.374023438 651 l 1
 340.374023438 651 l 1
 322.51953125 567 l 1
 233.51953125 567 l 1
160.125 217 m 1
 145.831054688 131.461914062 188.62890625 55 277.690429688 55 c 0
 335.690429688 55 393.396484375 74 450.806640625 112 c 1
 442.927734375 42 l 1
 384.083984375 6.6669921875 322.995117188 -11 259.662109375 -11 c 128
 196.329101562 -11 147.5859375 12.1669921875 113.434570312 58.5 c 128
 79.283203125 104.833007812 69.044921875 160.166992188 82.71875 224.5 c 128
 96.3935546875 288.833007812 128.392578125 344.5 178.715820312 391.5 c 128
 229.0390625 438.5 286.368164062 462 350.701171875 462 c 128
 480.044921875 462 513.741210938 356.334960938 484.125 217 c 1
 160.125 217 l 1
431.877929688 277 m 1
 434.616210938 341.05859375 407.211914062 397 335.384765625 397 c 128
 264.284179688 397 205.907226562 336.084960938 178.877929688 277 c 1
 431.877929688 277 l 1
EndSplineSet
Substitution2: "'smcp' Lowercase to Small Capitals lookup 16 subtable" Edieresis.sc
EndChar

StartChar: igrave
Encoding: 236 236 172
Width: 253
GlyphClass: 2
Flags: HMW
LayerCount: 2
Fore
SplineSet
218.166992188 523 m 1
 91.5146484375 694 l 1
 180.514648438 694 l 1
 288.166992188 523 l 1
 218.166992188 523 l 1
90 0 m 1
 184.799804688 446 l 1
 268.799804688 446 l 1
 174 0 l 1
 90 0 l 1
EndSplineSet
Substitution2: "'smcp' Lowercase to Small Capitals lookup 16 subtable" Igrave.sc
EndChar

StartChar: iacute
Encoding: 237 237 173
Width: 253
GlyphClass: 2
Flags: HMW
LayerCount: 2
Fore
SplineSet
265.166992188 523 m 1
 195.166992188 523 l 1
 374.514648438 694 l 1
 463.514648438 694 l 1
 265.166992188 523 l 1
86 0 m 1
 180.799804688 446 l 1
 264.799804688 446 l 1
 170 0 l 1
 86 0 l 1
EndSplineSet
Substitution2: "'smcp' Lowercase to Small Capitals lookup 16 subtable" Iacute.sc
EndChar

StartChar: icircumflex
Encoding: 238 238 174
Width: 253
GlyphClass: 2
Flags: HMW
LayerCount: 2
Fore
SplineSet
349.7421875 521 m 1
 276.4609375 642 l 1
 150.7421875 521 l 1
 82.7421875 521 l 1
 255.15234375 697 l 1
 321.15234375 697 l 1
 418.7421875 521 l 1
 349.7421875 521 l 1
97 0 m 1
 191.799804688 446 l 1
 275.799804688 446 l 1
 181 0 l 1
 97 0 l 1
EndSplineSet
Substitution2: "'smcp' Lowercase to Small Capitals lookup 16 subtable" Icircumflex.sc
EndChar

StartChar: idieresis
Encoding: 239 239 175
Width: 253
GlyphClass: 2
Flags: HMW
LayerCount: 2
Fore
SplineSet
271.51953125 567 m 1
 289.374023438 651 l 1
 378.374023438 651 l 1
 360.51953125 567 l 1
 271.51953125 567 l 1
118.51953125 567 m 1
 136.374023438 651 l 1
 225.374023438 651 l 1
 207.51953125 567 l 1
 118.51953125 567 l 1
76 0 m 1
 170.799804688 446 l 1
 254.799804688 446 l 1
 160 0 l 1
 76 0 l 1
EndSplineSet
Substitution2: "'smcp' Lowercase to Small Capitals lookup 16 subtable" Idieresis.sc
EndChar

StartChar: eth
Encoding: 240 240 176
Width: 531
GlyphClass: 2
Flags: HMW
LayerCount: 2
Fore
SplineSet
547.651367188 243 m 0
 531.374023438 166.421875 495.973632812 104.944335938 441.448242188 58.56640625 c 128
 386.923828125 12.1884765625 326.995117188 -11 261.662109375 -11 c 128
 196.329101562 -11 145.77734375 11.5 110.009765625 56.5 c 128
 74.2412109375 101.5 63.30078125 156.666992188 77.1875 222 c 128
 91.07421875 287.333007812 125.583984375 343.833007812 180.715820312 391.5 c 128
 235.84765625 439.166992188 296.081054688 463 361.4140625 463 c 0
 396.747070312 463 428.379882812 455 456.3125 439 c 1
 441.790039062 493 413.8515625 540.333007812 372.495117188 581 c 1
 277.529296875 520 l 1
 249.157226562 570 l 1
 326.78515625 620 l 1
 298.611328125 638 268.274414062 653.666992188 235.775390625 667 c 1
 281.465820312 722 l 1
 322.248046875 710 360.947265625 691.333007812 397.5625 666 c 1
 488.890625 724 l 1
 518.262695312 674 l 1
 444.2734375 627 l 1
 546.067382812 525.666992188 580.526367188 397.666992188 547.651367188 243 c 0
346.384765625 397 m 256
 254.504882812 397 185.508789062 322.30859375 165.887695312 230 c 128
 155.827148438 182.666992188 159.885742188 142.166992188 178.0625 108.5 c 128
 196.239257812 74.8330078125 227.495117188 58 271.828125 58 c 128
 316.161132812 58 355.658203125 73.6669921875 390.318359375 105 c 0
 433.439453125 145.639648438 442.922851562 159.594726562 457.038085938 226 c 0
 466.95703125 272.666992188 462.328125 312.833007812 443.150390625 346.5 c 128
 423.973632812 380.166992188 391.717773438 397 346.384765625 397 c 256
EndSplineSet
Substitution2: "'ss05' Style Set 5 lookup 23 IPA alts-1" eth.ipa
Substitution2: "'smcp' Lowercase to Small Capitals lookup 16 subtable" Eth.sc
EndChar

StartChar: ntilde
Encoding: 241 241 177
Width: 549
GlyphClass: 2
Flags: HMW
LayerCount: 2
Fore
SplineSet
592.413085938 670 m 1
 577.31640625 605.083007812 526.37890625 547 460.268554688 547 c 0
 440.268554688 547 417.62109375 556.5 392.326171875 575.5 c 128
 367.032226562 594.5 346.716796875 604 331.383789062 604 c 0
 306.716796875 604 289.678710938 585 280.268554688 547 c 1
 211.268554688 547 l 1
 226.23046875 611.3359375 277.194335938 670 342.413085938 670 c 0
 362.413085938 670 385.19140625 660.333007812 410.749023438 641 c 128
 436.306640625 621.666992188 456.751953125 612 472.084960938 612 c 0
 496.751953125 612 513.861328125 631.333007812 523.413085938 670 c 1
 592.413085938 670 l 1
357.109375 391 m 0
 285.874023438 391 239.625976562 322.859375 223.2890625 246 c 2
 171 0 l 1
 83 0 l 1
 179.075195312 452 l 1
 260.075195312 452 l 1
 246.046875 386 l 1
 296.107421875 433.333007812 351.138671875 457 411.138671875 457 c 0
 508.471679688 457 545.873046875 404 523.341796875 298 c 2
 460 0 l 1
 373 0 l 1
 434.853515625 291 l 2
 449.614257812 360.443359375 427.46484375 391 357.109375 391 c 0
EndSplineSet
Substitution2: "'smcp' Lowercase to Small Capitals lookup 16 subtable" Ntilde.sc
EndChar

StartChar: ograve
Encoding: 242 242 178
Width: 531
GlyphClass: 2
Flags: HMW
LayerCount: 2
Fore
SplineSet
383.166992188 523 m 1
 257.514648438 694 l 1
 346.514648438 694 l 1
 453.166992188 523 l 1
 383.166992188 523 l 1
439.903320312 56 m 128
 385.076171875 11.3330078125 325.162109375 -11 260.162109375 -11 c 128
 195.162109375 -11 144.944335938 11.5 109.509765625 56.5 c 128
 74.07421875 101.5 63.30078125 156.666992188 77.1875 222 c 128
 91.07421875 287.333007812 125.583984375 343.833007812 180.715820312 391.5 c 128
 235.84765625 439.166992188 296.247070312 463 361.9140625 463 c 128
 427.581054688 463 477.680664062 439.166992188 512.215820312 391.5 c 128
 546.750976562 343.833007812 557.0390625 287.166992188 543.081054688 221.5 c 128
 529.123046875 155.833007812 494.73046875 100.666992188 439.903320312 56 c 128
457.994140625 230.5 m 128
 477.829101562 323.81640625 440.390625 397 347.384765625 397 c 128
 254.625976562 397 185.629882812 322.879882812 165.887695312 230 c 128
 155.827148438 182.666992188 159.885742188 142.166992188 178.0625 108.5 c 128
 196.239257812 74.8330078125 228.495117188 58 274.828125 58 c 128
 321.161132812 58 360.739257812 74.8330078125 393.5625 108.5 c 128
 426.385742188 142.166992188 447.862304688 182.833007812 457.994140625 230.5 c 128
EndSplineSet
Substitution2: "'smcp' Lowercase to Small Capitals lookup 16 subtable" Ograve.sc
EndChar

StartChar: oacute
Encoding: 243 243 179
Width: 531
GlyphClass: 2
Flags: HMW
LayerCount: 2
Fore
SplineSet
366.166992188 523 m 1
 296.166992188 523 l 1
 475.514648438 694 l 1
 564.514648438 694 l 1
 366.166992188 523 l 1
439.903320312 56 m 128
 385.076171875 11.3330078125 325.162109375 -11 260.162109375 -11 c 128
 195.162109375 -11 144.944335938 11.5 109.509765625 56.5 c 128
 74.07421875 101.5 63.30078125 156.666992188 77.1875 222 c 128
 91.07421875 287.333007812 125.583984375 343.833007812 180.715820312 391.5 c 128
 235.84765625 439.166992188 296.247070312 463 361.9140625 463 c 128
 427.581054688 463 477.680664062 439.166992188 512.215820312 391.5 c 128
 546.750976562 343.833007812 557.0390625 287.166992188 543.081054688 221.5 c 128
 529.123046875 155.833007812 494.73046875 100.666992188 439.903320312 56 c 128
457.994140625 230.5 m 128
 477.829101562 323.81640625 440.390625 397 347.384765625 397 c 128
 254.625976562 397 185.629882812 322.879882812 165.887695312 230 c 128
 155.827148438 182.666992188 159.885742188 142.166992188 178.0625 108.5 c 128
 196.239257812 74.8330078125 228.495117188 58 274.828125 58 c 128
 321.161132812 58 360.739257812 74.8330078125 393.5625 108.5 c 128
 426.385742188 142.166992188 447.862304688 182.833007812 457.994140625 230.5 c 128
EndSplineSet
Substitution2: "'smcp' Lowercase to Small Capitals lookup 16 subtable" Oacute.sc
EndChar

StartChar: ocircumflex
Encoding: 244 244 180
Width: 531
GlyphClass: 2
Flags: HMW
LayerCount: 2
Fore
SplineSet
473.7421875 521 m 1
 399.4609375 642 l 1
 274.7421875 521 l 1
 206.7421875 521 l 1
 379.15234375 697 l 1
 444.15234375 697 l 1
 541.7421875 521 l 1
 473.7421875 521 l 1
439.903320312 56 m 128
 385.076171875 11.3330078125 325.162109375 -11 260.162109375 -11 c 128
 195.162109375 -11 144.944335938 11.5 109.509765625 56.5 c 128
 74.07421875 101.5 63.30078125 156.666992188 77.1875 222 c 128
 91.07421875 287.333007812 125.583984375 343.833007812 180.715820312 391.5 c 128
 235.84765625 439.166992188 296.247070312 463 361.9140625 463 c 128
 427.581054688 463 477.680664062 439.166992188 512.215820312 391.5 c 128
 546.750976562 343.833007812 557.0390625 287.166992188 543.081054688 221.5 c 128
 529.123046875 155.833007812 494.73046875 100.666992188 439.903320312 56 c 128
457.994140625 230.5 m 128
 477.829101562 323.81640625 440.390625 397 347.384765625 397 c 128
 254.625976562 397 185.629882812 322.879882812 165.887695312 230 c 128
 155.827148438 182.666992188 159.885742188 142.166992188 178.0625 108.5 c 128
 196.239257812 74.8330078125 228.495117188 58 274.828125 58 c 128
 321.161132812 58 360.739257812 74.8330078125 393.5625 108.5 c 128
 426.385742188 142.166992188 447.862304688 182.833007812 457.994140625 230.5 c 128
EndSplineSet
Substitution2: "'smcp' Lowercase to Small Capitals lookup 16 subtable" Ocircumflex.sc
EndChar

StartChar: otilde
Encoding: 245 245 181
Width: 531
GlyphClass: 2
Flags: HMW
LayerCount: 2
Fore
SplineSet
584.413085938 670 m 1
 569.44921875 605.657226562 517.471679688 547 452.268554688 547 c 0
 432.268554688 547 409.62109375 556.5 384.326171875 575.5 c 128
 359.032226562 594.5 338.383789062 604 322.383789062 604 c 0
 298.383789062 604 281.678710938 585 272.268554688 547 c 1
 203.268554688 547 l 1
 217.067382812 611.91796875 269.68359375 670 334.413085938 670 c 0
 354.413085938 670 377.025390625 660.333007812 402.249023438 641 c 128
 427.47265625 621.666992188 448.084960938 612 464.084960938 612 c 0
 488.084960938 612 504.861328125 631.333007812 514.413085938 670 c 1
 584.413085938 670 l 1
439.903320312 56 m 128
 385.076171875 11.3330078125 325.162109375 -11 260.162109375 -11 c 128
 195.162109375 -11 144.944335938 11.5 109.509765625 56.5 c 128
 74.07421875 101.5 63.30078125 156.666992188 77.1875 222 c 128
 91.07421875 287.333007812 125.583984375 343.833007812 180.715820312 391.5 c 128
 235.84765625 439.166992188 296.247070312 463 361.9140625 463 c 128
 427.581054688 463 477.680664062 439.166992188 512.215820312 391.5 c 128
 546.750976562 343.833007812 557.0390625 287.166992188 543.081054688 221.5 c 128
 529.123046875 155.833007812 494.73046875 100.666992188 439.903320312 56 c 128
457.994140625 230.5 m 128
 477.829101562 323.81640625 440.390625 397 347.384765625 397 c 128
 254.625976562 397 185.629882812 322.879882812 165.887695312 230 c 128
 155.827148438 182.666992188 159.849609375 142 177.956054688 108 c 128
 196.0625 74 228.283203125 57 274.616210938 57 c 128
 320.94921875 57 360.5625 74 393.456054688 108 c 128
 426.349609375 142 447.862304688 182.833007812 457.994140625 230.5 c 128
EndSplineSet
Substitution2: "'smcp' Lowercase to Small Capitals lookup 16 subtable" Otilde.sc
EndChar

StartChar: odieresis
Encoding: 246 246 182
Width: 531
GlyphClass: 2
Flags: HMW
LayerCount: 2
Fore
SplineSet
416.51953125 567 m 1
 434.374023438 651 l 1
 523.374023438 651 l 1
 505.51953125 567 l 1
 416.51953125 567 l 1
262.51953125 567 m 1
 280.374023438 651 l 1
 369.374023438 651 l 1
 351.51953125 567 l 1
 262.51953125 567 l 1
439.903320312 56 m 128
 385.076171875 11.3330078125 325.162109375 -11 260.162109375 -11 c 128
 195.162109375 -11 144.944335938 11.5 109.509765625 56.5 c 128
 74.07421875 101.5 63.30078125 156.666992188 77.1875 222 c 128
 91.07421875 287.333007812 125.548828125 343.666992188 180.609375 391 c 128
 235.670898438 438.333007812 296.034179688 462 361.701171875 462 c 128
 427.368164062 462 477.50390625 438.333007812 512.109375 391 c 128
 546.715820312 343.666992188 557.0390625 287.166992188 543.081054688 221.5 c 128
 529.123046875 155.833007812 494.73046875 100.666992188 439.903320312 56 c 128
457.994140625 230.5 m 128
 477.829101562 323.81640625 440.390625 397 347.384765625 397 c 128
 254.625976562 397 185.629882812 322.879882812 165.887695312 230 c 128
 155.827148438 182.666992188 159.849609375 142 177.956054688 108 c 128
 196.0625 74 228.283203125 57 274.616210938 57 c 128
 320.94921875 57 360.5625 74 393.456054688 108 c 128
 426.349609375 142 447.862304688 182.833007812 457.994140625 230.5 c 128
EndSplineSet
Substitution2: "'smcp' Lowercase to Small Capitals lookup 16 subtable" Odieresis.sc
EndChar

StartChar: divide
Encoding: 247 247 183
Width: 826
GlyphClass: 2
Flags: HMW
LayerCount: 2
Fore
SplineSet
434.505859375 327 m 1
 452.998046875 414 l 1
 544.998046875 414 l 1
 526.505859375 327 l 1
 434.505859375 327 l 1
772.462890625 228 m 2
 145.462890625 228 l 2
 120.129882812 228 109.021484375 235.333007812 112.138671875 250 c 256
 115.256835938 264.666992188 129.1484375 272 153.815429688 272 c 2
 782.815429688 272 l 2
 808.1484375 272 819.256835938 264.666992188 816.138671875 250 c 256
 813.021484375 235.333007812 798.462890625 228 772.462890625 228 c 2
383.067382812 85 m 1
 401.559570312 172 l 1
 493.559570312 172 l 1
 475.067382812 85 l 1
 383.067382812 85 l 1
EndSplineSet
EndChar

StartChar: oslash
Encoding: 248 248 184
Width: 531
GlyphClass: 2
Flags: HMW
LayerCount: 2
Fore
SplineSet
260.44921875 -12 m 0
 230.44921875 -12 202.057617188 -6 175.275390625 6 c 1
 79.9814453125 -113 l 1
 26.783203125 -81 l 1
 124.927734375 42 l 1
 80.505859375 93.3330078125 65.34375 152.166992188 79.443359375 218.5 c 256
 93.54296875 284.833007812 128.02734375 342 182.897460938 390 c 128
 237.766601562 438 297.534179688 462 362.201171875 462 c 0
 392.868164062 462 422.188476562 455.666992188 450.162109375 443 c 1
 542.606445312 558 l 1
 595.8046875 526 l 1
 499.084960938 405 l 1
 543.549804688 357 557.775390625 295.333007812 541.762695312 220 c 0
 528.016601562 155.333007812 493.862304688 100.5 439.296875 55.5 c 128
 384.731445312 10.5 325.116210938 -12 260.44921875 -12 c 0
274.478515625 54 m 0
 368.818359375 54 437.958007812 126.826171875 458.081054688 221.5 c 256
 468.354492188 269.833007812 464.892578125 310 447.694335938 342 c 1
 222.390625 63 l 1
 236.44921875 57 253.811523438 54 274.478515625 54 c 0
348.172851562 396 m 0
 301.505859375 396 261.690429688 378.833007812 228.725585938 344.5 c 256
 195.760742188 310.166992188 174.212890625 269.166992188 164.081054688 221.5 c 256
 153.94921875 173.833007812 157.624023438 134.666992188 175.10546875 104 c 1
 402.833984375 385 l 1
 387.059570312 392.333007812 368.83984375 396 348.172851562 396 c 0
EndSplineSet
Substitution2: "'smcp' Lowercase to Small Capitals lookup 16 subtable" Oslash.sc
EndChar

StartChar: ugrave
Encoding: 249 249 185
Width: 549
GlyphClass: 2
Flags: HMW
LayerCount: 2
Fore
SplineSet
391.166992188 523 m 1
 265.514648438 694 l 1
 354.514648438 694 l 1
 462.166992188 523 l 1
 391.166992188 523 l 1
264.915039062 49 m 256
 330.428710938 49 391.774414062 88.3251953125 405.946289062 155 c 2
 467.799804688 446 l 1
 554.799804688 446 l 1
 460 0 l 1
 376 0 l 1
 385.565429688 45 l 1
 330.962890625 7.6669921875 267.329101562 -11 194.662109375 -11 c 0
 118.662109375 -11 89.3056640625 29.6669921875 106.59375 111 c 2
 177.799804688 446 l 1
 265.799804688 446 l 1
 195.444335938 115 l 2
 183.075195312 56.8095703125 203.91796875 49 264.915039062 49 c 256
EndSplineSet
Substitution2: "'smcp' Lowercase to Small Capitals lookup 16 subtable" Ugrave.sc
EndChar

StartChar: uacute
Encoding: 250 250 186
Width: 549
GlyphClass: 2
Flags: HMW
LayerCount: 2
Fore
SplineSet
375.166992188 523 m 1
 304.166992188 523 l 1
 484.514648438 694 l 1
 573.514648438 694 l 1
 375.166992188 523 l 1
264.915039062 49 m 256
 330.428710938 49 391.774414062 88.3251953125 405.946289062 155 c 2
 467.799804688 446 l 1
 554.799804688 446 l 1
 460 0 l 1
 376 0 l 1
 385.565429688 45 l 1
 330.962890625 7.6669921875 267.329101562 -11 194.662109375 -11 c 0
 118.662109375 -11 89.3056640625 29.6669921875 106.59375 111 c 2
 177.799804688 446 l 1
 265.799804688 446 l 1
 195.444335938 115 l 2
 183.075195312 56.8095703125 203.91796875 49 264.915039062 49 c 256
EndSplineSet
Substitution2: "'smcp' Lowercase to Small Capitals lookup 16 subtable" Uacute.sc
EndChar

StartChar: ucircumflex
Encoding: 251 251 187
Width: 549
GlyphClass: 2
Flags: HMW
LayerCount: 2
Fore
SplineSet
481.7421875 521 m 1
 408.4609375 642 l 1
 282.7421875 521 l 1
 214.7421875 521 l 1
 387.15234375 697 l 1
 453.15234375 697 l 1
 550.7421875 521 l 1
 481.7421875 521 l 1
264.915039062 49 m 256
 330.428710938 49 391.774414062 88.3251953125 405.946289062 155 c 2
 467.799804688 446 l 1
 554.799804688 446 l 1
 460 0 l 1
 376 0 l 1
 385.565429688 45 l 1
 330.962890625 7.6669921875 267.329101562 -11 194.662109375 -11 c 0
 118.662109375 -11 89.3056640625 29.6669921875 106.59375 111 c 2
 177.799804688 446 l 1
 265.799804688 446 l 1
 195.444335938 115 l 2
 183.075195312 56.8095703125 203.91796875 49 264.915039062 49 c 256
EndSplineSet
Substitution2: "'smcp' Lowercase to Small Capitals lookup 16 subtable" Ucircumflex.sc
EndChar

StartChar: udieresis
Encoding: 252 252 188
Width: 549
GlyphClass: 2
Flags: HMW
LayerCount: 2
Fore
SplineSet
424.51953125 567 m 1
 442.374023438 651 l 1
 531.374023438 651 l 1
 513.51953125 567 l 1
 424.51953125 567 l 1
271.51953125 567 m 1
 289.374023438 651 l 1
 378.374023438 651 l 1
 360.51953125 567 l 1
 271.51953125 567 l 1
264.915039062 49 m 256
 330.428710938 49 391.774414062 88.3251953125 405.946289062 155 c 2
 467.799804688 446 l 1
 554.799804688 446 l 1
 460 0 l 1
 376 0 l 1
 385.565429688 45 l 1
 330.962890625 7.6669921875 267.329101562 -11 194.662109375 -11 c 0
 118.662109375 -11 89.3056640625 29.6669921875 106.59375 111 c 2
 177.799804688 446 l 1
 265.799804688 446 l 1
 195.444335938 115 l 2
 183.075195312 56.8095703125 203.91796875 49 264.915039062 49 c 256
EndSplineSet
Substitution2: "'smcp' Lowercase to Small Capitals lookup 16 subtable" Udieresis.sc
EndChar

StartChar: yacute
Encoding: 253 253 189
Width: 490
GlyphClass: 2
Flags: HMW
LayerCount: 2
Fore
SplineSet
349.166992188 523 m 1
 279.166992188 523 l 1
 458.514648438 694 l 1
 547.514648438 694 l 1
 349.166992188 523 l 1
268.516601562 73 m 1
 289.752929688 129 362.443359375 253 486.587890625 445 c 1
 570.587890625 445 l 1
 226.870117188 -90 l 2
 189.844726562 -147.26953125 148.947265625 -205 84.42578125 -205 c 128
 56.42578125 -205 29.9931640625 -202.333007812 5.1259765625 -197 c 1
 13.2177734375 -126 l 1
 40.80859375 -137.333007812 67.9375 -143 94.6044921875 -143 c 0
 117.048828125 -143 140.016601562 -124.333007812 163.5078125 -87 c 2
 220.212890625 1 l 1
 109.587890625 445 l 1
 197.587890625 445 l 1
 245.689453125 262 269.333007812 138 268.516601562 73 c 1
EndSplineSet
Substitution2: "'smcp' Lowercase to Small Capitals lookup 16 subtable" Yacute.sc
EndChar

StartChar: thorn
Encoding: 254 254 190
Width: 549
GlyphClass: 2
Flags: HMW
LayerCount: 2
Fore
SplineSet
548.133789062 377 m 0
 565.97265625 332.333007812 568.586914062 280.333007812 555.974609375 221 c 128
 543.36328125 161.666992188 513.7890625 108 467.252929688 60 c 128
 420.717773438 12 370.116210938 -12 315.44921875 -12 c 128
 260.782226562 -12 216.204101562 5.6669921875 181.71484375 41 c 1
 131.763671875 -194 l 1
 43.763671875 -194 l 1
 232.514648438 694 l 1
 316.514648438 694 l 1
 253.810546875 399 l 1
 311.220703125 437 371.92578125 456 435.92578125 456 c 0
 489.92578125 456 527.328125 429.666992188 548.133789062 377 c 0
288.978515625 54 m 128
 370.62109375 54 450.4609375 138.602539062 468.081054688 221.5 c 128
 477.36328125 265.166992188 472.749023438 303.833007812 454.23828125 337.5 c 128
 435.7265625 371.166992188 404.8046875 388 361.471679688 388 c 128
 318.138671875 388 278.836914062 369.333007812 243.568359375 332 c 1
 201.270507812 133 l 2
 198.293945312 119 199.21875 107.666992188 204.04296875 99 c 0
 220.999023438 69 249.311523438 54 288.978515625 54 c 128
EndSplineSet
Substitution2: "'smcp' Lowercase to Small Capitals lookup 16 subtable" Thorn.sc
EndChar

StartChar: ydieresis
Encoding: 255 255 191
Width: 490
GlyphClass: 2
Flags: HMW
LayerCount: 2
Fore
SplineSet
399.306640625 566 m 1
 417.374023438 651 l 1
 506.374023438 651 l 1
 488.306640625 566 l 1
 399.306640625 566 l 1
245.306640625 566 m 1
 263.374023438 651 l 1
 353.374023438 651 l 1
 335.306640625 566 l 1
 245.306640625 566 l 1
268.516601562 73 m 1
 289.752929688 129 362.443359375 253 486.587890625 445 c 1
 570.587890625 445 l 1
 226.870117188 -90 l 2
 189.844726562 -147.26953125 148.947265625 -205 84.42578125 -205 c 128
 56.42578125 -205 29.9931640625 -202.333007812 5.1259765625 -197 c 1
 13.2177734375 -126 l 1
 40.80859375 -137.333007812 67.9375 -143 94.6044921875 -143 c 0
 117.048828125 -143 140.016601562 -124.333007812 163.5078125 -87 c 2
 220.212890625 1 l 1
 109.587890625 445 l 1
 197.587890625 445 l 1
 245.689453125 262 269.333007812 138 268.516601562 73 c 1
EndSplineSet
Substitution2: "'smcp' Lowercase to Small Capitals lookup 16 subtable" Ydieresis.sc
EndChar

StartChar: Amacron
Encoding: 256 256 192
Width: 708
GlyphClass: 2
Flags: HMW
LayerCount: 2
Fore
SplineSet
321.629882812 751 m 1
 336.295898438 820 l 1
 720.295898438 820 l 1
 705.629882812 751 l 1
 321.629882812 751 l 1
575 0 m 1
 539.149414062 203 l 1
 237.149414062 203 l 1
 113 0 l 1
 30 0 l 1
 453.7265625 695 l 1
 549.7265625 695 l 1
 678 0 l 1
 575 0 l 1
474.872070312 611 m 1
 462.8203125 585.666992188 430.705078125 528.666992188 378.524414062 440 c 2
 273.90234375 263 l 1
 526.90234375 263 l 1
 485.678710938 516 l 2
 478.364257812 560 474.762695312 591.666992188 474.872070312 611 c 1
EndSplineSet
Position2: "'cpsp' Capital Spacing lookup 0 subtable" dx=7 dy=1 dh=14 dv=3
EndChar

StartChar: amacron
Encoding: 257 257 193
Width: 510
GlyphClass: 2
Flags: HMW
LayerCount: 2
Fore
SplineSet
183.219726562 575 m 1
 197.673828125 643 l 1
 582.673828125 643 l 1
 568.219726562 575 l 1
 183.219726562 575 l 1
349.701171875 462 m 256
 454.944335938 462 516.454101562 392.622070312 494.428710938 289 c 2
 433 0 l 1
 349 0 l 1
 356.014648438 33 l 1
 307.112304688 3.6669921875 246.662109375 -11 174.662109375 -11 c 0
 103.893554688 -11 64.3544921875 44.009765625 79.4443359375 115 c 0
 100.576171875 214.416992188 274.419921875 245.548828125 398.713867188 248 c 1
 407.215820312 288 l 2
 419.6015625 346.26953125 399.987304688 399 341.810546875 399 c 0
 285.810546875 399 228.458984375 381.666992188 169.756835938 347 c 1
 179.061523438 419 l 1
 238.487304688 447.666992188 295.368164062 462 349.701171875 462 c 256
386.810546875 192 m 1
 245.393554688 185.333007812 170.080078125 160.333007812 160.869140625 117 c 0
 156.334960938 95.6669921875 162.96875 79.8330078125 180.772460938 69.5 c 256
 198.576171875 59.1669921875 219.145507812 54 242.478515625 54 c 0
 319.145507812 54 363.075195312 80.3330078125 374.270507812 133 c 2
 386.810546875 192 l 1
EndSplineSet
EndChar

StartChar: Abreve
Encoding: 258 258 194
Width: 708
GlyphClass: 2
Flags: HMW
LayerCount: 2
Fore
SplineSet
730.40234375 924 m 1
 707.59375 822.875 613.325195312 742 511.216796875 742 c 128
 409.063476562 742 351.22265625 822.884765625 371.40234375 924 c 1
 440.40234375 924 l 1
 428.354492188 861.165039062 463.768554688 814 527.521484375 814 c 128
 590.740234375 814 646.932617188 860.630859375 660.40234375 924 c 1
 730.40234375 924 l 1
575 0 m 1
 539.149414062 203 l 1
 237.149414062 203 l 1
 113 0 l 1
 30 0 l 1
 453.7265625 695 l 1
 549.7265625 695 l 1
 678 0 l 1
 575 0 l 1
474.872070312 611 m 1
 462.961914062 586.333007812 430.846679688 529.333007812 378.524414062 440 c 2
 274.115234375 264 l 1
 527.115234375 264 l 1
 485.678710938 516 l 2
 478.506835938 560.666992188 474.904296875 592.333007812 474.872070312 611 c 1
EndSplineSet
Position2: "'cpsp' Capital Spacing lookup 0 subtable" dx=7 dy=1 dh=14 dv=3
EndChar

StartChar: abreve
Encoding: 259 259 195
Width: 510
GlyphClass: 2
Flags: HMW
LayerCount: 2
Fore
SplineSet
581.790039062 700 m 1
 558.981445312 598.876953125 465.736328125 518 363.604492188 518 c 128
 261.473632812 518 202.610351562 598.883789062 222.790039062 700 c 1
 291.790039062 700 l 1
 279.985351562 638.291015625 316.619140625 590 379.408203125 590 c 256
 442.219726562 590 498.361328125 638.296875 512.790039062 700 c 1
 581.790039062 700 l 1
349.9140625 463 m 128
 455.165039062 463 516.451171875 392.607421875 494.428710938 289 c 2
 433 0 l 1
 349 0 l 1
 356.014648438 33 l 1
 307.112304688 3.6669921875 246.662109375 -11 174.662109375 -11 c 0
 103.893554688 -11 64.3544921875 44.009765625 79.4443359375 115 c 0
 90.072265625 165 136.461914062 201.333007812 218.612304688 224 c 0
 271.063476562 238.666992188 331.09765625 246.666992188 398.713867188 248 c 1
 407.215820312 288 l 2
 419.6015625 346.26953125 399.987304688 399 341.810546875 399 c 0
 285.810546875 399 228.458984375 381.666992188 169.756835938 347 c 1
 179.061523438 419 l 1
 238.62890625 448.333007812 295.581054688 463 349.9140625 463 c 128
386.810546875 192 m 1
 245.393554688 185.333007812 170.080078125 160.333007812 160.869140625 117 c 0
 156.334960938 95.6669921875 163.004882812 80 180.87890625 70 c 128
 198.752929688 60 219.357421875 55 242.690429688 55 c 0
 319.357421875 55 363.216796875 81 374.270507812 133 c 2
 386.810546875 192 l 1
EndSplineSet
Substitution2: "'smcp' Lowercase to Small Capitals lookup 16 subtable" Abreve.sc
EndChar

StartChar: Aogonek
Encoding: 260 260 196
Width: 708
GlyphClass: 2
Flags: HMW
LayerCount: 2
Fore
SplineSet
656.46484375 -186 m 1
 614.11328125 -203.333007812 577.60546875 -212 546.938476562 -212 c 128
 487.073242188 -212 447.05859375 -181.81640625 456.430664062 -125 c 0
 465.341796875 -73.6669921875 504.672851562 -31.3330078125 574.424804688 2 c 1
 538.936523438 202 l 1
 236.936523438 202 l 1
 112.787109375 -1 l 1
 29.787109375 -1 l 1
 453.514648438 694 l 1
 549.514648438 694 l 1
 677.787109375 -1 l 1
 643.787109375 -1 l 1
 576.176757812 -33.6669921875 539.354492188 -67.3330078125 533.319335938 -102 c 0
 528.78515625 -123.333007812 543.971679688 -135 578.879882812 -137 c 0
 597.263671875 -138.333007812 622.254882812 -133.666992188 653.85546875 -123 c 1
 656.46484375 -186 l 1
474.659179688 610 m 1
 462.607421875 584.666992188 430.4921875 527.666992188 378.3125 439 c 2
 273.689453125 262 l 1
 526.689453125 262 l 1
 485.466796875 515 l 2
 478.15234375 559 474.549804688 590.666992188 474.659179688 610 c 1
EndSplineSet
Position2: "'cpsp' Capital Spacing lookup 0 subtable" dx=7 dy=1 dh=14 dv=3
EndChar

StartChar: aogonek
Encoding: 261 261 197
Width: 510
GlyphClass: 2
Flags: HMW
LayerCount: 2
Fore
SplineSet
349.48828125 461 m 128
 454.197265625 461 516.059570312 390.762695312 494.215820312 288 c 2
 432.575195312 -2 l 1
 419.575195312 -2 l 1
 351.440429688 -34 314.020507812 -67.3330078125 307.319335938 -102 c 0
 303.309570312 -124 318.42578125 -136 352.666992188 -138 c 0
 371.192382812 -138.666992188 396.254882812 -133.666992188 427.85546875 -123 c 1
 430.46484375 -186 l 1
 388.11328125 -203.333007812 351.771484375 -212 321.438476562 -212 c 128
 261.970703125 -212 222.096679688 -181.5859375 231.430664062 -125 c 0
 239.674804688 -73.6669921875 279.006835938 -31.3330078125 349.424804688 2 c 1
 355.801757812 32 l 1
 306.899414062 2.6669921875 246.44921875 -12 174.44921875 -12 c 0
 103.678710938 -12 63.9228515625 41.98046875 79.0185546875 113 c 0
 89.646484375 163 136.107421875 199.666992188 218.400390625 223 c 0
 270.850585938 237.666992188 330.884765625 245.666992188 398.501953125 247 c 1
 407.00390625 287 l 2
 419.396484375 345.302734375 399.56640625 397 341.384765625 397 c 0
 285.384765625 397 228.104492188 380 169.544921875 346 c 1
 178.635742188 417 l 1
 238.204101562 446.333007812 295.155273438 461 349.48828125 461 c 128
160.444335938 115 m 0
 151.313476562 72.0458984375 198.88671875 53 242.265625 53 c 0
 318.932617188 53 362.862304688 79.3330078125 374.057617188 132 c 2
 386.598632812 191 l 1
 245.181640625 184.333007812 169.796875 159 160.444335938 115 c 0
EndSplineSet
Substitution2: "'smcp' Lowercase to Small Capitals lookup 16 subtable" Aogonek.sc
EndChar

StartChar: Cacute
Encoding: 262 262 198
Width: 679
GlyphClass: 2
Flags: HMW
LayerCount: 2
Fore
SplineSet
520.716796875 742 m 1
 417.716796875 742 l 1
 636.499023438 868 l 1
 762.499023438 868 l 1
 520.716796875 742 l 1
404.662109375 -11 m 0
 307.995117188 -11 234.671875 24.3330078125 184.693359375 95 c 128
 134.713867188 165.666992188 120.103515625 249.833007812 140.86328125 347.5 c 256
 161.623046875 445.166992188 212.048828125 529.5 292.140625 600.5 c 128
 372.231445312 671.5 460.610351562 707 557.27734375 707 c 0
 626.610351562 707 690.989257812 694.666992188 750.413085938 670 c 1
 715.920898438 583 l 1
 667.713867188 619.666992188 608.611328125 638 538.611328125 638 c 256
 468.611328125 638 404.021484375 607 344.84375 545 c 0
 290.131835938 488.333007812 254.8046875 422.5 238.86328125 347.5 c 256
 222.921875 272.5 230.333007812 207 261.095703125 151 c 0
 294.583984375 89 347.328125 58 419.328125 58 c 0
 463.995117188 58 500.344726562 62 528.37890625 70 c 128
 556.413085938 78 592.7890625 94.6669921875 637.506835938 120 c 1
 628.77734375 46 l 1
 583.151367188 22.6669921875 545.725585938 7.3330078125 516.5 0 c 128
 487.274414062 -7.3330078125 449.995117188 -11 404.662109375 -11 c 0
EndSplineSet
Position2: "'cpsp' Capital Spacing lookup 0 subtable" dx=7 dy=1 dh=14 dv=3
EndChar

StartChar: cacute
Encoding: 263 263 199
Width: 472
GlyphClass: 2
Flags: HMW
LayerCount: 2
Fore
SplineSet
360.166992188 523 m 1
 289.166992188 523 l 1
 469.514648438 694 l 1
 558.514648438 694 l 1
 360.166992188 523 l 1
447.71484375 41 m 1
 387.678710938 6.3330078125 325.829101562 -11 262.162109375 -11 c 128
 198.495117188 -11 149.348632812 11.8330078125 114.721679688 57.5 c 128
 80.095703125 103.166992188 69.796875 159 83.8251953125 225 c 128
 97.853515625 291 131.959960938 347.166992188 186.140625 393.5 c 128
 240.322265625 439.833007812 301.081054688 463 368.4140625 463 c 0
 423.747070312 463 475.295898438 448.333007812 523.061523438 419 c 1
 495.182617188 349 l 1
 452.225585938 379 405.4140625 394 354.747070312 394 c 0
 324.080078125 394 294.844726562 385.833007812 267.040039062 369.5 c 0
 217.142578125 340.189453125 185.000976562 291.689453125 170.612304688 224 c 0
 160.834960938 178 165.176757812 138.833007812 183.637695312 106.5 c 128
 202.09765625 74.1669921875 233.995117188 58 279.328125 58 c 0
 339.328125 58 398.557617188 76.3330078125 457.018554688 113 c 1
 447.71484375 41 l 1
EndSplineSet
Substitution2: "'smcp' Lowercase to Small Capitals lookup 16 subtable" Cacute.sc
EndChar

StartChar: Ccircumflex
Encoding: 264 264 200
Width: 679
GlyphClass: 2
Flags: HMW
LayerCount: 2
Fore
SplineSet
624.591796875 732 m 1
 544.784179688 827 l 1
 423.591796875 732 l 1
 354.591796875 732 l 1
 520.923828125 870 l 1
 585.923828125 870 l 1
 693.591796875 732 l 1
 624.591796875 732 l 1
404.662109375 -11 m 0
 307.995117188 -11 234.671875 24.3330078125 184.693359375 95 c 128
 134.713867188 165.666992188 120.103515625 249.833007812 140.86328125 347.5 c 256
 161.623046875 445.166992188 212.048828125 529.5 292.140625 600.5 c 128
 372.231445312 671.5 460.610351562 707 557.27734375 707 c 0
 626.610351562 707 690.989257812 694.666992188 750.413085938 670 c 1
 715.920898438 583 l 1
 667.713867188 619.666992188 608.611328125 638 538.611328125 638 c 256
 468.611328125 638 404.021484375 607 344.84375 545 c 0
 290.131835938 488.333007812 254.8046875 422.5 238.86328125 347.5 c 256
 222.921875 272.5 230.333007812 207 261.095703125 151 c 0
 294.583984375 89 347.328125 58 419.328125 58 c 0
 463.995117188 58 500.344726562 62 528.37890625 70 c 128
 556.413085938 78 592.7890625 94.6669921875 637.506835938 120 c 1
 628.77734375 46 l 1
 583.151367188 22.6669921875 545.725585938 7.3330078125 516.5 0 c 128
 487.274414062 -7.3330078125 449.995117188 -11 404.662109375 -11 c 0
EndSplineSet
Position2: "'cpsp' Capital Spacing lookup 0 subtable" dx=7 dy=1 dh=14 dv=3
EndChar

